G04*
G04 #@! TF.GenerationSoftware,Altium Limited,Altium Designer,18.0.12 (696)*
G04*
G04 Layer_Physical_Order=2*
G04 Layer_Color=16711680*
%FSLAX25Y25*%
%MOIN*%
G70*
G01*
G75*
%ADD15C,0.00800*%
%ADD18C,0.01000*%
%ADD103R,0.05906X0.03150*%
%ADD104R,0.03150X0.05906*%
%ADD105R,0.03150X0.05906*%
%ADD106C,0.09449*%
%ADD107C,0.08858*%
%ADD108C,0.03600*%
%ADD109C,0.05709*%
%ADD110R,0.05600X0.05600*%
%ADD111C,0.05600*%
%ADD112C,0.09600*%
%ADD113C,0.06000*%
%ADD114C,0.12800*%
%ADD115C,0.02500*%
G36*
X61980Y172520D02*
X0D01*
Y220000D01*
X61980D01*
Y172520D01*
D02*
G37*
G36*
X300000Y-20000D02*
X0D01*
Y171500D01*
X63000D01*
Y220000D01*
X300000D01*
Y-20000D01*
D02*
G37*
%LPC*%
G36*
X59000Y219037D02*
Y217343D01*
X60695D01*
X60619Y217721D01*
X60122Y218465D01*
X59378Y218962D01*
X59000Y219037D01*
D02*
G37*
G36*
X58000D02*
X57622Y218962D01*
X56878Y218465D01*
X56381Y217721D01*
X56305Y217343D01*
X58000D01*
Y219037D01*
D02*
G37*
G36*
X3805D02*
Y217343D01*
X5500D01*
X5425Y217721D01*
X4927Y218465D01*
X4183Y218962D01*
X3805Y219037D01*
D02*
G37*
G36*
X2805D02*
X2427Y218962D01*
X1683Y218465D01*
X1186Y217721D01*
X1111Y217343D01*
X2805D01*
Y219037D01*
D02*
G37*
G36*
X60695Y216343D02*
X59000D01*
Y214648D01*
X59378Y214723D01*
X60122Y215220D01*
X60619Y215965D01*
X60695Y216343D01*
D02*
G37*
G36*
X58000D02*
X56305D01*
X56381Y215965D01*
X56878Y215220D01*
X57622Y214723D01*
X58000Y214648D01*
Y216343D01*
D02*
G37*
G36*
X5500D02*
X3805D01*
Y214648D01*
X4183Y214723D01*
X4927Y215220D01*
X5425Y215965D01*
X5500Y216343D01*
D02*
G37*
G36*
X2805D02*
X1111D01*
X1186Y215965D01*
X1683Y215220D01*
X2427Y214723D01*
X2805Y214648D01*
Y216343D01*
D02*
G37*
G36*
X39260Y193453D02*
X37185D01*
Y190000D01*
X39260D01*
Y193453D01*
D02*
G37*
G36*
X36185D02*
X34110D01*
Y190000D01*
X36185D01*
Y193453D01*
D02*
G37*
G36*
X39260Y189000D02*
X37185D01*
Y185547D01*
X39260D01*
Y189000D01*
D02*
G37*
G36*
X36185D02*
X34110D01*
Y185547D01*
X36185D01*
Y189000D01*
D02*
G37*
G36*
X19575Y193453D02*
X14425D01*
Y185547D01*
X19575D01*
Y193453D01*
D02*
G37*
G36*
X59000Y178195D02*
Y176500D01*
X60695D01*
X60619Y176878D01*
X60122Y177622D01*
X59378Y178120D01*
X59000Y178195D01*
D02*
G37*
G36*
X58000D02*
X57622Y178120D01*
X56878Y177622D01*
X56381Y176878D01*
X56305Y176500D01*
X58000D01*
Y178195D01*
D02*
G37*
G36*
X3805D02*
Y176500D01*
X5500D01*
X5425Y176878D01*
X4927Y177622D01*
X4183Y178120D01*
X3805Y178195D01*
D02*
G37*
G36*
X2805D02*
X2427Y178120D01*
X1683Y177622D01*
X1186Y176878D01*
X1111Y176500D01*
X2805D01*
Y178195D01*
D02*
G37*
G36*
X30795Y181445D02*
X22890D01*
Y176295D01*
X30795D01*
Y181445D01*
D02*
G37*
G36*
X60695Y175500D02*
X59000D01*
Y173805D01*
X59378Y173881D01*
X60122Y174378D01*
X60619Y175122D01*
X60695Y175500D01*
D02*
G37*
G36*
X58000D02*
X56305D01*
X56381Y175122D01*
X56878Y174378D01*
X57622Y173881D01*
X58000Y173805D01*
Y175500D01*
D02*
G37*
G36*
X5500D02*
X3805D01*
Y173805D01*
X4183Y173881D01*
X4927Y174378D01*
X5425Y175122D01*
X5500Y175500D01*
D02*
G37*
G36*
X2805D02*
X1111D01*
X1186Y175122D01*
X1683Y174378D01*
X2427Y173881D01*
X2805Y173805D01*
Y175500D01*
D02*
G37*
G36*
X296000Y219037D02*
Y217343D01*
X297695D01*
X297620Y217721D01*
X297122Y218465D01*
X296378Y218962D01*
X296000Y219037D01*
D02*
G37*
G36*
X295000D02*
X294622Y218962D01*
X293878Y218465D01*
X293380Y217721D01*
X293305Y217343D01*
X295000D01*
Y219037D01*
D02*
G37*
G36*
X289000D02*
Y217343D01*
X290695D01*
X290619Y217721D01*
X290122Y218465D01*
X289378Y218962D01*
X289000Y219037D01*
D02*
G37*
G36*
X288000D02*
X287622Y218962D01*
X286878Y218465D01*
X286381Y217721D01*
X286305Y217343D01*
X288000D01*
Y219037D01*
D02*
G37*
G36*
X282000D02*
Y217343D01*
X283695D01*
X283619Y217721D01*
X283122Y218465D01*
X282378Y218962D01*
X282000Y219037D01*
D02*
G37*
G36*
X281000D02*
X280622Y218962D01*
X279878Y218465D01*
X279380Y217721D01*
X279305Y217343D01*
X281000D01*
Y219037D01*
D02*
G37*
G36*
X275000D02*
Y217343D01*
X276695D01*
X276620Y217721D01*
X276122Y218465D01*
X275378Y218962D01*
X275000Y219037D01*
D02*
G37*
G36*
X274000D02*
X273622Y218962D01*
X272878Y218465D01*
X272380Y217721D01*
X272305Y217343D01*
X274000D01*
Y219037D01*
D02*
G37*
G36*
X268000D02*
Y217343D01*
X269695D01*
X269619Y217721D01*
X269122Y218465D01*
X268378Y218962D01*
X268000Y219037D01*
D02*
G37*
G36*
X267000D02*
X266622Y218962D01*
X265878Y218465D01*
X265381Y217721D01*
X265305Y217343D01*
X267000D01*
Y219037D01*
D02*
G37*
G36*
X261000D02*
Y217343D01*
X262695D01*
X262619Y217721D01*
X262122Y218465D01*
X261378Y218962D01*
X261000Y219037D01*
D02*
G37*
G36*
X260000D02*
X259622Y218962D01*
X258878Y218465D01*
X258381Y217721D01*
X258305Y217343D01*
X260000D01*
Y219037D01*
D02*
G37*
G36*
X254000D02*
Y217343D01*
X255695D01*
X255620Y217721D01*
X255122Y218465D01*
X254378Y218962D01*
X254000Y219037D01*
D02*
G37*
G36*
X253000D02*
X252622Y218962D01*
X251878Y218465D01*
X251380Y217721D01*
X251305Y217343D01*
X253000D01*
Y219037D01*
D02*
G37*
G36*
X247000D02*
Y217343D01*
X248695D01*
X248620Y217721D01*
X248122Y218465D01*
X247378Y218962D01*
X247000Y219037D01*
D02*
G37*
G36*
X246000D02*
X245622Y218962D01*
X244878Y218465D01*
X244380Y217721D01*
X244305Y217343D01*
X246000D01*
Y219037D01*
D02*
G37*
G36*
X240000D02*
Y217343D01*
X241695D01*
X241619Y217721D01*
X241122Y218465D01*
X240378Y218962D01*
X240000Y219037D01*
D02*
G37*
G36*
X239000D02*
X238622Y218962D01*
X237878Y218465D01*
X237381Y217721D01*
X237305Y217343D01*
X239000D01*
Y219037D01*
D02*
G37*
G36*
X233000D02*
Y217343D01*
X234695D01*
X234619Y217721D01*
X234122Y218465D01*
X233378Y218962D01*
X233000Y219037D01*
D02*
G37*
G36*
X232000D02*
X231622Y218962D01*
X230878Y218465D01*
X230381Y217721D01*
X230305Y217343D01*
X232000D01*
Y219037D01*
D02*
G37*
G36*
X226000D02*
Y217343D01*
X227695D01*
X227620Y217721D01*
X227122Y218465D01*
X226378Y218962D01*
X226000Y219037D01*
D02*
G37*
G36*
X225000D02*
X224622Y218962D01*
X223878Y218465D01*
X223380Y217721D01*
X223305Y217343D01*
X225000D01*
Y219037D01*
D02*
G37*
G36*
X219000D02*
Y217343D01*
X220695D01*
X220620Y217721D01*
X220122Y218465D01*
X219378Y218962D01*
X219000Y219037D01*
D02*
G37*
G36*
X218000D02*
X217622Y218962D01*
X216878Y218465D01*
X216381Y217721D01*
X216305Y217343D01*
X218000D01*
Y219037D01*
D02*
G37*
G36*
X212000D02*
Y217343D01*
X213695D01*
X213619Y217721D01*
X213122Y218465D01*
X212378Y218962D01*
X212000Y219037D01*
D02*
G37*
G36*
X211000D02*
X210622Y218962D01*
X209878Y218465D01*
X209381Y217721D01*
X209305Y217343D01*
X211000D01*
Y219037D01*
D02*
G37*
G36*
X205000D02*
Y217343D01*
X206695D01*
X206620Y217721D01*
X206122Y218465D01*
X205378Y218962D01*
X205000Y219037D01*
D02*
G37*
G36*
X204000D02*
X203622Y218962D01*
X202878Y218465D01*
X202380Y217721D01*
X202305Y217343D01*
X204000D01*
Y219037D01*
D02*
G37*
G36*
X297695Y216343D02*
X296000D01*
Y214648D01*
X296378Y214723D01*
X297122Y215220D01*
X297620Y215965D01*
X297695Y216343D01*
D02*
G37*
G36*
X295000D02*
X293305D01*
X293380Y215965D01*
X293878Y215220D01*
X294622Y214723D01*
X295000Y214648D01*
Y216343D01*
D02*
G37*
G36*
X290695D02*
X289000D01*
Y214648D01*
X289378Y214723D01*
X290122Y215220D01*
X290619Y215965D01*
X290695Y216343D01*
D02*
G37*
G36*
X288000D02*
X286305D01*
X286381Y215965D01*
X286878Y215220D01*
X287622Y214723D01*
X288000Y214648D01*
Y216343D01*
D02*
G37*
G36*
X283695D02*
X282000D01*
Y214648D01*
X282378Y214723D01*
X283122Y215220D01*
X283619Y215965D01*
X283695Y216343D01*
D02*
G37*
G36*
X281000D02*
X279305D01*
X279380Y215965D01*
X279878Y215220D01*
X280622Y214723D01*
X281000Y214648D01*
Y216343D01*
D02*
G37*
G36*
X276695D02*
X275000D01*
Y214648D01*
X275378Y214723D01*
X276122Y215220D01*
X276620Y215965D01*
X276695Y216343D01*
D02*
G37*
G36*
X274000D02*
X272305D01*
X272380Y215965D01*
X272878Y215220D01*
X273622Y214723D01*
X274000Y214648D01*
Y216343D01*
D02*
G37*
G36*
X269695D02*
X268000D01*
Y214648D01*
X268378Y214723D01*
X269122Y215220D01*
X269619Y215965D01*
X269695Y216343D01*
D02*
G37*
G36*
X267000D02*
X265305D01*
X265381Y215965D01*
X265878Y215220D01*
X266622Y214723D01*
X267000Y214648D01*
Y216343D01*
D02*
G37*
G36*
X262695D02*
X261000D01*
Y214648D01*
X261378Y214723D01*
X262122Y215220D01*
X262619Y215965D01*
X262695Y216343D01*
D02*
G37*
G36*
X260000D02*
X258305D01*
X258381Y215965D01*
X258878Y215220D01*
X259622Y214723D01*
X260000Y214648D01*
Y216343D01*
D02*
G37*
G36*
X255695D02*
X254000D01*
Y214648D01*
X254378Y214723D01*
X255122Y215220D01*
X255620Y215965D01*
X255695Y216343D01*
D02*
G37*
G36*
X253000D02*
X251305D01*
X251380Y215965D01*
X251878Y215220D01*
X252622Y214723D01*
X253000Y214648D01*
Y216343D01*
D02*
G37*
G36*
X248695D02*
X247000D01*
Y214648D01*
X247378Y214723D01*
X248122Y215220D01*
X248620Y215965D01*
X248695Y216343D01*
D02*
G37*
G36*
X246000D02*
X244305D01*
X244380Y215965D01*
X244878Y215220D01*
X245622Y214723D01*
X246000Y214648D01*
Y216343D01*
D02*
G37*
G36*
X241695D02*
X240000D01*
Y214648D01*
X240378Y214723D01*
X241122Y215220D01*
X241619Y215965D01*
X241695Y216343D01*
D02*
G37*
G36*
X239000D02*
X237305D01*
X237381Y215965D01*
X237878Y215220D01*
X238622Y214723D01*
X239000Y214648D01*
Y216343D01*
D02*
G37*
G36*
X234695D02*
X233000D01*
Y214648D01*
X233378Y214723D01*
X234122Y215220D01*
X234619Y215965D01*
X234695Y216343D01*
D02*
G37*
G36*
X232000D02*
X230305D01*
X230381Y215965D01*
X230878Y215220D01*
X231622Y214723D01*
X232000Y214648D01*
Y216343D01*
D02*
G37*
G36*
X227695D02*
X226000D01*
Y214648D01*
X226378Y214723D01*
X227122Y215220D01*
X227620Y215965D01*
X227695Y216343D01*
D02*
G37*
G36*
X225000D02*
X223305D01*
X223380Y215965D01*
X223878Y215220D01*
X224622Y214723D01*
X225000Y214648D01*
Y216343D01*
D02*
G37*
G36*
X220695D02*
X219000D01*
Y214648D01*
X219378Y214723D01*
X220122Y215220D01*
X220620Y215965D01*
X220695Y216343D01*
D02*
G37*
G36*
X218000D02*
X216305D01*
X216381Y215965D01*
X216878Y215220D01*
X217622Y214723D01*
X218000Y214648D01*
Y216343D01*
D02*
G37*
G36*
X213695D02*
X212000D01*
Y214648D01*
X212378Y214723D01*
X213122Y215220D01*
X213619Y215965D01*
X213695Y216343D01*
D02*
G37*
G36*
X211000D02*
X209305D01*
X209381Y215965D01*
X209878Y215220D01*
X210622Y214723D01*
X211000Y214648D01*
Y216343D01*
D02*
G37*
G36*
X206695D02*
X205000D01*
Y214648D01*
X205378Y214723D01*
X206122Y215220D01*
X206620Y215965D01*
X206695Y216343D01*
D02*
G37*
G36*
X204000D02*
X202305D01*
X202380Y215965D01*
X202878Y215220D01*
X203622Y214723D01*
X204000Y214648D01*
Y216343D01*
D02*
G37*
G36*
X296000Y212037D02*
Y210343D01*
X297695D01*
X297620Y210720D01*
X297122Y211465D01*
X296378Y211962D01*
X296000Y212037D01*
D02*
G37*
G36*
X295000D02*
X294622Y211962D01*
X293878Y211465D01*
X293380Y210720D01*
X293305Y210343D01*
X295000D01*
Y212037D01*
D02*
G37*
G36*
X205000D02*
Y210343D01*
X206695D01*
X206620Y210720D01*
X206122Y211465D01*
X205378Y211962D01*
X205000Y212037D01*
D02*
G37*
G36*
X204000D02*
X203622Y211962D01*
X202878Y211465D01*
X202380Y210720D01*
X202305Y210343D01*
X204000D01*
Y212037D01*
D02*
G37*
G36*
X297695Y209343D02*
X296000D01*
Y207648D01*
X296378Y207723D01*
X297122Y208220D01*
X297620Y208965D01*
X297695Y209343D01*
D02*
G37*
G36*
X295000D02*
X293305D01*
X293380Y208965D01*
X293878Y208220D01*
X294622Y207723D01*
X295000Y207648D01*
Y209343D01*
D02*
G37*
G36*
X206695D02*
X205000D01*
Y207648D01*
X205378Y207723D01*
X206122Y208220D01*
X206620Y208965D01*
X206695Y209343D01*
D02*
G37*
G36*
X204000D02*
X202305D01*
X202380Y208965D01*
X202878Y208220D01*
X203622Y207723D01*
X204000Y207648D01*
Y209343D01*
D02*
G37*
G36*
X205000Y205037D02*
Y203343D01*
X206695D01*
X206620Y203720D01*
X206122Y204465D01*
X205378Y204962D01*
X205000Y205037D01*
D02*
G37*
G36*
X204000D02*
X203622Y204962D01*
X202878Y204465D01*
X202380Y203720D01*
X202305Y203343D01*
X204000D01*
Y205037D01*
D02*
G37*
G36*
X206695Y202343D02*
X205000D01*
Y200648D01*
X205378Y200723D01*
X206122Y201220D01*
X206620Y201965D01*
X206695Y202343D01*
D02*
G37*
G36*
X204000D02*
X202305D01*
X202380Y201965D01*
X202878Y201220D01*
X203622Y200723D01*
X204000Y200648D01*
Y202343D01*
D02*
G37*
G36*
X272500Y204551D02*
Y199343D01*
X277708D01*
X277577Y200337D01*
X277000Y201729D01*
X276083Y202925D01*
X274887Y203843D01*
X273494Y204420D01*
X272500Y204551D01*
D02*
G37*
G36*
X292500D02*
Y199343D01*
X297708D01*
X297577Y200337D01*
X297000Y201729D01*
X296083Y202925D01*
X294887Y203843D01*
X293494Y204420D01*
X292500Y204551D01*
D02*
G37*
G36*
X271500D02*
X270506Y204420D01*
X269113Y203843D01*
X267917Y202925D01*
X267000Y201729D01*
X266423Y200337D01*
X266292Y199343D01*
X271500D01*
Y204551D01*
D02*
G37*
G36*
X291500D02*
X290506Y204420D01*
X289113Y203843D01*
X287917Y202925D01*
X287000Y201729D01*
X286423Y200337D01*
X286292Y199343D01*
X291500D01*
Y204551D01*
D02*
G37*
G36*
X152542Y198152D02*
Y196458D01*
X154237D01*
X154162Y196836D01*
X153664Y197580D01*
X152920Y198077D01*
X152542Y198152D01*
D02*
G37*
G36*
X151542D02*
X151164Y198077D01*
X150420Y197580D01*
X149923Y196836D01*
X149848Y196458D01*
X151542D01*
Y198152D01*
D02*
G37*
G36*
X205000Y198037D02*
Y196343D01*
X206695D01*
X206620Y196721D01*
X206122Y197465D01*
X205378Y197962D01*
X205000Y198037D01*
D02*
G37*
G36*
X204000D02*
X203622Y197962D01*
X202878Y197465D01*
X202380Y196721D01*
X202305Y196343D01*
X204000D01*
Y198037D01*
D02*
G37*
G36*
X154237Y195458D02*
X152542D01*
Y193763D01*
X152920Y193838D01*
X153664Y194336D01*
X154162Y195080D01*
X154237Y195458D01*
D02*
G37*
G36*
X151542D02*
X149848D01*
X149923Y195080D01*
X150420Y194336D01*
X151164Y193838D01*
X151542Y193763D01*
Y195458D01*
D02*
G37*
G36*
X206695Y195343D02*
X205000D01*
Y193648D01*
X205378Y193723D01*
X206122Y194220D01*
X206620Y194965D01*
X206695Y195343D01*
D02*
G37*
G36*
X204000D02*
X202305D01*
X202380Y194965D01*
X202878Y194220D01*
X203622Y193723D01*
X204000Y193648D01*
Y195343D01*
D02*
G37*
G36*
X297708Y198343D02*
X292500D01*
Y193135D01*
X293494Y193265D01*
X294887Y193842D01*
X296083Y194760D01*
X297000Y195956D01*
X297577Y197348D01*
X297708Y198343D01*
D02*
G37*
G36*
X277708D02*
X272500D01*
Y193135D01*
X273494Y193265D01*
X274887Y193842D01*
X276083Y194760D01*
X277000Y195956D01*
X277577Y197348D01*
X277708Y198343D01*
D02*
G37*
G36*
X291500D02*
X286292D01*
X286423Y197348D01*
X287000Y195956D01*
X287917Y194760D01*
X289113Y193842D01*
X290506Y193265D01*
X291500Y193135D01*
Y198343D01*
D02*
G37*
G36*
X271500D02*
X266292D01*
X266423Y197348D01*
X267000Y195956D01*
X267917Y194760D01*
X269113Y193842D01*
X270506Y193265D01*
X271500Y193135D01*
Y198343D01*
D02*
G37*
G36*
X109000Y192444D02*
Y190749D01*
X110695D01*
X110619Y191127D01*
X110122Y191871D01*
X109378Y192368D01*
X109000Y192444D01*
D02*
G37*
G36*
X108000D02*
X107622Y192368D01*
X106878Y191871D01*
X106381Y191127D01*
X106305Y190749D01*
X108000D01*
Y192444D01*
D02*
G37*
G36*
X205000Y191037D02*
Y189343D01*
X206695D01*
X206620Y189720D01*
X206122Y190465D01*
X205378Y190962D01*
X205000Y191037D01*
D02*
G37*
G36*
X204000D02*
X203622Y190962D01*
X202878Y190465D01*
X202380Y189720D01*
X202305Y189343D01*
X204000D01*
Y191037D01*
D02*
G37*
G36*
X110695Y189749D02*
X109000D01*
Y188055D01*
X109378Y188130D01*
X110122Y188627D01*
X110619Y189371D01*
X110695Y189749D01*
D02*
G37*
G36*
X108000D02*
X106305D01*
X106381Y189371D01*
X106878Y188627D01*
X107622Y188130D01*
X108000Y188055D01*
Y189749D01*
D02*
G37*
G36*
X206695Y188343D02*
X205000D01*
Y186648D01*
X205378Y186723D01*
X206122Y187220D01*
X206620Y187965D01*
X206695Y188343D01*
D02*
G37*
G36*
X204000D02*
X202305D01*
X202380Y187965D01*
X202878Y187220D01*
X203622Y186723D01*
X204000Y186648D01*
Y188343D01*
D02*
G37*
G36*
X282000Y194319D02*
X280583Y194132D01*
X279262Y193585D01*
X278128Y192715D01*
X277258Y191581D01*
X276711Y190260D01*
X276524Y188843D01*
X276711Y187425D01*
X277258Y186105D01*
X278128Y184970D01*
X279262Y184100D01*
X280583Y183553D01*
X282000Y183367D01*
X283417Y183553D01*
X284738Y184100D01*
X285872Y184970D01*
X286742Y186105D01*
X287289Y187425D01*
X287476Y188843D01*
X287289Y190260D01*
X286742Y191581D01*
X285872Y192715D01*
X284738Y193585D01*
X283417Y194132D01*
X282000Y194319D01*
D02*
G37*
G36*
X129000Y184919D02*
Y183224D01*
X130695D01*
X130620Y183602D01*
X130122Y184347D01*
X129378Y184844D01*
X129000Y184919D01*
D02*
G37*
G36*
X128000D02*
X127622Y184844D01*
X126878Y184347D01*
X126381Y183602D01*
X126305Y183224D01*
X128000D01*
Y184919D01*
D02*
G37*
G36*
X182500Y184695D02*
Y183000D01*
X184195D01*
X184119Y183378D01*
X183622Y184122D01*
X182878Y184619D01*
X182500Y184695D01*
D02*
G37*
G36*
X181500D02*
X181122Y184619D01*
X180378Y184122D01*
X179880Y183378D01*
X179805Y183000D01*
X181500D01*
Y184695D01*
D02*
G37*
G36*
X205000Y184037D02*
Y182343D01*
X206695D01*
X206620Y182720D01*
X206122Y183465D01*
X205378Y183962D01*
X205000Y184037D01*
D02*
G37*
G36*
X204000D02*
X203622Y183962D01*
X202878Y183465D01*
X202380Y182720D01*
X202305Y182343D01*
X204000D01*
Y184037D01*
D02*
G37*
G36*
X130695Y182224D02*
X129000D01*
Y180530D01*
X129378Y180605D01*
X130122Y181102D01*
X130620Y181846D01*
X130695Y182224D01*
D02*
G37*
G36*
X128000D02*
X126305D01*
X126381Y181846D01*
X126878Y181102D01*
X127622Y180605D01*
X128000Y180530D01*
Y182224D01*
D02*
G37*
G36*
X184195Y182000D02*
X182500D01*
Y180305D01*
X182878Y180380D01*
X183622Y180878D01*
X184119Y181622D01*
X184195Y182000D01*
D02*
G37*
G36*
X181500D02*
X179805D01*
X179880Y181622D01*
X180378Y180878D01*
X181122Y180380D01*
X181500Y180305D01*
Y182000D01*
D02*
G37*
G36*
X206695Y181343D02*
X205000D01*
Y179648D01*
X205378Y179723D01*
X206122Y180220D01*
X206620Y180965D01*
X206695Y181343D01*
D02*
G37*
G36*
X204000D02*
X202305D01*
X202380Y180965D01*
X202878Y180220D01*
X203622Y179723D01*
X204000Y179648D01*
Y181343D01*
D02*
G37*
G36*
X272500Y184551D02*
Y179343D01*
X277708D01*
X277577Y180337D01*
X277000Y181729D01*
X276083Y182925D01*
X274887Y183843D01*
X273494Y184420D01*
X272500Y184551D01*
D02*
G37*
G36*
X292500D02*
Y179343D01*
X297708D01*
X297577Y180337D01*
X297000Y181729D01*
X296083Y182925D01*
X294887Y183843D01*
X293494Y184420D01*
X292500Y184551D01*
D02*
G37*
G36*
X271500D02*
X270506Y184420D01*
X269113Y183843D01*
X267917Y182925D01*
X267000Y181729D01*
X266423Y180337D01*
X266292Y179343D01*
X271500D01*
Y184551D01*
D02*
G37*
G36*
X291500D02*
X290506Y184420D01*
X289113Y183843D01*
X287917Y182925D01*
X287000Y181729D01*
X286423Y180337D01*
X286292Y179343D01*
X291500D01*
Y184551D01*
D02*
G37*
G36*
X205000Y177037D02*
Y175343D01*
X206695D01*
X206620Y175721D01*
X206122Y176465D01*
X205378Y176962D01*
X205000Y177037D01*
D02*
G37*
G36*
X204000D02*
X203622Y176962D01*
X202878Y176465D01*
X202380Y175721D01*
X202305Y175343D01*
X204000D01*
Y177037D01*
D02*
G37*
G36*
X297708Y178343D02*
X292500D01*
Y173135D01*
X293494Y173266D01*
X294887Y173842D01*
X296083Y174760D01*
X297000Y175956D01*
X297577Y177348D01*
X297708Y178343D01*
D02*
G37*
G36*
X277708D02*
X272500D01*
Y173135D01*
X273494Y173266D01*
X274887Y173842D01*
X276083Y174760D01*
X277000Y175956D01*
X277577Y177348D01*
X277708Y178343D01*
D02*
G37*
G36*
X291500D02*
X286292D01*
X286423Y177348D01*
X287000Y175956D01*
X287917Y174760D01*
X289113Y173842D01*
X290506Y173266D01*
X291500Y173135D01*
Y178343D01*
D02*
G37*
G36*
X271500D02*
X266292D01*
X266423Y177348D01*
X267000Y175956D01*
X267917Y174760D01*
X269113Y173842D01*
X270506Y173266D01*
X271500Y173135D01*
Y178343D01*
D02*
G37*
G36*
X206695Y174343D02*
X205000D01*
Y172648D01*
X205378Y172723D01*
X206122Y173220D01*
X206620Y173965D01*
X206695Y174343D01*
D02*
G37*
G36*
X204000D02*
X202305D01*
X202380Y173965D01*
X202878Y173220D01*
X203622Y172723D01*
X204000Y172648D01*
Y174343D01*
D02*
G37*
G36*
X296000Y170037D02*
Y168343D01*
X297695D01*
X297620Y168720D01*
X297122Y169465D01*
X296378Y169962D01*
X296000Y170037D01*
D02*
G37*
G36*
X295000D02*
X294622Y169962D01*
X293878Y169465D01*
X293380Y168720D01*
X293305Y168343D01*
X295000D01*
Y170037D01*
D02*
G37*
G36*
X205000D02*
Y168343D01*
X206695D01*
X206620Y168720D01*
X206122Y169465D01*
X205378Y169962D01*
X205000Y170037D01*
D02*
G37*
G36*
X204000D02*
X203622Y169962D01*
X202878Y169465D01*
X202380Y168720D01*
X202305Y168343D01*
X204000D01*
Y170037D01*
D02*
G37*
G36*
X146500Y167795D02*
Y166100D01*
X148195D01*
X148119Y166478D01*
X147622Y167222D01*
X146878Y167719D01*
X146500Y167795D01*
D02*
G37*
G36*
X145500D02*
X145122Y167719D01*
X144378Y167222D01*
X143880Y166478D01*
X143805Y166100D01*
X145500D01*
Y167795D01*
D02*
G37*
G36*
X297695Y167343D02*
X296000D01*
Y165648D01*
X296378Y165723D01*
X297122Y166220D01*
X297620Y166965D01*
X297695Y167343D01*
D02*
G37*
G36*
X295000D02*
X293305D01*
X293380Y166965D01*
X293878Y166220D01*
X294622Y165723D01*
X295000Y165648D01*
Y167343D01*
D02*
G37*
G36*
X206695D02*
X205000D01*
Y165648D01*
X205378Y165723D01*
X206122Y166220D01*
X206620Y166965D01*
X206695Y167343D01*
D02*
G37*
G36*
X204000D02*
X202305D01*
X202380Y166965D01*
X202878Y166220D01*
X203622Y165723D01*
X204000Y165648D01*
Y167343D01*
D02*
G37*
G36*
X148195Y165100D02*
X146500D01*
Y163405D01*
X146878Y163480D01*
X147622Y163978D01*
X148119Y164722D01*
X148195Y165100D01*
D02*
G37*
G36*
X145500D02*
X143805D01*
X143880Y164722D01*
X144378Y163978D01*
X145122Y163480D01*
X145500Y163405D01*
Y165100D01*
D02*
G37*
G36*
X296000Y163037D02*
Y161343D01*
X297695D01*
X297620Y161721D01*
X297122Y162465D01*
X296378Y162962D01*
X296000Y163037D01*
D02*
G37*
G36*
X295000D02*
X294622Y162962D01*
X293878Y162465D01*
X293380Y161721D01*
X293305Y161343D01*
X295000D01*
Y163037D01*
D02*
G37*
G36*
X289000D02*
Y161343D01*
X290695D01*
X290619Y161721D01*
X290122Y162465D01*
X289378Y162962D01*
X289000Y163037D01*
D02*
G37*
G36*
X288000D02*
X287622Y162962D01*
X286878Y162465D01*
X286381Y161721D01*
X286305Y161343D01*
X288000D01*
Y163037D01*
D02*
G37*
G36*
X282000D02*
Y161343D01*
X283695D01*
X283619Y161721D01*
X283122Y162465D01*
X282378Y162962D01*
X282000Y163037D01*
D02*
G37*
G36*
X281000D02*
X280622Y162962D01*
X279878Y162465D01*
X279380Y161721D01*
X279305Y161343D01*
X281000D01*
Y163037D01*
D02*
G37*
G36*
X275000D02*
Y161343D01*
X276695D01*
X276620Y161721D01*
X276122Y162465D01*
X275378Y162962D01*
X275000Y163037D01*
D02*
G37*
G36*
X274000D02*
X273622Y162962D01*
X272878Y162465D01*
X272380Y161721D01*
X272305Y161343D01*
X274000D01*
Y163037D01*
D02*
G37*
G36*
X268000D02*
Y161343D01*
X269695D01*
X269619Y161721D01*
X269122Y162465D01*
X268378Y162962D01*
X268000Y163037D01*
D02*
G37*
G36*
X267000D02*
X266622Y162962D01*
X265878Y162465D01*
X265381Y161721D01*
X265305Y161343D01*
X267000D01*
Y163037D01*
D02*
G37*
G36*
X261000D02*
Y161343D01*
X262695D01*
X262619Y161721D01*
X262122Y162465D01*
X261378Y162962D01*
X261000Y163037D01*
D02*
G37*
G36*
X260000D02*
X259622Y162962D01*
X258878Y162465D01*
X258381Y161721D01*
X258305Y161343D01*
X260000D01*
Y163037D01*
D02*
G37*
G36*
X254000D02*
Y161343D01*
X255695D01*
X255620Y161721D01*
X255122Y162465D01*
X254378Y162962D01*
X254000Y163037D01*
D02*
G37*
G36*
X253000D02*
X252622Y162962D01*
X251878Y162465D01*
X251380Y161721D01*
X251305Y161343D01*
X253000D01*
Y163037D01*
D02*
G37*
G36*
X247000D02*
Y161343D01*
X248695D01*
X248620Y161721D01*
X248122Y162465D01*
X247378Y162962D01*
X247000Y163037D01*
D02*
G37*
G36*
X246000D02*
X245622Y162962D01*
X244878Y162465D01*
X244380Y161721D01*
X244305Y161343D01*
X246000D01*
Y163037D01*
D02*
G37*
G36*
X240000D02*
Y161343D01*
X241695D01*
X241619Y161721D01*
X241122Y162465D01*
X240378Y162962D01*
X240000Y163037D01*
D02*
G37*
G36*
X239000D02*
X238622Y162962D01*
X237878Y162465D01*
X237381Y161721D01*
X237305Y161343D01*
X239000D01*
Y163037D01*
D02*
G37*
G36*
X233000D02*
Y161343D01*
X234695D01*
X234619Y161721D01*
X234122Y162465D01*
X233378Y162962D01*
X233000Y163037D01*
D02*
G37*
G36*
X232000D02*
X231622Y162962D01*
X230878Y162465D01*
X230381Y161721D01*
X230305Y161343D01*
X232000D01*
Y163037D01*
D02*
G37*
G36*
X226000D02*
Y161343D01*
X227695D01*
X227620Y161721D01*
X227122Y162465D01*
X226378Y162962D01*
X226000Y163037D01*
D02*
G37*
G36*
X225000D02*
X224622Y162962D01*
X223878Y162465D01*
X223380Y161721D01*
X223305Y161343D01*
X225000D01*
Y163037D01*
D02*
G37*
G36*
X219000D02*
Y161343D01*
X220695D01*
X220620Y161721D01*
X220122Y162465D01*
X219378Y162962D01*
X219000Y163037D01*
D02*
G37*
G36*
X218000D02*
X217622Y162962D01*
X216878Y162465D01*
X216381Y161721D01*
X216305Y161343D01*
X218000D01*
Y163037D01*
D02*
G37*
G36*
X212000D02*
Y161343D01*
X213695D01*
X213619Y161721D01*
X213122Y162465D01*
X212378Y162962D01*
X212000Y163037D01*
D02*
G37*
G36*
X211000D02*
X210622Y162962D01*
X209878Y162465D01*
X209381Y161721D01*
X209305Y161343D01*
X211000D01*
Y163037D01*
D02*
G37*
G36*
X205000D02*
Y161343D01*
X206695D01*
X206620Y161721D01*
X206122Y162465D01*
X205378Y162962D01*
X205000Y163037D01*
D02*
G37*
G36*
X204000D02*
X203622Y162962D01*
X202878Y162465D01*
X202380Y161721D01*
X202305Y161343D01*
X204000D01*
Y163037D01*
D02*
G37*
G36*
X297695Y160343D02*
X296000D01*
Y158648D01*
X296378Y158723D01*
X297122Y159220D01*
X297620Y159965D01*
X297695Y160343D01*
D02*
G37*
G36*
X295000D02*
X293305D01*
X293380Y159965D01*
X293878Y159220D01*
X294622Y158723D01*
X295000Y158648D01*
Y160343D01*
D02*
G37*
G36*
X290695D02*
X289000D01*
Y158648D01*
X289378Y158723D01*
X290122Y159220D01*
X290619Y159965D01*
X290695Y160343D01*
D02*
G37*
G36*
X288000D02*
X286305D01*
X286381Y159965D01*
X286878Y159220D01*
X287622Y158723D01*
X288000Y158648D01*
Y160343D01*
D02*
G37*
G36*
X283695D02*
X282000D01*
Y158648D01*
X282378Y158723D01*
X283122Y159220D01*
X283619Y159965D01*
X283695Y160343D01*
D02*
G37*
G36*
X281000D02*
X279305D01*
X279380Y159965D01*
X279878Y159220D01*
X280622Y158723D01*
X281000Y158648D01*
Y160343D01*
D02*
G37*
G36*
X276695D02*
X275000D01*
Y158648D01*
X275378Y158723D01*
X276122Y159220D01*
X276620Y159965D01*
X276695Y160343D01*
D02*
G37*
G36*
X274000D02*
X272305D01*
X272380Y159965D01*
X272878Y159220D01*
X273622Y158723D01*
X274000Y158648D01*
Y160343D01*
D02*
G37*
G36*
X269695D02*
X268000D01*
Y158648D01*
X268378Y158723D01*
X269122Y159220D01*
X269619Y159965D01*
X269695Y160343D01*
D02*
G37*
G36*
X267000D02*
X265305D01*
X265381Y159965D01*
X265878Y159220D01*
X266622Y158723D01*
X267000Y158648D01*
Y160343D01*
D02*
G37*
G36*
X262695D02*
X261000D01*
Y158648D01*
X261378Y158723D01*
X262122Y159220D01*
X262619Y159965D01*
X262695Y160343D01*
D02*
G37*
G36*
X260000D02*
X258305D01*
X258381Y159965D01*
X258878Y159220D01*
X259622Y158723D01*
X260000Y158648D01*
Y160343D01*
D02*
G37*
G36*
X255695D02*
X254000D01*
Y158648D01*
X254378Y158723D01*
X255122Y159220D01*
X255620Y159965D01*
X255695Y160343D01*
D02*
G37*
G36*
X253000D02*
X251305D01*
X251380Y159965D01*
X251878Y159220D01*
X252622Y158723D01*
X253000Y158648D01*
Y160343D01*
D02*
G37*
G36*
X248695D02*
X247000D01*
Y158648D01*
X247378Y158723D01*
X248122Y159220D01*
X248620Y159965D01*
X248695Y160343D01*
D02*
G37*
G36*
X246000D02*
X244305D01*
X244380Y159965D01*
X244878Y159220D01*
X245622Y158723D01*
X246000Y158648D01*
Y160343D01*
D02*
G37*
G36*
X241695D02*
X240000D01*
Y158648D01*
X240378Y158723D01*
X241122Y159220D01*
X241619Y159965D01*
X241695Y160343D01*
D02*
G37*
G36*
X239000D02*
X237305D01*
X237381Y159965D01*
X237878Y159220D01*
X238622Y158723D01*
X239000Y158648D01*
Y160343D01*
D02*
G37*
G36*
X234695D02*
X233000D01*
Y158648D01*
X233378Y158723D01*
X234122Y159220D01*
X234619Y159965D01*
X234695Y160343D01*
D02*
G37*
G36*
X232000D02*
X230305D01*
X230381Y159965D01*
X230878Y159220D01*
X231622Y158723D01*
X232000Y158648D01*
Y160343D01*
D02*
G37*
G36*
X227695D02*
X226000D01*
Y158648D01*
X226378Y158723D01*
X227122Y159220D01*
X227620Y159965D01*
X227695Y160343D01*
D02*
G37*
G36*
X225000D02*
X223305D01*
X223380Y159965D01*
X223878Y159220D01*
X224622Y158723D01*
X225000Y158648D01*
Y160343D01*
D02*
G37*
G36*
X220695D02*
X219000D01*
Y158648D01*
X219378Y158723D01*
X220122Y159220D01*
X220620Y159965D01*
X220695Y160343D01*
D02*
G37*
G36*
X218000D02*
X216305D01*
X216381Y159965D01*
X216878Y159220D01*
X217622Y158723D01*
X218000Y158648D01*
Y160343D01*
D02*
G37*
G36*
X213695D02*
X212000D01*
Y158648D01*
X212378Y158723D01*
X213122Y159220D01*
X213619Y159965D01*
X213695Y160343D01*
D02*
G37*
G36*
X211000D02*
X209305D01*
X209381Y159965D01*
X209878Y159220D01*
X210622Y158723D01*
X211000Y158648D01*
Y160343D01*
D02*
G37*
G36*
X206695D02*
X205000D01*
Y158648D01*
X205378Y158723D01*
X206122Y159220D01*
X206620Y159965D01*
X206695Y160343D01*
D02*
G37*
G36*
X204000D02*
X202305D01*
X202380Y159965D01*
X202878Y159220D01*
X203622Y158723D01*
X204000Y158648D01*
Y160343D01*
D02*
G37*
G36*
X113000Y159258D02*
X112769Y159228D01*
X112088Y158946D01*
X111503Y158497D01*
X111054Y157912D01*
X110772Y157231D01*
X110742Y157000D01*
X113000D01*
Y159258D01*
D02*
G37*
G36*
X182500Y165794D02*
X181622Y165620D01*
X180878Y165122D01*
X180380Y164378D01*
X180206Y163500D01*
X180380Y162622D01*
X180878Y161878D01*
X181480Y161475D01*
Y158422D01*
X177278Y154220D01*
X170910D01*
X170663Y154720D01*
X170946Y155088D01*
X171228Y155769D01*
X171324Y156500D01*
X171228Y157231D01*
X170946Y157912D01*
X170497Y158497D01*
X169912Y158946D01*
X169231Y159228D01*
X168500Y159324D01*
X167769Y159228D01*
X167088Y158946D01*
X166503Y158497D01*
X166315Y158252D01*
X165685D01*
X165497Y158497D01*
X164912Y158946D01*
X164231Y159228D01*
X163500Y159324D01*
X162769Y159228D01*
X162088Y158946D01*
X161503Y158497D01*
X161315Y158252D01*
X160685D01*
X160497Y158497D01*
X159912Y158946D01*
X159231Y159228D01*
X158500Y159324D01*
X157769Y159228D01*
X157088Y158946D01*
X156503Y158497D01*
X156315Y158252D01*
X155685D01*
X155497Y158497D01*
X154912Y158946D01*
X154231Y159228D01*
X153500Y159324D01*
X152769Y159228D01*
X152088Y158946D01*
X151503Y158497D01*
X151315Y158252D01*
X150685D01*
X150497Y158497D01*
X149912Y158946D01*
X149231Y159228D01*
X148500Y159324D01*
X147769Y159228D01*
X147088Y158946D01*
X146503Y158497D01*
X146315Y158252D01*
X145685D01*
X145497Y158497D01*
X144912Y158946D01*
X144231Y159228D01*
X143500Y159324D01*
X142769Y159228D01*
X142088Y158946D01*
X141503Y158497D01*
X141315Y158252D01*
X140685D01*
X140497Y158497D01*
X139912Y158946D01*
X139231Y159228D01*
X138500Y159324D01*
X137769Y159228D01*
X137088Y158946D01*
X136503Y158497D01*
X136315Y158252D01*
X135685D01*
X135497Y158497D01*
X134912Y158946D01*
X134231Y159228D01*
X133500Y159324D01*
X132769Y159228D01*
X132088Y158946D01*
X131503Y158497D01*
X131315Y158252D01*
X130685D01*
X130497Y158497D01*
X129912Y158946D01*
X129231Y159228D01*
X128500Y159324D01*
X127769Y159228D01*
X127088Y158946D01*
X126503Y158497D01*
X126315Y158252D01*
X125685D01*
X125497Y158497D01*
X124912Y158946D01*
X124231Y159228D01*
X123500Y159324D01*
X122769Y159228D01*
X122088Y158946D01*
X121503Y158497D01*
X121315Y158252D01*
X120685D01*
X120497Y158497D01*
X119912Y158946D01*
X119231Y159228D01*
X118500Y159324D01*
X117769Y159228D01*
X117088Y158946D01*
X116503Y158497D01*
X116315Y158252D01*
X115685D01*
X115497Y158497D01*
X114912Y158946D01*
X114231Y159228D01*
X114000Y159258D01*
Y156500D01*
Y153742D01*
X114231Y153772D01*
X114912Y154054D01*
X115497Y154503D01*
X115685Y154748D01*
X116315D01*
X116503Y154503D01*
X117088Y154054D01*
X117769Y153772D01*
X118500Y153676D01*
X119231Y153772D01*
X119912Y154054D01*
X120497Y154503D01*
X120685Y154748D01*
X121315D01*
X121503Y154503D01*
X122088Y154054D01*
X122769Y153772D01*
X123500Y153676D01*
X124231Y153772D01*
X124912Y154054D01*
X125497Y154503D01*
X125685Y154748D01*
X126315D01*
X126503Y154503D01*
X127088Y154054D01*
X127769Y153772D01*
X128500Y153676D01*
X129231Y153772D01*
X129912Y154054D01*
X130497Y154503D01*
X130685Y154748D01*
X131315D01*
X131503Y154503D01*
X132088Y154054D01*
X132769Y153772D01*
X133500Y153676D01*
X134231Y153772D01*
X134912Y154054D01*
X135497Y154503D01*
X135685Y154748D01*
X136315D01*
X136503Y154503D01*
X137088Y154054D01*
X137769Y153772D01*
X138500Y153676D01*
X139231Y153772D01*
X139623Y153935D01*
X141079Y152479D01*
X141410Y152258D01*
X141800Y152180D01*
X177700D01*
X178090Y152258D01*
X178421Y152479D01*
X183221Y157279D01*
X183442Y157610D01*
X183520Y158000D01*
Y161475D01*
X184122Y161878D01*
X184619Y162622D01*
X184794Y163500D01*
X184619Y164378D01*
X184122Y165122D01*
X183378Y165620D01*
X182500Y165794D01*
D02*
G37*
G36*
X113000Y156000D02*
X110742D01*
X110772Y155769D01*
X111054Y155088D01*
X111503Y154503D01*
X112088Y154054D01*
X112769Y153772D01*
X113000Y153742D01*
Y156000D01*
D02*
G37*
G36*
X182500Y171794D02*
X181622Y171619D01*
X180878Y171122D01*
X180380Y170378D01*
X180206Y169500D01*
X180380Y168622D01*
X180878Y167878D01*
X181622Y167380D01*
X182500Y167206D01*
X183378Y167380D01*
X184122Y167878D01*
X184525Y168480D01*
X187505D01*
X191980Y164005D01*
Y151422D01*
X177578Y137020D01*
X100108D01*
X99946Y137412D01*
X99497Y137997D01*
X99252Y138185D01*
Y138815D01*
X99497Y139003D01*
X99946Y139588D01*
X100228Y140269D01*
X100324Y141000D01*
X100228Y141731D01*
X99946Y142412D01*
X99497Y142997D01*
X99252Y143185D01*
Y143815D01*
X99497Y144003D01*
X99946Y144588D01*
X100228Y145269D01*
X100324Y146000D01*
X100228Y146731D01*
X99946Y147412D01*
X99497Y147997D01*
X98912Y148446D01*
X98231Y148728D01*
X97500Y148824D01*
X96769Y148728D01*
X96088Y148446D01*
X95503Y147997D01*
X95054Y147412D01*
X94772Y146731D01*
X94676Y146000D01*
X94772Y145269D01*
X95054Y144588D01*
X95503Y144003D01*
X95748Y143815D01*
Y143185D01*
X95503Y142997D01*
X95054Y142412D01*
X94772Y141731D01*
X94676Y141000D01*
X94772Y140269D01*
X95054Y139588D01*
X95503Y139003D01*
X95748Y138815D01*
Y138185D01*
X95503Y137997D01*
X95054Y137412D01*
X94772Y136731D01*
X94676Y136000D01*
X94772Y135269D01*
X95054Y134588D01*
X95503Y134003D01*
X95748Y133815D01*
Y133185D01*
X95503Y132997D01*
X95054Y132412D01*
X94772Y131731D01*
X94676Y131000D01*
X94772Y130269D01*
X95054Y129588D01*
X95503Y129003D01*
X95748Y128815D01*
Y128185D01*
X95503Y127997D01*
X95054Y127412D01*
X94772Y126731D01*
X94676Y126000D01*
X94772Y125269D01*
X95054Y124588D01*
X95503Y124003D01*
X95748Y123815D01*
Y123185D01*
X95503Y122997D01*
X95054Y122412D01*
X94772Y121731D01*
X94676Y121000D01*
X94772Y120269D01*
X95054Y119588D01*
X95503Y119003D01*
X95748Y118815D01*
Y118185D01*
X95503Y117997D01*
X95054Y117412D01*
X94772Y116731D01*
X94676Y116000D01*
X94772Y115269D01*
X95054Y114588D01*
X95503Y114003D01*
X95748Y113815D01*
Y113185D01*
X95503Y112997D01*
X95054Y112412D01*
X94772Y111731D01*
X94676Y111000D01*
X94772Y110269D01*
X95054Y109588D01*
X95503Y109003D01*
X95748Y108815D01*
Y108185D01*
X95503Y107997D01*
X95054Y107412D01*
X94772Y106731D01*
X94676Y106000D01*
X94772Y105269D01*
X95054Y104588D01*
X95503Y104003D01*
X95748Y103815D01*
Y103185D01*
X95503Y102997D01*
X95054Y102412D01*
X94772Y101731D01*
X94676Y101000D01*
X94772Y100269D01*
X95054Y99588D01*
X95503Y99003D01*
X95748Y98815D01*
Y98185D01*
X95503Y97997D01*
X95054Y97412D01*
X94772Y96731D01*
X94676Y96000D01*
X94772Y95269D01*
X95054Y94588D01*
X95503Y94003D01*
X95748Y93815D01*
Y93185D01*
X95503Y92997D01*
X95054Y92412D01*
X94772Y91731D01*
X94676Y91000D01*
X94772Y90269D01*
X95054Y89588D01*
X95503Y89003D01*
X95748Y88815D01*
Y88185D01*
X95503Y87997D01*
X95054Y87412D01*
X94772Y86731D01*
X94676Y86000D01*
X94772Y85269D01*
X95054Y84588D01*
X95503Y84003D01*
X95748Y83815D01*
Y83185D01*
X95503Y82997D01*
X95054Y82412D01*
X94772Y81731D01*
X94676Y81000D01*
X94772Y80269D01*
X95054Y79588D01*
X95503Y79003D01*
X95748Y78815D01*
Y78185D01*
X95503Y77997D01*
X95054Y77412D01*
X94772Y76731D01*
X94676Y76000D01*
X94772Y75269D01*
X95054Y74588D01*
X95503Y74003D01*
X95748Y73815D01*
Y73185D01*
X95503Y72997D01*
X95054Y72412D01*
X94772Y71731D01*
X94676Y71000D01*
X94772Y70269D01*
X95054Y69588D01*
X95412Y69122D01*
X95240Y68622D01*
X57294D01*
X57220Y69122D01*
X57530Y69216D01*
X58538Y69754D01*
X59421Y70479D01*
X60146Y71362D01*
X60684Y72370D01*
X61016Y73463D01*
X61128Y74600D01*
X61016Y75737D01*
X60684Y76830D01*
X60146Y77838D01*
X59421Y78721D01*
X58538Y79446D01*
X57530Y79984D01*
X56437Y80316D01*
X55300Y80428D01*
X54163Y80316D01*
X53070Y79984D01*
X52062Y79446D01*
X51179Y78721D01*
X50454Y77838D01*
X49916Y76830D01*
X49584Y75737D01*
X49472Y74600D01*
X49584Y73463D01*
X49916Y72370D01*
X50454Y71362D01*
X51179Y70479D01*
X52062Y69754D01*
X53070Y69216D01*
X53380Y69122D01*
X53306Y68622D01*
X25316D01*
X25277Y68614D01*
X25237Y68619D01*
X25063Y68571D01*
X24887Y68536D01*
X24853Y68514D01*
X24815Y68503D01*
X24672Y68393D01*
X24523Y68293D01*
X24500Y68260D01*
X24469Y68235D01*
X17932Y60708D01*
X17500Y60794D01*
X16622Y60619D01*
X15878Y60122D01*
X15381Y59378D01*
X15206Y58500D01*
X15381Y57622D01*
X15878Y56878D01*
X16622Y56381D01*
X17500Y56206D01*
X18378Y56381D01*
X19122Y56878D01*
X19620Y57622D01*
X19794Y58500D01*
X19643Y59258D01*
X25827Y66378D01*
X95867D01*
X95942Y66232D01*
X96000Y65878D01*
X95503Y65497D01*
X95054Y64912D01*
X94772Y64231D01*
X94742Y64000D01*
X97500D01*
Y63500D01*
X98000D01*
Y60742D01*
X98231Y60772D01*
X98912Y61054D01*
X99497Y61503D01*
X99685Y61748D01*
X100315D01*
X100503Y61503D01*
X101088Y61054D01*
X101769Y60772D01*
X102500Y60676D01*
X103231Y60772D01*
X103912Y61054D01*
X104497Y61503D01*
X104685Y61748D01*
X105315D01*
X105503Y61503D01*
X106088Y61054D01*
X106769Y60772D01*
X107500Y60676D01*
X108231Y60772D01*
X108912Y61054D01*
X109497Y61503D01*
X109685Y61748D01*
X110315D01*
X110503Y61503D01*
X111088Y61054D01*
X111769Y60772D01*
X112500Y60676D01*
X113231Y60772D01*
X113912Y61054D01*
X114497Y61503D01*
X114685Y61748D01*
X115315D01*
X115503Y61503D01*
X116088Y61054D01*
X116769Y60772D01*
X117500Y60676D01*
X118231Y60772D01*
X118912Y61054D01*
X119497Y61503D01*
X119685Y61748D01*
X120315D01*
X120503Y61503D01*
X121088Y61054D01*
X121769Y60772D01*
X122500Y60676D01*
X123231Y60772D01*
X123912Y61054D01*
X124497Y61503D01*
X124685Y61748D01*
X125315D01*
X125503Y61503D01*
X126088Y61054D01*
X126769Y60772D01*
X127500Y60676D01*
X128231Y60772D01*
X128912Y61054D01*
X129497Y61503D01*
X129685Y61748D01*
X130315D01*
X130503Y61503D01*
X131088Y61054D01*
X131769Y60772D01*
X132500Y60676D01*
X133231Y60772D01*
X133912Y61054D01*
X134497Y61503D01*
X134685Y61748D01*
X135315D01*
X135503Y61503D01*
X136088Y61054D01*
X136769Y60772D01*
X137500Y60676D01*
X138231Y60772D01*
X138912Y61054D01*
X139497Y61503D01*
X139685Y61748D01*
X140315D01*
X140503Y61503D01*
X141088Y61054D01*
X141769Y60772D01*
X142500Y60676D01*
X143231Y60772D01*
X143912Y61054D01*
X144497Y61503D01*
X144685Y61748D01*
X145315D01*
X145503Y61503D01*
X146088Y61054D01*
X146769Y60772D01*
X147500Y60676D01*
X148231Y60772D01*
X148912Y61054D01*
X149497Y61503D01*
X149685Y61748D01*
X150315D01*
X150503Y61503D01*
X151088Y61054D01*
X151769Y60772D01*
X152500Y60676D01*
X153231Y60772D01*
X153912Y61054D01*
X154497Y61503D01*
X154685Y61748D01*
X155315D01*
X155503Y61503D01*
X156088Y61054D01*
X156769Y60772D01*
X157000Y60742D01*
Y63500D01*
X158000D01*
Y60742D01*
X158231Y60772D01*
X158912Y61054D01*
X159497Y61503D01*
X159685Y61748D01*
X160315D01*
X160503Y61503D01*
X161088Y61054D01*
X161769Y60772D01*
X162000Y60742D01*
Y63500D01*
X162500D01*
Y64000D01*
X165258D01*
X165228Y64231D01*
X164946Y64912D01*
X164497Y65497D01*
X164000Y65878D01*
X164058Y66232D01*
X164133Y66378D01*
X171167D01*
X171167Y66378D01*
X171596Y66464D01*
X171960Y66707D01*
X177635Y72382D01*
X177635Y72382D01*
X177878Y72746D01*
X177964Y73175D01*
Y99378D01*
X187238Y108652D01*
X187689Y108396D01*
X187772Y107769D01*
X188054Y107088D01*
X188503Y106503D01*
X188748Y106315D01*
Y105685D01*
X188503Y105497D01*
X188054Y104912D01*
X187772Y104231D01*
X187676Y103500D01*
X187772Y102769D01*
X188054Y102088D01*
X188503Y101503D01*
X188748Y101315D01*
Y100685D01*
X188503Y100497D01*
X188054Y99912D01*
X187772Y99231D01*
X187676Y98500D01*
X187772Y97769D01*
X188054Y97088D01*
X188503Y96503D01*
X188748Y96315D01*
Y95685D01*
X188503Y95497D01*
X188054Y94912D01*
X187772Y94231D01*
X187676Y93500D01*
X187772Y92769D01*
X188054Y92088D01*
X188503Y91503D01*
X188748Y91315D01*
Y90685D01*
X188503Y90497D01*
X188054Y89912D01*
X187772Y89231D01*
X187676Y88500D01*
X187772Y87769D01*
X188054Y87088D01*
X188503Y86503D01*
X188748Y86315D01*
Y85685D01*
X188503Y85497D01*
X188054Y84912D01*
X187772Y84231D01*
X187676Y83500D01*
X187772Y82769D01*
X188054Y82088D01*
X188503Y81503D01*
X188748Y81315D01*
Y80685D01*
X188503Y80497D01*
X188054Y79912D01*
X187772Y79231D01*
X187676Y78500D01*
X187772Y77769D01*
X188054Y77088D01*
X188503Y76503D01*
X188748Y76315D01*
Y75685D01*
X188503Y75497D01*
X188054Y74912D01*
X187772Y74231D01*
X187742Y74000D01*
X193258D01*
X193228Y74231D01*
X192946Y74912D01*
X192497Y75497D01*
X192252Y75685D01*
Y76315D01*
X192497Y76503D01*
X192946Y77088D01*
X193228Y77769D01*
X193324Y78500D01*
X193228Y79231D01*
X192946Y79912D01*
X192497Y80497D01*
X192252Y80685D01*
Y81315D01*
X192497Y81503D01*
X192946Y82088D01*
X193228Y82769D01*
X193324Y83500D01*
X193228Y84231D01*
X192946Y84912D01*
X192497Y85497D01*
X192252Y85685D01*
Y86315D01*
X192497Y86503D01*
X192946Y87088D01*
X193228Y87769D01*
X193324Y88500D01*
X193228Y89231D01*
X192946Y89912D01*
X192497Y90497D01*
X192252Y90685D01*
Y91315D01*
X192497Y91503D01*
X192946Y92088D01*
X193228Y92769D01*
X193324Y93500D01*
X193228Y94231D01*
X192946Y94912D01*
X192497Y95497D01*
X192252Y95685D01*
Y96315D01*
X192497Y96503D01*
X192946Y97088D01*
X193228Y97769D01*
X193324Y98500D01*
X193228Y99231D01*
X192946Y99912D01*
X192497Y100497D01*
X192252Y100685D01*
Y101315D01*
X192497Y101503D01*
X192946Y102088D01*
X193228Y102769D01*
X193324Y103500D01*
X193228Y104231D01*
X192946Y104912D01*
X192497Y105497D01*
X192252Y105685D01*
Y106315D01*
X192497Y106503D01*
X192946Y107088D01*
X193228Y107769D01*
X193324Y108500D01*
X193228Y109231D01*
X192946Y109912D01*
X192497Y110497D01*
X192252Y110685D01*
Y111315D01*
X192497Y111503D01*
X192946Y112088D01*
X193228Y112769D01*
X193324Y113500D01*
X193228Y114231D01*
X192946Y114912D01*
X192497Y115497D01*
X192252Y115685D01*
Y116315D01*
X192497Y116503D01*
X192946Y117088D01*
X193228Y117769D01*
X193324Y118500D01*
X193228Y119231D01*
X192946Y119912D01*
X192497Y120497D01*
X192252Y120685D01*
Y121315D01*
X192497Y121503D01*
X192946Y122088D01*
X193228Y122769D01*
X193324Y123500D01*
X193228Y124231D01*
X192946Y124912D01*
X192497Y125497D01*
X192252Y125685D01*
Y126315D01*
X192497Y126503D01*
X192946Y127088D01*
X193228Y127769D01*
X193324Y128500D01*
X193228Y129231D01*
X192946Y129912D01*
X192497Y130497D01*
X192252Y130685D01*
Y131315D01*
X192497Y131503D01*
X192946Y132088D01*
X193228Y132769D01*
X193258Y133000D01*
X187742D01*
X187772Y132769D01*
X188054Y132088D01*
X188503Y131503D01*
X188748Y131315D01*
Y130685D01*
X188503Y130497D01*
X188054Y129912D01*
X187772Y129231D01*
X187676Y128500D01*
X187772Y127769D01*
X188054Y127088D01*
X188503Y126503D01*
X188748Y126315D01*
Y125685D01*
X188503Y125497D01*
X188054Y124912D01*
X187772Y124231D01*
X187676Y123500D01*
X187772Y122769D01*
X188054Y122088D01*
X188503Y121503D01*
X188748Y121315D01*
Y120685D01*
X188503Y120497D01*
X188054Y119912D01*
X187772Y119231D01*
X187676Y118500D01*
X187772Y117769D01*
X188054Y117088D01*
X188503Y116503D01*
X188748Y116315D01*
Y115685D01*
X188503Y115497D01*
X188054Y114912D01*
X187772Y114231D01*
X187676Y113500D01*
X187772Y112769D01*
X187892Y112478D01*
X176049Y100635D01*
X175806Y100271D01*
X175721Y99842D01*
X175721Y99842D01*
Y73640D01*
X170702Y68622D01*
X99760D01*
X99588Y69122D01*
X99946Y69588D01*
X100228Y70269D01*
X100324Y71000D01*
X100228Y71731D01*
X99946Y72412D01*
X99497Y72997D01*
X99252Y73185D01*
Y73815D01*
X99497Y74003D01*
X99946Y74588D01*
X100228Y75269D01*
X100324Y76000D01*
X100228Y76731D01*
X99946Y77412D01*
X99497Y77997D01*
X99252Y78185D01*
Y78815D01*
X99497Y79003D01*
X99946Y79588D01*
X100228Y80269D01*
X100324Y81000D01*
X100228Y81731D01*
X99946Y82412D01*
X99497Y82997D01*
X99252Y83185D01*
Y83815D01*
X99497Y84003D01*
X99946Y84588D01*
X100228Y85269D01*
X100324Y86000D01*
X100228Y86731D01*
X99946Y87412D01*
X99497Y87997D01*
X99252Y88185D01*
Y88815D01*
X99497Y89003D01*
X99946Y89588D01*
X100228Y90269D01*
X100324Y91000D01*
X100228Y91731D01*
X99946Y92412D01*
X99497Y92997D01*
X99252Y93185D01*
Y93815D01*
X99497Y94003D01*
X99946Y94588D01*
X100228Y95269D01*
X100324Y96000D01*
X100228Y96731D01*
X99946Y97412D01*
X99497Y97997D01*
X99252Y98185D01*
Y98815D01*
X99497Y99003D01*
X99946Y99588D01*
X100228Y100269D01*
X100324Y101000D01*
X100228Y101731D01*
X99946Y102412D01*
X99497Y102997D01*
X99252Y103185D01*
Y103815D01*
X99497Y104003D01*
X99946Y104588D01*
X100228Y105269D01*
X100324Y106000D01*
X100228Y106731D01*
X99946Y107412D01*
X99497Y107997D01*
X99252Y108185D01*
Y108815D01*
X99497Y109003D01*
X99946Y109588D01*
X100228Y110269D01*
X100324Y111000D01*
X100228Y111731D01*
X99946Y112412D01*
X99497Y112997D01*
X99252Y113185D01*
Y113815D01*
X99497Y114003D01*
X99946Y114588D01*
X100228Y115269D01*
X100324Y116000D01*
X100228Y116731D01*
X99946Y117412D01*
X99497Y117997D01*
X99252Y118185D01*
Y118815D01*
X99497Y119003D01*
X99946Y119588D01*
X100228Y120269D01*
X100324Y121000D01*
X100228Y121731D01*
X99946Y122412D01*
X99497Y122997D01*
X99252Y123185D01*
Y123815D01*
X99497Y124003D01*
X99946Y124588D01*
X100228Y125269D01*
X100324Y126000D01*
X100228Y126731D01*
X99946Y127412D01*
X99497Y127997D01*
X99252Y128185D01*
Y128815D01*
X99497Y129003D01*
X99946Y129588D01*
X100228Y130269D01*
X100324Y131000D01*
X100228Y131731D01*
X99946Y132412D01*
X99497Y132997D01*
X99252Y133185D01*
Y133815D01*
X99497Y134003D01*
X99946Y134588D01*
X100108Y134980D01*
X178000D01*
X178390Y135058D01*
X178721Y135279D01*
X193721Y150279D01*
X193942Y150610D01*
X194020Y151000D01*
Y164427D01*
X193942Y164818D01*
X193721Y165148D01*
X188648Y170221D01*
X188318Y170442D01*
X187927Y170520D01*
X184525D01*
X184122Y171122D01*
X183378Y171619D01*
X182500Y171794D01*
D02*
G37*
G36*
X191000Y136258D02*
Y134000D01*
X193258D01*
X193228Y134231D01*
X192946Y134912D01*
X192497Y135497D01*
X191912Y135946D01*
X191231Y136228D01*
X191000Y136258D01*
D02*
G37*
G36*
X190000D02*
X189769Y136228D01*
X189088Y135946D01*
X188503Y135497D01*
X188054Y134912D01*
X187772Y134231D01*
X187742Y134000D01*
X190000D01*
Y136258D01*
D02*
G37*
G36*
X55300Y142428D02*
X54163Y142316D01*
X53070Y141984D01*
X52062Y141446D01*
X51179Y140721D01*
X50454Y139838D01*
X49916Y138830D01*
X49584Y137737D01*
X49472Y136600D01*
X49584Y135463D01*
X49916Y134370D01*
X50454Y133362D01*
X51179Y132479D01*
X52062Y131754D01*
X53070Y131216D01*
X54163Y130884D01*
X55300Y130772D01*
X56437Y130884D01*
X57530Y131216D01*
X58538Y131754D01*
X59421Y132479D01*
X60146Y133362D01*
X60684Y134370D01*
X61016Y135463D01*
X61128Y136600D01*
X61016Y137737D01*
X60684Y138830D01*
X60146Y139838D01*
X59421Y140721D01*
X58538Y141446D01*
X57530Y141984D01*
X56437Y142316D01*
X55300Y142428D01*
D02*
G37*
G36*
X24000Y134535D02*
X22956Y134397D01*
X21983Y133994D01*
X21147Y133353D01*
X20506Y132517D01*
X20103Y131544D01*
X19965Y130500D01*
X20103Y129456D01*
X20506Y128483D01*
X21147Y127647D01*
X21983Y127006D01*
X22956Y126603D01*
X24000Y126465D01*
X25044Y126603D01*
X26017Y127006D01*
X26853Y127647D01*
X27494Y128483D01*
X27897Y129456D01*
X28034Y130500D01*
X27897Y131544D01*
X27494Y132517D01*
X26853Y133353D01*
X26017Y133994D01*
X25044Y134397D01*
X24000Y134535D01*
D02*
G37*
G36*
X30500Y124469D02*
Y121000D01*
X33969D01*
X33897Y121544D01*
X33494Y122517D01*
X32853Y123353D01*
X32017Y123994D01*
X31044Y124397D01*
X30500Y124469D01*
D02*
G37*
G36*
X29500D02*
X28956Y124397D01*
X27983Y123994D01*
X27147Y123353D01*
X26506Y122517D01*
X26103Y121544D01*
X26031Y121000D01*
X29500D01*
Y124469D01*
D02*
G37*
G36*
X43300Y135536D02*
X41849Y135393D01*
X40454Y134970D01*
X39169Y134283D01*
X38042Y133358D01*
X37117Y132231D01*
X36430Y130946D01*
X36007Y129551D01*
X35864Y128100D01*
X36007Y126649D01*
X36430Y125254D01*
X37117Y123969D01*
X38042Y122842D01*
X39169Y121917D01*
X40454Y121230D01*
X41849Y120807D01*
X43300Y120664D01*
X44751Y120807D01*
X46146Y121230D01*
X47431Y121917D01*
X48558Y122842D01*
X49483Y123969D01*
X50170Y125254D01*
X50593Y126649D01*
X50736Y128100D01*
X50593Y129551D01*
X50170Y130946D01*
X49483Y132231D01*
X48558Y133358D01*
X47431Y134283D01*
X46146Y134970D01*
X44751Y135393D01*
X43300Y135536D01*
D02*
G37*
G36*
X72100Y126900D02*
X64500D01*
Y119300D01*
X72100D01*
Y126900D01*
D02*
G37*
G36*
X33969Y120000D02*
X30500D01*
Y116531D01*
X31044Y116603D01*
X32017Y117006D01*
X32853Y117647D01*
X33494Y118483D01*
X33897Y119456D01*
X33969Y120000D01*
D02*
G37*
G36*
X29500D02*
X26031D01*
X26103Y119456D01*
X26506Y118483D01*
X27147Y117647D01*
X27983Y117006D01*
X28956Y116603D01*
X29500Y116531D01*
Y120000D01*
D02*
G37*
G36*
X78300Y121933D02*
X77308Y121802D01*
X76384Y121419D01*
X75590Y120810D01*
X74981Y120016D01*
X74598Y119092D01*
X74467Y118100D01*
X74598Y117108D01*
X74981Y116184D01*
X75590Y115390D01*
X76384Y114781D01*
X77308Y114398D01*
X78300Y114267D01*
X79292Y114398D01*
X80216Y114781D01*
X81010Y115390D01*
X81619Y116184D01*
X82002Y117108D01*
X82133Y118100D01*
X82002Y119092D01*
X81619Y120016D01*
X81010Y120810D01*
X80216Y121419D01*
X79292Y121802D01*
X78300Y121933D01*
D02*
G37*
G36*
X68300Y116933D02*
X67308Y116802D01*
X66384Y116419D01*
X65590Y115810D01*
X64981Y115016D01*
X64598Y114092D01*
X64467Y113100D01*
X64598Y112108D01*
X64981Y111184D01*
X65590Y110390D01*
X66384Y109781D01*
X67308Y109398D01*
X68300Y109267D01*
X69292Y109398D01*
X70216Y109781D01*
X71010Y110390D01*
X71619Y111184D01*
X72002Y112108D01*
X72133Y113100D01*
X72002Y114092D01*
X71619Y115016D01*
X71010Y115810D01*
X70216Y116419D01*
X69292Y116802D01*
X68300Y116933D01*
D02*
G37*
G36*
X78300Y111933D02*
X77308Y111802D01*
X76384Y111419D01*
X75590Y110810D01*
X74981Y110016D01*
X74598Y109092D01*
X74467Y108100D01*
X74598Y107108D01*
X74981Y106184D01*
X75590Y105390D01*
X76384Y104781D01*
X77308Y104398D01*
X78300Y104267D01*
X79292Y104398D01*
X80216Y104781D01*
X81010Y105390D01*
X81619Y106184D01*
X82002Y107108D01*
X82133Y108100D01*
X82002Y109092D01*
X81619Y110016D01*
X81010Y110810D01*
X80216Y111419D01*
X79292Y111802D01*
X78300Y111933D01*
D02*
G37*
G36*
X68300Y106933D02*
X67308Y106802D01*
X66384Y106419D01*
X65590Y105810D01*
X64981Y105016D01*
X64598Y104092D01*
X64467Y103100D01*
X64598Y102108D01*
X64981Y101184D01*
X65590Y100390D01*
X66384Y99781D01*
X67308Y99398D01*
X68300Y99267D01*
X69292Y99398D01*
X70216Y99781D01*
X71010Y100390D01*
X71619Y101184D01*
X72002Y102108D01*
X72133Y103100D01*
X72002Y104092D01*
X71619Y105016D01*
X71010Y105810D01*
X70216Y106419D01*
X69292Y106802D01*
X68300Y106933D01*
D02*
G37*
G36*
X78300Y101933D02*
X77308Y101802D01*
X76384Y101419D01*
X75590Y100810D01*
X74981Y100016D01*
X74598Y99092D01*
X74467Y98100D01*
X74598Y97108D01*
X74981Y96184D01*
X75590Y95390D01*
X76384Y94781D01*
X77308Y94398D01*
X78300Y94267D01*
X79292Y94398D01*
X80216Y94781D01*
X81010Y95390D01*
X81619Y96184D01*
X82002Y97108D01*
X82133Y98100D01*
X82002Y99092D01*
X81619Y100016D01*
X81010Y100810D01*
X80216Y101419D01*
X79292Y101802D01*
X78300Y101933D01*
D02*
G37*
G36*
X24500Y94569D02*
Y91100D01*
X27969D01*
X27897Y91644D01*
X27494Y92617D01*
X26853Y93453D01*
X26017Y94094D01*
X25044Y94497D01*
X24500Y94569D01*
D02*
G37*
G36*
X23500D02*
X22956Y94497D01*
X21983Y94094D01*
X21147Y93453D01*
X20506Y92617D01*
X20103Y91644D01*
X20031Y91100D01*
X23500D01*
Y94569D01*
D02*
G37*
G36*
X68300Y96933D02*
X67308Y96802D01*
X66384Y96419D01*
X65590Y95810D01*
X64981Y95016D01*
X64598Y94092D01*
X64467Y93100D01*
X64598Y92108D01*
X64981Y91184D01*
X65590Y90390D01*
X66384Y89781D01*
X67308Y89398D01*
X68300Y89267D01*
X69292Y89398D01*
X70216Y89781D01*
X71010Y90390D01*
X71619Y91184D01*
X72002Y92108D01*
X72133Y93100D01*
X72002Y94092D01*
X71619Y95016D01*
X71010Y95810D01*
X70216Y96419D01*
X69292Y96802D01*
X68300Y96933D01*
D02*
G37*
G36*
X78800Y91867D02*
Y88600D01*
X82067D01*
X82002Y89092D01*
X81619Y90016D01*
X81010Y90810D01*
X80216Y91419D01*
X79292Y91802D01*
X78800Y91867D01*
D02*
G37*
G36*
X77800D02*
X77308Y91802D01*
X76384Y91419D01*
X75590Y90810D01*
X74981Y90016D01*
X74598Y89092D01*
X74533Y88600D01*
X77800D01*
Y91867D01*
D02*
G37*
G36*
X27969Y90100D02*
X24500D01*
Y86631D01*
X25044Y86703D01*
X26017Y87106D01*
X26853Y87747D01*
X27494Y88583D01*
X27897Y89556D01*
X27969Y90100D01*
D02*
G37*
G36*
X23500D02*
X20031D01*
X20103Y89556D01*
X20506Y88583D01*
X21147Y87747D01*
X21983Y87106D01*
X22956Y86703D01*
X23500Y86631D01*
Y90100D01*
D02*
G37*
G36*
X82067Y87600D02*
X78800D01*
Y84333D01*
X79292Y84398D01*
X80216Y84781D01*
X81010Y85390D01*
X81619Y86184D01*
X82002Y87108D01*
X82067Y87600D01*
D02*
G37*
G36*
X77800D02*
X74533D01*
X74598Y87108D01*
X74981Y86184D01*
X75590Y85390D01*
X76384Y84781D01*
X77308Y84398D01*
X77800Y84333D01*
Y87600D01*
D02*
G37*
G36*
X30000Y84635D02*
X28956Y84497D01*
X27983Y84094D01*
X27147Y83453D01*
X26506Y82617D01*
X26103Y81644D01*
X25965Y80600D01*
X26103Y79556D01*
X26506Y78583D01*
X27147Y77747D01*
X27983Y77106D01*
X28956Y76703D01*
X30000Y76565D01*
X31044Y76703D01*
X32017Y77106D01*
X32853Y77747D01*
X33494Y78583D01*
X33897Y79556D01*
X34034Y80600D01*
X33897Y81644D01*
X33494Y82617D01*
X32853Y83453D01*
X32017Y84094D01*
X31044Y84497D01*
X30000Y84635D01*
D02*
G37*
G36*
X43300Y90536D02*
X41849Y90393D01*
X40454Y89970D01*
X39169Y89283D01*
X38042Y88358D01*
X37117Y87231D01*
X36430Y85946D01*
X36007Y84551D01*
X35864Y83100D01*
X36007Y81649D01*
X36430Y80254D01*
X37117Y78969D01*
X38042Y77842D01*
X39169Y76917D01*
X40454Y76230D01*
X41849Y75807D01*
X43300Y75664D01*
X44751Y75807D01*
X46146Y76230D01*
X47431Y76917D01*
X48558Y77842D01*
X49483Y78969D01*
X50170Y80254D01*
X50593Y81649D01*
X50736Y83100D01*
X50593Y84551D01*
X50170Y85946D01*
X49483Y87231D01*
X48558Y88358D01*
X47431Y89283D01*
X46146Y89970D01*
X44751Y90393D01*
X43300Y90536D01*
D02*
G37*
G36*
X193258Y73000D02*
X187742D01*
X187772Y72769D01*
X188054Y72088D01*
X188503Y71503D01*
X188748Y71315D01*
Y70685D01*
X188503Y70497D01*
X188054Y69912D01*
X187772Y69231D01*
X187742Y69000D01*
X193258D01*
X193228Y69231D01*
X192946Y69912D01*
X192497Y70497D01*
X192252Y70685D01*
Y71315D01*
X192497Y71503D01*
X192946Y72088D01*
X193228Y72769D01*
X193258Y73000D01*
D02*
G37*
G36*
X165258Y63000D02*
X163000D01*
Y60742D01*
X163231Y60772D01*
X163912Y61054D01*
X164497Y61503D01*
X164946Y62088D01*
X165228Y62769D01*
X165258Y63000D01*
D02*
G37*
G36*
X97000D02*
X94742D01*
X94772Y62769D01*
X95054Y62088D01*
X95503Y61503D01*
X96088Y61054D01*
X96769Y60772D01*
X97000Y60742D01*
Y63000D01*
D02*
G37*
G36*
X193258Y68000D02*
X187742D01*
X187772Y67769D01*
X188054Y67088D01*
X188503Y66503D01*
X188748Y66315D01*
Y65685D01*
X188503Y65497D01*
X188054Y64912D01*
X187772Y64231D01*
X187676Y63500D01*
X187772Y62769D01*
X188054Y62088D01*
X188503Y61503D01*
X189088Y61054D01*
X189769Y60772D01*
X190500Y60676D01*
X191231Y60772D01*
X191912Y61054D01*
X192497Y61503D01*
X192946Y62088D01*
X193228Y62769D01*
X193324Y63500D01*
X193228Y64231D01*
X192946Y64912D01*
X192497Y65497D01*
X192252Y65685D01*
Y66315D01*
X192497Y66503D01*
X192946Y67088D01*
X193228Y67769D01*
X193258Y68000D01*
D02*
G37*
G36*
X51500Y61195D02*
Y59500D01*
X53195D01*
X53119Y59878D01*
X52622Y60622D01*
X51878Y61119D01*
X51500Y61195D01*
D02*
G37*
G36*
X50500D02*
X50122Y61119D01*
X49378Y60622D01*
X48880Y59878D01*
X48805Y59500D01*
X50500D01*
Y61195D01*
D02*
G37*
G36*
X53195Y58500D02*
X51500D01*
Y56805D01*
X51878Y56881D01*
X52622Y57378D01*
X53119Y58122D01*
X53195Y58500D01*
D02*
G37*
G36*
X50500D02*
X48805D01*
X48880Y58122D01*
X49378Y57378D01*
X50122Y56881D01*
X50500Y56805D01*
Y58500D01*
D02*
G37*
G36*
X7080Y55161D02*
X4324D01*
X3473Y54992D01*
X2752Y54510D01*
X2270Y53788D01*
X2101Y52937D01*
X2270Y52086D01*
X2752Y51364D01*
X3473Y50883D01*
X4324Y50713D01*
X7080D01*
X7931Y50883D01*
X8653Y51364D01*
X9135Y52086D01*
X9304Y52937D01*
X9135Y53788D01*
X8653Y54510D01*
X7931Y54992D01*
X7080Y55161D01*
D02*
G37*
G36*
X146000Y48195D02*
Y46500D01*
X147695D01*
X147619Y46878D01*
X147122Y47622D01*
X146378Y48120D01*
X146000Y48195D01*
D02*
G37*
G36*
X145000D02*
X144622Y48120D01*
X143878Y47622D01*
X143380Y46878D01*
X143305Y46500D01*
X145000D01*
Y48195D01*
D02*
G37*
G36*
X123500Y47195D02*
Y45500D01*
X125195D01*
X125119Y45878D01*
X124622Y46622D01*
X123878Y47120D01*
X123500Y47195D01*
D02*
G37*
G36*
X122500D02*
X122122Y47120D01*
X121378Y46622D01*
X120880Y45878D01*
X120805Y45500D01*
X122500D01*
Y47195D01*
D02*
G37*
G36*
X16332Y52888D02*
X15326Y52755D01*
X14388Y52367D01*
X13583Y51749D01*
X12966Y50944D01*
X12577Y50006D01*
X12445Y49000D01*
X12577Y47994D01*
X12966Y47056D01*
X13583Y46251D01*
X14388Y45633D01*
X15326Y45245D01*
X16332Y45112D01*
X17338Y45245D01*
X18276Y45633D01*
X19081Y46251D01*
X19699Y47056D01*
X20087Y47994D01*
X20220Y49000D01*
X20087Y50006D01*
X19699Y50944D01*
X19081Y51749D01*
X18276Y52367D01*
X17338Y52755D01*
X16332Y52888D01*
D02*
G37*
G36*
X59000Y45294D02*
X58122Y45120D01*
X57378Y44622D01*
X57043Y44122D01*
X42741D01*
X42406Y44622D01*
X41662Y45120D01*
X40784Y45294D01*
X39906Y45120D01*
X39162Y44622D01*
X38665Y43878D01*
X38490Y43000D01*
X38665Y42122D01*
X39162Y41378D01*
X39906Y40881D01*
X40784Y40706D01*
X41662Y40881D01*
X42406Y41378D01*
X42741Y41878D01*
X57043D01*
X57378Y41378D01*
X58122Y40881D01*
X59000Y40706D01*
X59878Y40881D01*
X60622Y41378D01*
X61119Y42122D01*
X61294Y43000D01*
X61119Y43878D01*
X60622Y44622D01*
X59878Y45120D01*
X59000Y45294D01*
D02*
G37*
G36*
X147695Y45500D02*
X146000D01*
Y43805D01*
X146378Y43881D01*
X147122Y44378D01*
X147619Y45122D01*
X147695Y45500D01*
D02*
G37*
G36*
X145000D02*
X143305D01*
X143380Y45122D01*
X143878Y44378D01*
X144622Y43881D01*
X145000Y43805D01*
Y45500D01*
D02*
G37*
G36*
X125195Y44500D02*
X123500D01*
Y42805D01*
X123878Y42880D01*
X124622Y43378D01*
X125119Y44122D01*
X125195Y44500D01*
D02*
G37*
G36*
X122500D02*
X120805D01*
X120880Y44122D01*
X121378Y43378D01*
X122122Y42880D01*
X122500Y42805D01*
Y44500D01*
D02*
G37*
G36*
X296000Y41195D02*
Y39500D01*
X297695D01*
X297620Y39878D01*
X297122Y40622D01*
X296378Y41120D01*
X296000Y41195D01*
D02*
G37*
G36*
X295000D02*
X294622Y41120D01*
X293878Y40622D01*
X293380Y39878D01*
X293305Y39500D01*
X295000D01*
Y41195D01*
D02*
G37*
G36*
X289000D02*
Y39500D01*
X290695D01*
X290619Y39878D01*
X290122Y40622D01*
X289378Y41120D01*
X289000Y41195D01*
D02*
G37*
G36*
X288000D02*
X287622Y41120D01*
X286878Y40622D01*
X286381Y39878D01*
X286305Y39500D01*
X288000D01*
Y41195D01*
D02*
G37*
G36*
X282000D02*
Y39500D01*
X283695D01*
X283619Y39878D01*
X283122Y40622D01*
X282378Y41120D01*
X282000Y41195D01*
D02*
G37*
G36*
X281000D02*
X280622Y41120D01*
X279878Y40622D01*
X279380Y39878D01*
X279305Y39500D01*
X281000D01*
Y41195D01*
D02*
G37*
G36*
X275000D02*
Y39500D01*
X276695D01*
X276620Y39878D01*
X276122Y40622D01*
X275378Y41120D01*
X275000Y41195D01*
D02*
G37*
G36*
X274000D02*
X273622Y41120D01*
X272878Y40622D01*
X272380Y39878D01*
X272305Y39500D01*
X274000D01*
Y41195D01*
D02*
G37*
G36*
X268000D02*
Y39500D01*
X269695D01*
X269619Y39878D01*
X269122Y40622D01*
X268378Y41120D01*
X268000Y41195D01*
D02*
G37*
G36*
X267000D02*
X266622Y41120D01*
X265878Y40622D01*
X265381Y39878D01*
X265305Y39500D01*
X267000D01*
Y41195D01*
D02*
G37*
G36*
X261000D02*
Y39500D01*
X262695D01*
X262619Y39878D01*
X262122Y40622D01*
X261378Y41120D01*
X261000Y41195D01*
D02*
G37*
G36*
X260000D02*
X259622Y41120D01*
X258878Y40622D01*
X258381Y39878D01*
X258305Y39500D01*
X260000D01*
Y41195D01*
D02*
G37*
G36*
X254000D02*
Y39500D01*
X255695D01*
X255620Y39878D01*
X255122Y40622D01*
X254378Y41120D01*
X254000Y41195D01*
D02*
G37*
G36*
X253000D02*
X252622Y41120D01*
X251878Y40622D01*
X251380Y39878D01*
X251305Y39500D01*
X253000D01*
Y41195D01*
D02*
G37*
G36*
X247000D02*
Y39500D01*
X248695D01*
X248620Y39878D01*
X248122Y40622D01*
X247378Y41120D01*
X247000Y41195D01*
D02*
G37*
G36*
X246000D02*
X245622Y41120D01*
X244878Y40622D01*
X244380Y39878D01*
X244305Y39500D01*
X246000D01*
Y41195D01*
D02*
G37*
G36*
X240000D02*
Y39500D01*
X241695D01*
X241619Y39878D01*
X241122Y40622D01*
X240378Y41120D01*
X240000Y41195D01*
D02*
G37*
G36*
X239000D02*
X238622Y41120D01*
X237878Y40622D01*
X237381Y39878D01*
X237305Y39500D01*
X239000D01*
Y41195D01*
D02*
G37*
G36*
X233000D02*
Y39500D01*
X234695D01*
X234619Y39878D01*
X234122Y40622D01*
X233378Y41120D01*
X233000Y41195D01*
D02*
G37*
G36*
X232000D02*
X231622Y41120D01*
X230878Y40622D01*
X230381Y39878D01*
X230305Y39500D01*
X232000D01*
Y41195D01*
D02*
G37*
G36*
X226000D02*
Y39500D01*
X227695D01*
X227620Y39878D01*
X227122Y40622D01*
X226378Y41120D01*
X226000Y41195D01*
D02*
G37*
G36*
X225000D02*
X224622Y41120D01*
X223878Y40622D01*
X223380Y39878D01*
X223305Y39500D01*
X225000D01*
Y41195D01*
D02*
G37*
G36*
X219000D02*
Y39500D01*
X220695D01*
X220620Y39878D01*
X220122Y40622D01*
X219378Y41120D01*
X219000Y41195D01*
D02*
G37*
G36*
X218000D02*
X217622Y41120D01*
X216878Y40622D01*
X216381Y39878D01*
X216305Y39500D01*
X218000D01*
Y41195D01*
D02*
G37*
G36*
X212000D02*
Y39500D01*
X213695D01*
X213619Y39878D01*
X213122Y40622D01*
X212378Y41120D01*
X212000Y41195D01*
D02*
G37*
G36*
X211000D02*
X210622Y41120D01*
X209878Y40622D01*
X209381Y39878D01*
X209305Y39500D01*
X211000D01*
Y41195D01*
D02*
G37*
G36*
X205000D02*
Y39500D01*
X206695D01*
X206620Y39878D01*
X206122Y40622D01*
X205378Y41120D01*
X205000Y41195D01*
D02*
G37*
G36*
X204000D02*
X203622Y41120D01*
X202878Y40622D01*
X202380Y39878D01*
X202305Y39500D01*
X204000D01*
Y41195D01*
D02*
G37*
G36*
X63000Y40294D02*
X62122Y40119D01*
X61378Y39622D01*
X61043Y39122D01*
X47957D01*
X47622Y39622D01*
X46878Y40119D01*
X46000Y40294D01*
X45122Y40119D01*
X44378Y39622D01*
X43881Y38878D01*
X43706Y38000D01*
X43881Y37122D01*
X44378Y36378D01*
X45122Y35881D01*
X46000Y35706D01*
X46878Y35881D01*
X47622Y36378D01*
X47957Y36878D01*
X61043D01*
X61378Y36378D01*
X62122Y35881D01*
X63000Y35706D01*
X63878Y35881D01*
X64622Y36378D01*
X65119Y37122D01*
X65294Y38000D01*
X65119Y38878D01*
X64622Y39622D01*
X63878Y40119D01*
X63000Y40294D01*
D02*
G37*
G36*
X297695Y38500D02*
X296000D01*
Y36805D01*
X296378Y36880D01*
X297122Y37378D01*
X297620Y38122D01*
X297695Y38500D01*
D02*
G37*
G36*
X295000D02*
X293305D01*
X293380Y38122D01*
X293878Y37378D01*
X294622Y36880D01*
X295000Y36805D01*
Y38500D01*
D02*
G37*
G36*
X290695D02*
X289000D01*
Y36805D01*
X289378Y36880D01*
X290122Y37378D01*
X290619Y38122D01*
X290695Y38500D01*
D02*
G37*
G36*
X288000D02*
X286305D01*
X286381Y38122D01*
X286878Y37378D01*
X287622Y36880D01*
X288000Y36805D01*
Y38500D01*
D02*
G37*
G36*
X283695D02*
X282000D01*
Y36805D01*
X282378Y36880D01*
X283122Y37378D01*
X283619Y38122D01*
X283695Y38500D01*
D02*
G37*
G36*
X281000D02*
X279305D01*
X279380Y38122D01*
X279878Y37378D01*
X280622Y36880D01*
X281000Y36805D01*
Y38500D01*
D02*
G37*
G36*
X276695D02*
X275000D01*
Y36805D01*
X275378Y36880D01*
X276122Y37378D01*
X276620Y38122D01*
X276695Y38500D01*
D02*
G37*
G36*
X274000D02*
X272305D01*
X272380Y38122D01*
X272878Y37378D01*
X273622Y36880D01*
X274000Y36805D01*
Y38500D01*
D02*
G37*
G36*
X269695D02*
X268000D01*
Y36805D01*
X268378Y36880D01*
X269122Y37378D01*
X269619Y38122D01*
X269695Y38500D01*
D02*
G37*
G36*
X267000D02*
X265305D01*
X265381Y38122D01*
X265878Y37378D01*
X266622Y36880D01*
X267000Y36805D01*
Y38500D01*
D02*
G37*
G36*
X262695D02*
X261000D01*
Y36805D01*
X261378Y36880D01*
X262122Y37378D01*
X262619Y38122D01*
X262695Y38500D01*
D02*
G37*
G36*
X260000D02*
X258305D01*
X258381Y38122D01*
X258878Y37378D01*
X259622Y36880D01*
X260000Y36805D01*
Y38500D01*
D02*
G37*
G36*
X255695D02*
X254000D01*
Y36805D01*
X254378Y36880D01*
X255122Y37378D01*
X255620Y38122D01*
X255695Y38500D01*
D02*
G37*
G36*
X253000D02*
X251305D01*
X251380Y38122D01*
X251878Y37378D01*
X252622Y36880D01*
X253000Y36805D01*
Y38500D01*
D02*
G37*
G36*
X248695D02*
X247000D01*
Y36805D01*
X247378Y36880D01*
X248122Y37378D01*
X248620Y38122D01*
X248695Y38500D01*
D02*
G37*
G36*
X246000D02*
X244305D01*
X244380Y38122D01*
X244878Y37378D01*
X245622Y36880D01*
X246000Y36805D01*
Y38500D01*
D02*
G37*
G36*
X241695D02*
X240000D01*
Y36805D01*
X240378Y36880D01*
X241122Y37378D01*
X241619Y38122D01*
X241695Y38500D01*
D02*
G37*
G36*
X239000D02*
X237305D01*
X237381Y38122D01*
X237878Y37378D01*
X238622Y36880D01*
X239000Y36805D01*
Y38500D01*
D02*
G37*
G36*
X234695D02*
X233000D01*
Y36805D01*
X233378Y36880D01*
X234122Y37378D01*
X234619Y38122D01*
X234695Y38500D01*
D02*
G37*
G36*
X232000D02*
X230305D01*
X230381Y38122D01*
X230878Y37378D01*
X231622Y36880D01*
X232000Y36805D01*
Y38500D01*
D02*
G37*
G36*
X227695D02*
X226000D01*
Y36805D01*
X226378Y36880D01*
X227122Y37378D01*
X227620Y38122D01*
X227695Y38500D01*
D02*
G37*
G36*
X225000D02*
X223305D01*
X223380Y38122D01*
X223878Y37378D01*
X224622Y36880D01*
X225000Y36805D01*
Y38500D01*
D02*
G37*
G36*
X220695D02*
X219000D01*
Y36805D01*
X219378Y36880D01*
X220122Y37378D01*
X220620Y38122D01*
X220695Y38500D01*
D02*
G37*
G36*
X218000D02*
X216305D01*
X216381Y38122D01*
X216878Y37378D01*
X217622Y36880D01*
X218000Y36805D01*
Y38500D01*
D02*
G37*
G36*
X213695D02*
X212000D01*
Y36805D01*
X212378Y36880D01*
X213122Y37378D01*
X213619Y38122D01*
X213695Y38500D01*
D02*
G37*
G36*
X211000D02*
X209305D01*
X209381Y38122D01*
X209878Y37378D01*
X210622Y36880D01*
X211000Y36805D01*
Y38500D01*
D02*
G37*
G36*
X206695D02*
X205000D01*
Y36805D01*
X205378Y36880D01*
X206122Y37378D01*
X206620Y38122D01*
X206695Y38500D01*
D02*
G37*
G36*
X204000D02*
X202305D01*
X202380Y38122D01*
X202878Y37378D01*
X203622Y36880D01*
X204000Y36805D01*
Y38500D01*
D02*
G37*
G36*
X23961Y36234D02*
Y34539D01*
X25655D01*
X25580Y34917D01*
X25083Y35662D01*
X24339Y36159D01*
X23961Y36234D01*
D02*
G37*
G36*
X22961D02*
X22583Y36159D01*
X21838Y35662D01*
X21341Y34917D01*
X21266Y34539D01*
X22961D01*
Y36234D01*
D02*
G37*
G36*
X296000Y34195D02*
Y32500D01*
X297695D01*
X297620Y32878D01*
X297122Y33622D01*
X296378Y34119D01*
X296000Y34195D01*
D02*
G37*
G36*
X295000D02*
X294622Y34119D01*
X293878Y33622D01*
X293380Y32878D01*
X293305Y32500D01*
X295000D01*
Y34195D01*
D02*
G37*
G36*
X205000D02*
Y32500D01*
X206695D01*
X206620Y32878D01*
X206122Y33622D01*
X205378Y34119D01*
X205000Y34195D01*
D02*
G37*
G36*
X204000D02*
X203622Y34119D01*
X202878Y33622D01*
X202380Y32878D01*
X202305Y32500D01*
X204000D01*
Y34195D01*
D02*
G37*
G36*
X25655Y33539D02*
X23961D01*
Y31845D01*
X24339Y31920D01*
X25083Y32417D01*
X25580Y33162D01*
X25655Y33539D01*
D02*
G37*
G36*
X22961D02*
X21266D01*
X21341Y33162D01*
X21838Y32417D01*
X22583Y31920D01*
X22961Y31845D01*
Y33539D01*
D02*
G37*
G36*
X297695Y31500D02*
X296000D01*
Y29805D01*
X296378Y29880D01*
X297122Y30378D01*
X297620Y31122D01*
X297695Y31500D01*
D02*
G37*
G36*
X295000D02*
X293305D01*
X293380Y31122D01*
X293878Y30378D01*
X294622Y29880D01*
X295000Y29805D01*
Y31500D01*
D02*
G37*
G36*
X206695D02*
X205000D01*
Y29805D01*
X205378Y29880D01*
X206122Y30378D01*
X206620Y31122D01*
X206695Y31500D01*
D02*
G37*
G36*
X204000D02*
X202305D01*
X202380Y31122D01*
X202878Y30378D01*
X203622Y29880D01*
X204000Y29805D01*
Y31500D01*
D02*
G37*
G36*
X205000Y27195D02*
Y25500D01*
X206695D01*
X206620Y25878D01*
X206122Y26622D01*
X205378Y27119D01*
X205000Y27195D01*
D02*
G37*
G36*
X204000D02*
X203622Y27119D01*
X202878Y26622D01*
X202380Y25878D01*
X202305Y25500D01*
X204000D01*
Y27195D01*
D02*
G37*
G36*
X16332Y33203D02*
X15326Y33070D01*
X14388Y32682D01*
X13583Y32064D01*
X12966Y31259D01*
X12577Y30321D01*
X12445Y29315D01*
X12577Y28309D01*
X12966Y27371D01*
X13583Y26566D01*
X14388Y25948D01*
X15326Y25560D01*
X16332Y25427D01*
X17338Y25560D01*
X18276Y25948D01*
X19081Y26566D01*
X19699Y27371D01*
X20087Y28309D01*
X20220Y29315D01*
X20087Y30321D01*
X19699Y31259D01*
X19081Y32064D01*
X18276Y32682D01*
X17338Y33070D01*
X16332Y33203D01*
D02*
G37*
G36*
X7080Y27602D02*
X4324D01*
X3473Y27433D01*
X2752Y26950D01*
X2270Y26229D01*
X2101Y25378D01*
X2270Y24527D01*
X2752Y23806D01*
X3473Y23323D01*
X4324Y23154D01*
X7080D01*
X7931Y23323D01*
X8653Y23806D01*
X9135Y24527D01*
X9304Y25378D01*
X9135Y26229D01*
X8653Y26950D01*
X7931Y27433D01*
X7080Y27602D01*
D02*
G37*
G36*
X206695Y24500D02*
X205000D01*
Y22805D01*
X205378Y22881D01*
X206122Y23378D01*
X206620Y24122D01*
X206695Y24500D01*
D02*
G37*
G36*
X204000D02*
X202305D01*
X202380Y24122D01*
X202878Y23378D01*
X203622Y22881D01*
X204000Y22805D01*
Y24500D01*
D02*
G37*
G36*
X292500Y26708D02*
Y21500D01*
X297708D01*
X297577Y22494D01*
X297000Y23887D01*
X296083Y25083D01*
X294887Y26000D01*
X293494Y26577D01*
X292500Y26708D01*
D02*
G37*
G36*
X272500D02*
Y21500D01*
X277708D01*
X277577Y22494D01*
X277000Y23887D01*
X276083Y25083D01*
X274887Y26000D01*
X273494Y26577D01*
X272500Y26708D01*
D02*
G37*
G36*
X113000Y23195D02*
Y21500D01*
X114695D01*
X114620Y21878D01*
X114122Y22622D01*
X113378Y23120D01*
X113000Y23195D01*
D02*
G37*
G36*
X112000D02*
X111622Y23120D01*
X110878Y22622D01*
X110380Y21878D01*
X110305Y21500D01*
X112000D01*
Y23195D01*
D02*
G37*
G36*
X291500Y26708D02*
X290506Y26577D01*
X289113Y26000D01*
X287917Y25083D01*
X287000Y23887D01*
X286423Y22494D01*
X286292Y21500D01*
X291500D01*
Y26708D01*
D02*
G37*
G36*
X271500D02*
X270506Y26577D01*
X269113Y26000D01*
X267917Y25083D01*
X267000Y23887D01*
X266423Y22494D01*
X266292Y21500D01*
X271500D01*
Y26708D01*
D02*
G37*
G36*
X160500Y21695D02*
Y20000D01*
X162195D01*
X162119Y20378D01*
X161622Y21122D01*
X160878Y21620D01*
X160500Y21695D01*
D02*
G37*
G36*
X159500D02*
X159122Y21620D01*
X158378Y21122D01*
X157880Y20378D01*
X157805Y20000D01*
X159500D01*
Y21695D01*
D02*
G37*
G36*
X114695Y20500D02*
X113000D01*
Y18805D01*
X113378Y18880D01*
X114122Y19378D01*
X114620Y20122D01*
X114695Y20500D01*
D02*
G37*
G36*
X112000D02*
X110305D01*
X110380Y20122D01*
X110878Y19378D01*
X111622Y18880D01*
X112000Y18805D01*
Y20500D01*
D02*
G37*
G36*
X205000Y20195D02*
Y18500D01*
X206695D01*
X206620Y18878D01*
X206122Y19622D01*
X205378Y20120D01*
X205000Y20195D01*
D02*
G37*
G36*
X204000D02*
X203622Y20120D01*
X202878Y19622D01*
X202380Y18878D01*
X202305Y18500D01*
X204000D01*
Y20195D01*
D02*
G37*
G36*
X162195Y19000D02*
X160500D01*
Y17305D01*
X160878Y17380D01*
X161622Y17878D01*
X162119Y18622D01*
X162195Y19000D01*
D02*
G37*
G36*
X159500D02*
X157805D01*
X157880Y18622D01*
X158378Y17878D01*
X159122Y17380D01*
X159500Y17305D01*
Y19000D01*
D02*
G37*
G36*
X206695Y17500D02*
X205000D01*
Y15805D01*
X205378Y15880D01*
X206122Y16378D01*
X206620Y17122D01*
X206695Y17500D01*
D02*
G37*
G36*
X204000D02*
X202305D01*
X202380Y17122D01*
X202878Y16378D01*
X203622Y15880D01*
X204000Y15805D01*
Y17500D01*
D02*
G37*
G36*
X297708Y20500D02*
X292500D01*
Y15292D01*
X293494Y15423D01*
X294887Y16000D01*
X296083Y16917D01*
X297000Y18113D01*
X297577Y19506D01*
X297708Y20500D01*
D02*
G37*
G36*
X277708D02*
X272500D01*
Y15292D01*
X273494Y15423D01*
X274887Y16000D01*
X276083Y16917D01*
X277000Y18113D01*
X277577Y19506D01*
X277708Y20500D01*
D02*
G37*
G36*
X291500D02*
X286292D01*
X286423Y19506D01*
X287000Y18113D01*
X287917Y16917D01*
X289113Y16000D01*
X290506Y15423D01*
X291500Y15292D01*
Y20500D01*
D02*
G37*
G36*
X271500D02*
X266292D01*
X266423Y19506D01*
X267000Y18113D01*
X267917Y16917D01*
X269113Y16000D01*
X270506Y15423D01*
X271500Y15292D01*
Y20500D01*
D02*
G37*
G36*
X205000Y13195D02*
Y11500D01*
X206695D01*
X206620Y11878D01*
X206122Y12622D01*
X205378Y13119D01*
X205000Y13195D01*
D02*
G37*
G36*
X204000D02*
X203622Y13119D01*
X202878Y12622D01*
X202380Y11878D01*
X202305Y11500D01*
X204000D01*
Y13195D01*
D02*
G37*
G36*
X206695Y10500D02*
X205000D01*
Y8805D01*
X205378Y8880D01*
X206122Y9378D01*
X206620Y10122D01*
X206695Y10500D01*
D02*
G37*
G36*
X204000D02*
X202305D01*
X202380Y10122D01*
X202878Y9378D01*
X203622Y8880D01*
X204000Y8805D01*
Y10500D01*
D02*
G37*
G36*
X282000Y16476D02*
X280583Y16289D01*
X279262Y15742D01*
X278128Y14872D01*
X277258Y13738D01*
X276711Y12417D01*
X276524Y11000D01*
X276711Y9583D01*
X277258Y8262D01*
X278128Y7128D01*
X279262Y6258D01*
X280583Y5711D01*
X282000Y5524D01*
X283417Y5711D01*
X284738Y6258D01*
X285872Y7128D01*
X286742Y8262D01*
X287289Y9583D01*
X287476Y11000D01*
X287289Y12417D01*
X286742Y13738D01*
X285872Y14872D01*
X284738Y15742D01*
X283417Y16289D01*
X282000Y16476D01*
D02*
G37*
G36*
X57742Y6695D02*
Y5000D01*
X59436D01*
X59361Y5378D01*
X58864Y6122D01*
X58120Y6620D01*
X57742Y6695D01*
D02*
G37*
G36*
X56742D02*
X56364Y6620D01*
X55620Y6122D01*
X55122Y5378D01*
X55047Y5000D01*
X56742D01*
Y6695D01*
D02*
G37*
G36*
X205000Y6195D02*
Y4500D01*
X206695D01*
X206620Y4878D01*
X206122Y5622D01*
X205378Y6119D01*
X205000Y6195D01*
D02*
G37*
G36*
X204000D02*
X203622Y6119D01*
X202878Y5622D01*
X202380Y4878D01*
X202305Y4500D01*
X204000D01*
Y6195D01*
D02*
G37*
G36*
X124500Y5695D02*
Y4000D01*
X126195D01*
X126119Y4378D01*
X125622Y5122D01*
X124878Y5619D01*
X124500Y5695D01*
D02*
G37*
G36*
X123500D02*
X123122Y5619D01*
X122378Y5122D01*
X121880Y4378D01*
X121805Y4000D01*
X123500D01*
Y5695D01*
D02*
G37*
G36*
X59436Y4000D02*
X57742D01*
Y2305D01*
X58120Y2380D01*
X58864Y2878D01*
X59361Y3622D01*
X59436Y4000D01*
D02*
G37*
G36*
X56742D02*
X55047D01*
X55122Y3622D01*
X55620Y2878D01*
X56364Y2380D01*
X56742Y2305D01*
Y4000D01*
D02*
G37*
G36*
X206695Y3500D02*
X205000D01*
Y1805D01*
X205378Y1881D01*
X206122Y2378D01*
X206620Y3122D01*
X206695Y3500D01*
D02*
G37*
G36*
X204000D02*
X202305D01*
X202380Y3122D01*
X202878Y2378D01*
X203622Y1881D01*
X204000Y1805D01*
Y3500D01*
D02*
G37*
G36*
X292500Y6708D02*
Y1500D01*
X297708D01*
X297577Y2494D01*
X297000Y3887D01*
X296083Y5083D01*
X294887Y6000D01*
X293494Y6577D01*
X292500Y6708D01*
D02*
G37*
G36*
X272500D02*
Y1500D01*
X277708D01*
X277577Y2494D01*
X277000Y3887D01*
X276083Y5083D01*
X274887Y6000D01*
X273494Y6577D01*
X272500Y6708D01*
D02*
G37*
G36*
X291500D02*
X290506Y6577D01*
X289113Y6000D01*
X287917Y5083D01*
X287000Y3887D01*
X286423Y2494D01*
X286292Y1500D01*
X291500D01*
Y6708D01*
D02*
G37*
G36*
X271500D02*
X270506Y6577D01*
X269113Y6000D01*
X267917Y5083D01*
X267000Y3887D01*
X266423Y2494D01*
X266292Y1500D01*
X271500D01*
Y6708D01*
D02*
G37*
G36*
X126195Y3000D02*
X124500D01*
Y1305D01*
X124878Y1381D01*
X125622Y1878D01*
X126119Y2622D01*
X126195Y3000D01*
D02*
G37*
G36*
X123500D02*
X121805D01*
X121880Y2622D01*
X122378Y1878D01*
X123122Y1381D01*
X123500Y1305D01*
Y3000D01*
D02*
G37*
G36*
X205000Y-805D02*
Y-2500D01*
X206695D01*
X206620Y-2122D01*
X206122Y-1378D01*
X205378Y-881D01*
X205000Y-805D01*
D02*
G37*
G36*
X204000D02*
X203622Y-881D01*
X202878Y-1378D01*
X202380Y-2122D01*
X202305Y-2500D01*
X204000D01*
Y-805D01*
D02*
G37*
G36*
X297708Y500D02*
X292500D01*
Y-4708D01*
X293494Y-4577D01*
X294887Y-4000D01*
X296083Y-3083D01*
X297000Y-1887D01*
X297577Y-494D01*
X297708Y500D01*
D02*
G37*
G36*
X277708D02*
X272500D01*
Y-4708D01*
X273494Y-4577D01*
X274887Y-4000D01*
X276083Y-3083D01*
X277000Y-1887D01*
X277577Y-494D01*
X277708Y500D01*
D02*
G37*
G36*
X291500D02*
X286292D01*
X286423Y-494D01*
X287000Y-1887D01*
X287917Y-3083D01*
X289113Y-4000D01*
X290506Y-4577D01*
X291500Y-4708D01*
Y500D01*
D02*
G37*
G36*
X271500D02*
X266292D01*
X266423Y-494D01*
X267000Y-1887D01*
X267917Y-3083D01*
X269113Y-4000D01*
X270506Y-4577D01*
X271500Y-4708D01*
Y500D01*
D02*
G37*
G36*
X206695Y-3500D02*
X205000D01*
Y-5195D01*
X205378Y-5119D01*
X206122Y-4622D01*
X206620Y-3878D01*
X206695Y-3500D01*
D02*
G37*
G36*
X204000D02*
X202305D01*
X202380Y-3878D01*
X202878Y-4622D01*
X203622Y-5119D01*
X204000Y-5195D01*
Y-3500D01*
D02*
G37*
G36*
X296000Y-7805D02*
Y-9500D01*
X297695D01*
X297620Y-9122D01*
X297122Y-8378D01*
X296378Y-7880D01*
X296000Y-7805D01*
D02*
G37*
G36*
X295000D02*
X294622Y-7880D01*
X293878Y-8378D01*
X293380Y-9122D01*
X293305Y-9500D01*
X295000D01*
Y-7805D01*
D02*
G37*
G36*
X205000D02*
Y-9500D01*
X206695D01*
X206620Y-9122D01*
X206122Y-8378D01*
X205378Y-7880D01*
X205000Y-7805D01*
D02*
G37*
G36*
X204000D02*
X203622Y-7880D01*
X202878Y-8378D01*
X202380Y-9122D01*
X202305Y-9500D01*
X204000D01*
Y-7805D01*
D02*
G37*
G36*
X297695Y-10500D02*
X296000D01*
Y-12195D01*
X296378Y-12120D01*
X297122Y-11622D01*
X297620Y-10878D01*
X297695Y-10500D01*
D02*
G37*
G36*
X295000D02*
X293305D01*
X293380Y-10878D01*
X293878Y-11622D01*
X294622Y-12120D01*
X295000Y-12195D01*
Y-10500D01*
D02*
G37*
G36*
X206695D02*
X205000D01*
Y-12195D01*
X205378Y-12120D01*
X206122Y-11622D01*
X206620Y-10878D01*
X206695Y-10500D01*
D02*
G37*
G36*
X204000D02*
X202305D01*
X202380Y-10878D01*
X202878Y-11622D01*
X203622Y-12120D01*
X204000Y-12195D01*
Y-10500D01*
D02*
G37*
G36*
X296000Y-14805D02*
Y-16500D01*
X297695D01*
X297620Y-16122D01*
X297122Y-15378D01*
X296378Y-14881D01*
X296000Y-14805D01*
D02*
G37*
G36*
X295000D02*
X294622Y-14881D01*
X293878Y-15378D01*
X293380Y-16122D01*
X293305Y-16500D01*
X295000D01*
Y-14805D01*
D02*
G37*
G36*
X289000D02*
Y-16500D01*
X290695D01*
X290619Y-16122D01*
X290122Y-15378D01*
X289378Y-14881D01*
X289000Y-14805D01*
D02*
G37*
G36*
X288000D02*
X287622Y-14881D01*
X286878Y-15378D01*
X286381Y-16122D01*
X286305Y-16500D01*
X288000D01*
Y-14805D01*
D02*
G37*
G36*
X282000D02*
Y-16500D01*
X283695D01*
X283619Y-16122D01*
X283122Y-15378D01*
X282378Y-14881D01*
X282000Y-14805D01*
D02*
G37*
G36*
X281000D02*
X280622Y-14881D01*
X279878Y-15378D01*
X279380Y-16122D01*
X279305Y-16500D01*
X281000D01*
Y-14805D01*
D02*
G37*
G36*
X275000D02*
Y-16500D01*
X276695D01*
X276620Y-16122D01*
X276122Y-15378D01*
X275378Y-14881D01*
X275000Y-14805D01*
D02*
G37*
G36*
X274000D02*
X273622Y-14881D01*
X272878Y-15378D01*
X272380Y-16122D01*
X272305Y-16500D01*
X274000D01*
Y-14805D01*
D02*
G37*
G36*
X268000D02*
Y-16500D01*
X269695D01*
X269619Y-16122D01*
X269122Y-15378D01*
X268378Y-14881D01*
X268000Y-14805D01*
D02*
G37*
G36*
X267000D02*
X266622Y-14881D01*
X265878Y-15378D01*
X265381Y-16122D01*
X265305Y-16500D01*
X267000D01*
Y-14805D01*
D02*
G37*
G36*
X261000D02*
Y-16500D01*
X262695D01*
X262619Y-16122D01*
X262122Y-15378D01*
X261378Y-14881D01*
X261000Y-14805D01*
D02*
G37*
G36*
X260000D02*
X259622Y-14881D01*
X258878Y-15378D01*
X258381Y-16122D01*
X258305Y-16500D01*
X260000D01*
Y-14805D01*
D02*
G37*
G36*
X254000D02*
Y-16500D01*
X255695D01*
X255620Y-16122D01*
X255122Y-15378D01*
X254378Y-14881D01*
X254000Y-14805D01*
D02*
G37*
G36*
X253000D02*
X252622Y-14881D01*
X251878Y-15378D01*
X251380Y-16122D01*
X251305Y-16500D01*
X253000D01*
Y-14805D01*
D02*
G37*
G36*
X247000D02*
Y-16500D01*
X248695D01*
X248620Y-16122D01*
X248122Y-15378D01*
X247378Y-14881D01*
X247000Y-14805D01*
D02*
G37*
G36*
X246000D02*
X245622Y-14881D01*
X244878Y-15378D01*
X244380Y-16122D01*
X244305Y-16500D01*
X246000D01*
Y-14805D01*
D02*
G37*
G36*
X240000D02*
Y-16500D01*
X241695D01*
X241619Y-16122D01*
X241122Y-15378D01*
X240378Y-14881D01*
X240000Y-14805D01*
D02*
G37*
G36*
X239000D02*
X238622Y-14881D01*
X237878Y-15378D01*
X237381Y-16122D01*
X237305Y-16500D01*
X239000D01*
Y-14805D01*
D02*
G37*
G36*
X233000D02*
Y-16500D01*
X234695D01*
X234619Y-16122D01*
X234122Y-15378D01*
X233378Y-14881D01*
X233000Y-14805D01*
D02*
G37*
G36*
X232000D02*
X231622Y-14881D01*
X230878Y-15378D01*
X230381Y-16122D01*
X230305Y-16500D01*
X232000D01*
Y-14805D01*
D02*
G37*
G36*
X226000D02*
Y-16500D01*
X227695D01*
X227620Y-16122D01*
X227122Y-15378D01*
X226378Y-14881D01*
X226000Y-14805D01*
D02*
G37*
G36*
X225000D02*
X224622Y-14881D01*
X223878Y-15378D01*
X223380Y-16122D01*
X223305Y-16500D01*
X225000D01*
Y-14805D01*
D02*
G37*
G36*
X219000D02*
Y-16500D01*
X220695D01*
X220620Y-16122D01*
X220122Y-15378D01*
X219378Y-14881D01*
X219000Y-14805D01*
D02*
G37*
G36*
X218000D02*
X217622Y-14881D01*
X216878Y-15378D01*
X216381Y-16122D01*
X216305Y-16500D01*
X218000D01*
Y-14805D01*
D02*
G37*
G36*
X212000D02*
Y-16500D01*
X213695D01*
X213619Y-16122D01*
X213122Y-15378D01*
X212378Y-14881D01*
X212000Y-14805D01*
D02*
G37*
G36*
X211000D02*
X210622Y-14881D01*
X209878Y-15378D01*
X209381Y-16122D01*
X209305Y-16500D01*
X211000D01*
Y-14805D01*
D02*
G37*
G36*
X205000D02*
Y-16500D01*
X206695D01*
X206620Y-16122D01*
X206122Y-15378D01*
X205378Y-14881D01*
X205000Y-14805D01*
D02*
G37*
G36*
X204000D02*
X203622Y-14881D01*
X202878Y-15378D01*
X202380Y-16122D01*
X202305Y-16500D01*
X204000D01*
Y-14805D01*
D02*
G37*
G36*
X297695Y-17500D02*
X296000D01*
Y-19195D01*
X296378Y-19119D01*
X297122Y-18622D01*
X297620Y-17878D01*
X297695Y-17500D01*
D02*
G37*
G36*
X295000D02*
X293305D01*
X293380Y-17878D01*
X293878Y-18622D01*
X294622Y-19119D01*
X295000Y-19195D01*
Y-17500D01*
D02*
G37*
G36*
X290695D02*
X289000D01*
Y-19195D01*
X289378Y-19119D01*
X290122Y-18622D01*
X290619Y-17878D01*
X290695Y-17500D01*
D02*
G37*
G36*
X288000D02*
X286305D01*
X286381Y-17878D01*
X286878Y-18622D01*
X287622Y-19119D01*
X288000Y-19195D01*
Y-17500D01*
D02*
G37*
G36*
X283695D02*
X282000D01*
Y-19195D01*
X282378Y-19119D01*
X283122Y-18622D01*
X283619Y-17878D01*
X283695Y-17500D01*
D02*
G37*
G36*
X281000D02*
X279305D01*
X279380Y-17878D01*
X279878Y-18622D01*
X280622Y-19119D01*
X281000Y-19195D01*
Y-17500D01*
D02*
G37*
G36*
X276695D02*
X275000D01*
Y-19195D01*
X275378Y-19119D01*
X276122Y-18622D01*
X276620Y-17878D01*
X276695Y-17500D01*
D02*
G37*
G36*
X274000D02*
X272305D01*
X272380Y-17878D01*
X272878Y-18622D01*
X273622Y-19119D01*
X274000Y-19195D01*
Y-17500D01*
D02*
G37*
G36*
X269695D02*
X268000D01*
Y-19195D01*
X268378Y-19119D01*
X269122Y-18622D01*
X269619Y-17878D01*
X269695Y-17500D01*
D02*
G37*
G36*
X267000D02*
X265305D01*
X265381Y-17878D01*
X265878Y-18622D01*
X266622Y-19119D01*
X267000Y-19195D01*
Y-17500D01*
D02*
G37*
G36*
X262695D02*
X261000D01*
Y-19195D01*
X261378Y-19119D01*
X262122Y-18622D01*
X262619Y-17878D01*
X262695Y-17500D01*
D02*
G37*
G36*
X260000D02*
X258305D01*
X258381Y-17878D01*
X258878Y-18622D01*
X259622Y-19119D01*
X260000Y-19195D01*
Y-17500D01*
D02*
G37*
G36*
X255695D02*
X254000D01*
Y-19195D01*
X254378Y-19119D01*
X255122Y-18622D01*
X255620Y-17878D01*
X255695Y-17500D01*
D02*
G37*
G36*
X253000D02*
X251305D01*
X251380Y-17878D01*
X251878Y-18622D01*
X252622Y-19119D01*
X253000Y-19195D01*
Y-17500D01*
D02*
G37*
G36*
X248695D02*
X247000D01*
Y-19195D01*
X247378Y-19119D01*
X248122Y-18622D01*
X248620Y-17878D01*
X248695Y-17500D01*
D02*
G37*
G36*
X246000D02*
X244305D01*
X244380Y-17878D01*
X244878Y-18622D01*
X245622Y-19119D01*
X246000Y-19195D01*
Y-17500D01*
D02*
G37*
G36*
X241695D02*
X240000D01*
Y-19195D01*
X240378Y-19119D01*
X241122Y-18622D01*
X241619Y-17878D01*
X241695Y-17500D01*
D02*
G37*
G36*
X239000D02*
X237305D01*
X237381Y-17878D01*
X237878Y-18622D01*
X238622Y-19119D01*
X239000Y-19195D01*
Y-17500D01*
D02*
G37*
G36*
X234695D02*
X233000D01*
Y-19195D01*
X233378Y-19119D01*
X234122Y-18622D01*
X234619Y-17878D01*
X234695Y-17500D01*
D02*
G37*
G36*
X232000D02*
X230305D01*
X230381Y-17878D01*
X230878Y-18622D01*
X231622Y-19119D01*
X232000Y-19195D01*
Y-17500D01*
D02*
G37*
G36*
X227695D02*
X226000D01*
Y-19195D01*
X226378Y-19119D01*
X227122Y-18622D01*
X227620Y-17878D01*
X227695Y-17500D01*
D02*
G37*
G36*
X225000D02*
X223305D01*
X223380Y-17878D01*
X223878Y-18622D01*
X224622Y-19119D01*
X225000Y-19195D01*
Y-17500D01*
D02*
G37*
G36*
X220695D02*
X219000D01*
Y-19195D01*
X219378Y-19119D01*
X220122Y-18622D01*
X220620Y-17878D01*
X220695Y-17500D01*
D02*
G37*
G36*
X218000D02*
X216305D01*
X216381Y-17878D01*
X216878Y-18622D01*
X217622Y-19119D01*
X218000Y-19195D01*
Y-17500D01*
D02*
G37*
G36*
X213695D02*
X212000D01*
Y-19195D01*
X212378Y-19119D01*
X213122Y-18622D01*
X213619Y-17878D01*
X213695Y-17500D01*
D02*
G37*
G36*
X211000D02*
X209305D01*
X209381Y-17878D01*
X209878Y-18622D01*
X210622Y-19119D01*
X211000Y-19195D01*
Y-17500D01*
D02*
G37*
G36*
X206695D02*
X205000D01*
Y-19195D01*
X205378Y-19119D01*
X206122Y-18622D01*
X206620Y-17878D01*
X206695Y-17500D01*
D02*
G37*
G36*
X204000D02*
X202305D01*
X202380Y-17878D01*
X202878Y-18622D01*
X203622Y-19119D01*
X204000Y-19195D01*
Y-17500D01*
D02*
G37*
%LPD*%
D15*
X193000Y151000D02*
Y164427D01*
X187927Y169500D02*
X193000Y164427D01*
X182500Y169500D02*
X187927D01*
X178000Y136000D02*
X193000Y151000D01*
X182500Y158000D02*
Y163500D01*
X177700Y153200D02*
X182500Y158000D01*
X141800Y153200D02*
X177700D01*
X97500Y136000D02*
X178000D01*
X138500Y156500D02*
X141800Y153200D01*
D18*
X25316Y67500D02*
X171167D01*
X17500Y58500D02*
X25316Y67500D01*
X171167D02*
X176842Y73175D01*
Y99842D01*
X190500Y113500D01*
X46000Y38000D02*
X63000D01*
X41000Y43000D02*
X59000D01*
D103*
X26842Y178870D02*
D03*
D104*
X17000Y189500D02*
D03*
D105*
X36685D02*
D03*
D106*
X272000Y178843D02*
D03*
X292000D02*
D03*
Y198843D02*
D03*
X272000D02*
D03*
Y21000D02*
D03*
X292000D02*
D03*
Y1000D02*
D03*
X272000D02*
D03*
D107*
X282000Y188843D02*
D03*
Y11000D02*
D03*
D108*
X168500Y156500D02*
D03*
X163500D02*
D03*
X158500D02*
D03*
X153500D02*
D03*
X148500D02*
D03*
X143500D02*
D03*
X138500D02*
D03*
X133500D02*
D03*
X128500D02*
D03*
X123500D02*
D03*
X118500D02*
D03*
X113500D02*
D03*
X190500Y63500D02*
D03*
Y68500D02*
D03*
Y73500D02*
D03*
Y78500D02*
D03*
Y83500D02*
D03*
Y88500D02*
D03*
Y93500D02*
D03*
Y98500D02*
D03*
Y103500D02*
D03*
Y108500D02*
D03*
Y113500D02*
D03*
Y118500D02*
D03*
Y123500D02*
D03*
Y128500D02*
D03*
Y133500D02*
D03*
X97500Y71000D02*
D03*
Y76000D02*
D03*
Y81000D02*
D03*
Y86000D02*
D03*
Y91000D02*
D03*
Y96000D02*
D03*
Y101000D02*
D03*
Y106000D02*
D03*
Y111000D02*
D03*
Y116000D02*
D03*
Y121000D02*
D03*
Y126000D02*
D03*
Y131000D02*
D03*
Y136000D02*
D03*
Y141000D02*
D03*
Y146000D02*
D03*
X152500Y63500D02*
D03*
X147500D02*
D03*
X162500D02*
D03*
X157500D02*
D03*
X142500D02*
D03*
X137500D02*
D03*
X132500D02*
D03*
X127500D02*
D03*
X122500D02*
D03*
X117500D02*
D03*
X112500D02*
D03*
X107500D02*
D03*
X102500D02*
D03*
X97500D02*
D03*
D109*
X16332Y29315D02*
D03*
Y49000D02*
D03*
D110*
X68300Y123100D02*
D03*
D111*
X78300Y118100D02*
D03*
X68300Y113100D02*
D03*
X78300Y108100D02*
D03*
X68300Y103100D02*
D03*
X78300Y98100D02*
D03*
X68300Y93100D02*
D03*
X78300Y88100D02*
D03*
D112*
X55300Y74600D02*
D03*
Y136600D02*
D03*
D113*
X24000Y130500D02*
D03*
Y90600D02*
D03*
X30000Y120500D02*
D03*
Y80600D02*
D03*
D114*
X43300Y83100D02*
D03*
Y128100D02*
D03*
D115*
X58500Y216843D02*
D03*
Y176000D02*
D03*
X3305D02*
D03*
Y216843D02*
D03*
X46000Y38000D02*
D03*
X40784Y43000D02*
D03*
X59000D02*
D03*
X63000Y38000D02*
D03*
X17500Y58500D02*
D03*
X108500Y190249D02*
D03*
X123000Y45000D02*
D03*
X182500Y163500D02*
D03*
Y169500D02*
D03*
X23461Y34039D02*
D03*
X51000Y59000D02*
D03*
X146000Y165600D02*
D03*
X152042Y195958D02*
D03*
X182000Y182500D02*
D03*
X128500Y182724D02*
D03*
X112500Y21000D02*
D03*
X124000Y3500D02*
D03*
X288500Y-17000D02*
D03*
X281500D02*
D03*
X274500D02*
D03*
X267500D02*
D03*
X246500D02*
D03*
X253500D02*
D03*
X260500D02*
D03*
X211500D02*
D03*
X204500D02*
D03*
X218500D02*
D03*
X225500D02*
D03*
X232500D02*
D03*
X239500D02*
D03*
Y39000D02*
D03*
X232500D02*
D03*
X225500D02*
D03*
X218500D02*
D03*
X211500D02*
D03*
X260500D02*
D03*
X253500D02*
D03*
X246500D02*
D03*
X267500D02*
D03*
X274500D02*
D03*
X281500D02*
D03*
X288500D02*
D03*
X204500Y32000D02*
D03*
Y-3000D02*
D03*
Y-10000D02*
D03*
Y4000D02*
D03*
Y11000D02*
D03*
Y18000D02*
D03*
Y25000D02*
D03*
Y39000D02*
D03*
X295500Y-17000D02*
D03*
Y-10000D02*
D03*
Y32000D02*
D03*
Y39000D02*
D03*
Y216843D02*
D03*
Y209843D02*
D03*
Y167843D02*
D03*
Y160843D02*
D03*
X145500Y46000D02*
D03*
X160000Y19500D02*
D03*
X57242Y4500D02*
D03*
X204500Y216843D02*
D03*
Y202843D02*
D03*
Y195843D02*
D03*
Y188843D02*
D03*
Y181843D02*
D03*
Y167843D02*
D03*
Y174843D02*
D03*
Y209843D02*
D03*
X288500Y216843D02*
D03*
X281500D02*
D03*
X274500D02*
D03*
X267500D02*
D03*
X246500D02*
D03*
X253500D02*
D03*
X260500D02*
D03*
X211500D02*
D03*
X218500D02*
D03*
X225500D02*
D03*
X232500D02*
D03*
X239500D02*
D03*
Y160843D02*
D03*
X232500D02*
D03*
X225500D02*
D03*
X218500D02*
D03*
X204500D02*
D03*
X211500D02*
D03*
X260500D02*
D03*
X253500D02*
D03*
X246500D02*
D03*
X267500D02*
D03*
X274500D02*
D03*
X281500D02*
D03*
X288500D02*
D03*
M02*
