G04*
G04 #@! TF.GenerationSoftware,Altium Limited,Altium Designer,18.0.12 (696)*
G04*
G04 Layer_Color=8388736*
%FSLAX25Y25*%
%MOIN*%
G70*
G01*
G75*
%ADD19C,0.02769*%
G04:AMPARAMS|DCode=20|XSize=19.81mil|YSize=21.78mil|CornerRadius=6.95mil|HoleSize=0mil|Usage=FLASHONLY|Rotation=270.000|XOffset=0mil|YOffset=0mil|HoleType=Round|Shape=RoundedRectangle|*
%AMROUNDEDRECTD20*
21,1,0.01981,0.00787,0,0,270.0*
21,1,0.00591,0.02178,0,0,270.0*
1,1,0.01391,-0.00394,-0.00295*
1,1,0.01391,-0.00394,0.00295*
1,1,0.01391,0.00394,0.00295*
1,1,0.01391,0.00394,-0.00295*
%
%ADD20ROUNDEDRECTD20*%
%ADD21R,0.03084X0.05446*%
%ADD22R,0.02769X0.03753*%
%ADD23R,0.27178X0.27178*%
%ADD24R,0.12611X0.07099*%
%ADD25R,0.03950X0.04343*%
%ADD26R,0.06312X0.05131*%
%ADD27R,0.05131X0.06312*%
%ADD28R,0.04304X0.03910*%
%ADD29R,0.04343X0.03950*%
%ADD30R,0.07400X0.08200*%
%ADD31R,0.05800X0.01900*%
%ADD32R,0.04343X0.03556*%
%ADD33R,0.03556X0.04343*%
%ADD34R,0.03000X0.05800*%
%ADD35R,0.05800X0.03000*%
%ADD36R,0.06000X0.02800*%
%ADD37R,0.06000X0.03000*%
%ADD38R,0.09461X0.04934*%
%ADD39R,0.04934X0.04737*%
%ADD40R,0.04343X0.03646*%
%ADD41R,0.03753X0.04147*%
%ADD42R,0.06706X0.06706*%
%ADD43R,0.06902X0.06115*%
%ADD44R,0.05406X0.07887*%
%ADD45R,0.08280X0.06115*%
%ADD46R,0.05524X0.04737*%
%ADD47R,0.04147X0.05131*%
%ADD48R,0.04245X0.05131*%
%ADD49R,0.03753X0.05131*%
%ADD50O,0.02178X0.07887*%
%ADD51R,0.06115X0.02375*%
%ADD52R,0.08280X0.06706*%
%ADD53R,0.06706X0.03950*%
%ADD54R,0.03950X0.06706*%
%ADD55R,0.03950X0.06706*%
%ADD56C,0.10249*%
%ADD57C,0.09658*%
%ADD58C,0.04400*%
%ADD59C,0.06509*%
%ADD60R,0.06400X0.06400*%
%ADD61C,0.06400*%
%ADD62C,0.10400*%
%ADD63C,0.06800*%
%ADD64C,0.13600*%
%ADD65C,0.03300*%
G36*
X9495Y30500D02*
X9546Y30490D01*
X9596Y30473D01*
X9643Y30450D01*
X9686Y30420D01*
X9726Y30386D01*
X9760Y30346D01*
X9790Y30303D01*
X9813Y30256D01*
X9830Y30206D01*
X9840Y30155D01*
X9843Y30102D01*
Y24984D01*
X9840Y24932D01*
X9830Y24881D01*
X9813Y24831D01*
X9790Y24784D01*
X9760Y24740D01*
X9726Y24701D01*
X9686Y24666D01*
X9643Y24637D01*
X9596Y24614D01*
X9546Y24597D01*
X9495Y24587D01*
X9443Y24583D01*
X7875D01*
Y23016D01*
X7872Y22964D01*
X7861Y22912D01*
X7845Y22862D01*
X7833Y22839D01*
X7821Y22815D01*
X7792Y22772D01*
X7758Y22732D01*
X7758D01*
Y22732D01*
X7718Y22698D01*
X7675Y22669D01*
X7651Y22657D01*
X7627Y22646D01*
X7578Y22629D01*
X7526Y22618D01*
X7474Y22615D01*
X3931Y22615D01*
D01*
X3931D01*
X3878Y22618D01*
X3827Y22629D01*
X3777Y22645D01*
X3754Y22657D01*
X3730Y22669D01*
X3687Y22698D01*
X3647Y22732D01*
Y22732D01*
X3647D01*
X3613Y22772D01*
X3584Y22815D01*
X3572Y22839D01*
X3560Y22862D01*
X3543Y22912D01*
X3533Y22963D01*
X3530Y23016D01*
D01*
Y23016D01*
Y24583D01*
X1962D01*
X1910Y24587D01*
X1858Y24597D01*
X1809Y24614D01*
X1762Y24637D01*
X1718Y24666D01*
X1679Y24701D01*
X1644Y24740D01*
X1615Y24784D01*
X1592Y24831D01*
X1575Y24881D01*
X1565Y24932D01*
X1561Y24984D01*
Y30102D01*
X1565Y30155D01*
X1575Y30206D01*
X1592Y30256D01*
X1615Y30303D01*
X1644Y30346D01*
X1679Y30386D01*
X1718Y30420D01*
X1762Y30450D01*
X1809Y30473D01*
X1858Y30490D01*
X1910Y30500D01*
X1962Y30503D01*
X9443D01*
X9495Y30500D01*
D02*
G37*
G36*
X7526Y55697D02*
X7578Y55686D01*
X7627Y55670D01*
X7651Y55658D01*
X7674Y55646D01*
X7718Y55617D01*
X7757Y55583D01*
Y55583D01*
X7757D01*
X7792Y55543D01*
X7821Y55500D01*
X7833Y55476D01*
X7844Y55453D01*
X7861Y55403D01*
X7871Y55352D01*
X7875Y55299D01*
D01*
Y55299D01*
Y53732D01*
X9443D01*
X9495Y53728D01*
X9546Y53718D01*
X9596Y53701D01*
X9643Y53678D01*
X9686Y53649D01*
X9726Y53614D01*
X9760Y53575D01*
X9790Y53531D01*
X9813Y53484D01*
X9830Y53434D01*
X9840Y53383D01*
X9843Y53331D01*
Y48213D01*
X9840Y48160D01*
X9830Y48109D01*
X9813Y48059D01*
X9790Y48012D01*
X9760Y47969D01*
X9726Y47929D01*
X9686Y47895D01*
X9643Y47866D01*
X9596Y47842D01*
X9546Y47825D01*
X9495Y47815D01*
X9443Y47812D01*
X1962D01*
X1910Y47815D01*
X1858Y47825D01*
X1809Y47842D01*
X1762Y47866D01*
X1718Y47895D01*
X1679Y47929D01*
X1644Y47969D01*
X1615Y48012D01*
X1592Y48059D01*
X1575Y48109D01*
X1565Y48160D01*
X1561Y48213D01*
Y53331D01*
X1565Y53383D01*
X1575Y53434D01*
X1592Y53484D01*
X1615Y53531D01*
X1644Y53575D01*
X1679Y53614D01*
X1718Y53649D01*
X1762Y53678D01*
X1809Y53701D01*
X1858Y53718D01*
X1910Y53728D01*
X1962Y53732D01*
X3530D01*
Y55299D01*
X3533Y55352D01*
X3543Y55403D01*
X3560Y55453D01*
X3572Y55476D01*
X3583Y55500D01*
X3613Y55543D01*
X3647Y55583D01*
X3647D01*
Y55583D01*
X3687Y55617D01*
X3730Y55646D01*
X3754Y55658D01*
X3777Y55669D01*
X3827Y55686D01*
X3878Y55697D01*
X3931Y55700D01*
X7474Y55700D01*
D01*
X7474D01*
X7526Y55697D01*
D02*
G37*
D19*
X8458Y53331D02*
G03*
X6513Y53117I-984J0D01*
G01*
X8458Y53331D02*
G03*
X6513Y53117I-984J0D01*
G01*
Y53117D02*
G03*
X8458Y53331I961J213D01*
G01*
X6513Y53117D02*
G03*
X6729Y52688I961J213D01*
G01*
D02*
G03*
X8458Y53331I745J643D01*
G01*
X4915D02*
G03*
X4915Y53331I-984J0D01*
G01*
X4915Y24984D02*
G03*
X4915Y24984I-984J0D01*
G01*
X8458D02*
G03*
X8458Y24984I-984J0D01*
G01*
D20*
X262043Y186874D02*
D03*
Y188843D02*
D03*
Y190811D02*
D03*
Y192780D02*
D03*
X254957D02*
D03*
Y190811D02*
D03*
Y188843D02*
D03*
Y186874D02*
D03*
D21*
X258500Y189827D02*
D03*
D22*
X152500Y176472D02*
D03*
Y185528D02*
D03*
D23*
X22319Y160967D02*
D03*
D24*
X48500Y151911D02*
D03*
Y170022D02*
D03*
D25*
X133744Y166500D02*
D03*
X139256D02*
D03*
X96744Y182700D02*
D03*
X102256D02*
D03*
X86756Y152000D02*
D03*
X81244D02*
D03*
X164412Y179000D02*
D03*
X158900D02*
D03*
X67997Y64500D02*
D03*
X62485D02*
D03*
X50756Y3000D02*
D03*
X45244D02*
D03*
D26*
X166500Y195958D02*
D03*
Y190052D02*
D03*
X158900Y195958D02*
D03*
Y190052D02*
D03*
X58698Y10555D02*
D03*
Y17445D02*
D03*
X24500Y57217D02*
D03*
Y64106D02*
D03*
D27*
X87740Y158856D02*
D03*
X81835D02*
D03*
X95314Y40300D02*
D03*
X102204D02*
D03*
X95314Y32300D02*
D03*
X102204D02*
D03*
X177686Y32700D02*
D03*
X170796D02*
D03*
X177686Y40700D02*
D03*
X170796D02*
D03*
X177686Y48700D02*
D03*
X170796D02*
D03*
X27945Y3000D02*
D03*
X21055D02*
D03*
X51293Y17000D02*
D03*
X45387D02*
D03*
X51293Y9500D02*
D03*
X45387D02*
D03*
D28*
X139453Y182724D02*
D03*
X133823D02*
D03*
X139453Y178276D02*
D03*
X133823D02*
D03*
D29*
X147000Y183787D02*
D03*
Y178276D02*
D03*
X94000Y169244D02*
D03*
Y174756D02*
D03*
X176000Y178244D02*
D03*
Y183756D02*
D03*
X102500Y190244D02*
D03*
Y195756D02*
D03*
X250500Y194354D02*
D03*
X76059Y30627D02*
D03*
Y36139D02*
D03*
X81500Y30627D02*
D03*
Y36139D02*
D03*
D30*
X167500Y169500D02*
D03*
X109000Y172756D02*
D03*
D31*
X176100Y173400D02*
D03*
Y171450D02*
D03*
Y169500D02*
D03*
Y167550D02*
D03*
Y165600D02*
D03*
X158900D02*
D03*
Y167550D02*
D03*
Y169500D02*
D03*
Y171450D02*
D03*
Y173400D02*
D03*
X100400Y176656D02*
D03*
Y174706D02*
D03*
Y172756D02*
D03*
Y170806D02*
D03*
Y168856D02*
D03*
X117600D02*
D03*
Y170806D02*
D03*
Y172756D02*
D03*
Y174706D02*
D03*
Y176656D02*
D03*
D32*
X124000Y195958D02*
D03*
Y190052D02*
D03*
X152500Y165545D02*
D03*
Y171450D02*
D03*
X262000Y197087D02*
D03*
Y202598D02*
D03*
D33*
X83047Y169500D02*
D03*
X88953D02*
D03*
X133547Y172539D02*
D03*
X139453D02*
D03*
X255953Y200343D02*
D03*
X250047D02*
D03*
X11047Y64500D02*
D03*
X16953D02*
D03*
X39547Y64500D02*
D03*
X45453D02*
D03*
D34*
X67200Y148656D02*
D03*
X59800D02*
D03*
Y158856D02*
D03*
X63500D02*
D03*
X67200D02*
D03*
D35*
X83100Y175300D02*
D03*
Y179000D02*
D03*
Y182700D02*
D03*
X72900D02*
D03*
Y175300D02*
D03*
X93300Y195700D02*
D03*
Y188300D02*
D03*
X83100D02*
D03*
Y192000D02*
D03*
Y195700D02*
D03*
D36*
X182300Y193000D02*
D03*
D37*
X173700Y189300D02*
D03*
Y196700D02*
D03*
D38*
X219500Y183036D02*
D03*
Y194650D02*
D03*
X232996Y16807D02*
D03*
Y5193D02*
D03*
D39*
X225504Y188843D02*
D03*
X239000Y11000D02*
D03*
D40*
X250500Y188843D02*
D03*
D41*
X240039D02*
D03*
X244961D02*
D03*
D42*
X25890Y12500D02*
D03*
X12110D02*
D03*
D43*
X155308Y9814D02*
D03*
D44*
X110741Y10700D02*
D03*
D45*
X142217Y51940D02*
D03*
X118713D02*
D03*
D46*
X155997Y48102D02*
D03*
Y33535D02*
D03*
D47*
X145623Y9322D02*
D03*
X136961D02*
D03*
X132631D02*
D03*
X128300D02*
D03*
X123969D02*
D03*
X119639D02*
D03*
D48*
X141292D02*
D03*
D49*
X115505D02*
D03*
D50*
X66375Y52086D02*
D03*
X63816D02*
D03*
X61257D02*
D03*
X58698D02*
D03*
X56139D02*
D03*
X53580D02*
D03*
X51020D02*
D03*
X48461D02*
D03*
X45902D02*
D03*
X43343D02*
D03*
X40784D02*
D03*
X38225D02*
D03*
X35666D02*
D03*
X33107D02*
D03*
X66375Y25314D02*
D03*
X63816D02*
D03*
X61257D02*
D03*
X58698D02*
D03*
X56139D02*
D03*
X53580D02*
D03*
X51020D02*
D03*
X48461D02*
D03*
X45902D02*
D03*
X43343D02*
D03*
X40784D02*
D03*
X38225D02*
D03*
X35666D02*
D03*
X33107D02*
D03*
D51*
X16332Y44276D02*
D03*
Y41717D02*
D03*
Y39157D02*
D03*
Y36598D02*
D03*
Y34039D02*
D03*
D52*
X5702Y43095D02*
D03*
Y35220D02*
D03*
D53*
X26842Y178870D02*
D03*
D54*
X17000Y189500D02*
D03*
D55*
X36685D02*
D03*
D56*
X272000Y178843D02*
D03*
X292000D02*
D03*
Y198843D02*
D03*
X272000D02*
D03*
Y21000D02*
D03*
X292000D02*
D03*
Y1000D02*
D03*
X272000D02*
D03*
D57*
X282000Y188843D02*
D03*
Y11000D02*
D03*
D58*
X168500Y156500D02*
D03*
X163500D02*
D03*
X158500D02*
D03*
X153500D02*
D03*
X148500D02*
D03*
X143500D02*
D03*
X138500D02*
D03*
X133500D02*
D03*
X128500D02*
D03*
X123500D02*
D03*
X118500D02*
D03*
X113500D02*
D03*
X190500Y63500D02*
D03*
Y68500D02*
D03*
Y73500D02*
D03*
Y78500D02*
D03*
Y83500D02*
D03*
Y88500D02*
D03*
Y93500D02*
D03*
Y98500D02*
D03*
Y103500D02*
D03*
Y108500D02*
D03*
Y113500D02*
D03*
Y118500D02*
D03*
Y123500D02*
D03*
Y128500D02*
D03*
Y133500D02*
D03*
X97500Y71000D02*
D03*
Y76000D02*
D03*
Y81000D02*
D03*
Y86000D02*
D03*
Y91000D02*
D03*
Y96000D02*
D03*
Y101000D02*
D03*
Y106000D02*
D03*
Y111000D02*
D03*
Y116000D02*
D03*
Y121000D02*
D03*
Y126000D02*
D03*
Y131000D02*
D03*
Y136000D02*
D03*
Y141000D02*
D03*
Y146000D02*
D03*
X152500Y63500D02*
D03*
X147500D02*
D03*
X162500D02*
D03*
X157500D02*
D03*
X142500D02*
D03*
X137500D02*
D03*
X132500D02*
D03*
X127500D02*
D03*
X122500D02*
D03*
X117500D02*
D03*
X112500D02*
D03*
X107500D02*
D03*
X102500D02*
D03*
X97500D02*
D03*
D59*
X16332Y29315D02*
D03*
Y49000D02*
D03*
D60*
X68300Y123100D02*
D03*
D61*
X78300Y118100D02*
D03*
X68300Y113100D02*
D03*
X78300Y108100D02*
D03*
X68300Y103100D02*
D03*
X78300Y98100D02*
D03*
X68300Y93100D02*
D03*
X78300Y88100D02*
D03*
D62*
X55300Y74600D02*
D03*
Y136600D02*
D03*
D63*
X24000Y130500D02*
D03*
Y90600D02*
D03*
X30000Y120500D02*
D03*
Y80600D02*
D03*
D64*
X43300Y83100D02*
D03*
Y128100D02*
D03*
D65*
X58500Y216843D02*
D03*
Y176000D02*
D03*
X3305D02*
D03*
Y216843D02*
D03*
X46000Y38000D02*
D03*
X40784Y43000D02*
D03*
X59000D02*
D03*
X63000Y38000D02*
D03*
X17500Y58500D02*
D03*
X108500Y190249D02*
D03*
X123000Y45000D02*
D03*
X182500Y163500D02*
D03*
Y169500D02*
D03*
X23461Y34039D02*
D03*
X51000Y59000D02*
D03*
X146000Y165600D02*
D03*
X152042Y195958D02*
D03*
X182000Y182500D02*
D03*
X128500Y182724D02*
D03*
X112500Y21000D02*
D03*
X124000Y3500D02*
D03*
X288500Y-17000D02*
D03*
X281500D02*
D03*
X274500D02*
D03*
X267500D02*
D03*
X246500D02*
D03*
X253500D02*
D03*
X260500D02*
D03*
X211500D02*
D03*
X204500D02*
D03*
X218500D02*
D03*
X225500D02*
D03*
X232500D02*
D03*
X239500D02*
D03*
Y39000D02*
D03*
X232500D02*
D03*
X225500D02*
D03*
X218500D02*
D03*
X211500D02*
D03*
X260500D02*
D03*
X253500D02*
D03*
X246500D02*
D03*
X267500D02*
D03*
X274500D02*
D03*
X281500D02*
D03*
X288500D02*
D03*
X204500Y32000D02*
D03*
Y-3000D02*
D03*
Y-10000D02*
D03*
Y4000D02*
D03*
Y11000D02*
D03*
Y18000D02*
D03*
Y25000D02*
D03*
Y39000D02*
D03*
X295500Y-17000D02*
D03*
Y-10000D02*
D03*
Y32000D02*
D03*
Y39000D02*
D03*
Y216843D02*
D03*
Y209843D02*
D03*
Y167843D02*
D03*
Y160843D02*
D03*
X145500Y46000D02*
D03*
X160000Y19500D02*
D03*
X57242Y4500D02*
D03*
X204500Y216843D02*
D03*
Y202843D02*
D03*
Y195843D02*
D03*
Y188843D02*
D03*
Y181843D02*
D03*
Y167843D02*
D03*
Y174843D02*
D03*
Y209843D02*
D03*
X288500Y216843D02*
D03*
X281500D02*
D03*
X274500D02*
D03*
X267500D02*
D03*
X246500D02*
D03*
X253500D02*
D03*
X260500D02*
D03*
X211500D02*
D03*
X218500D02*
D03*
X225500D02*
D03*
X232500D02*
D03*
X239500D02*
D03*
Y160843D02*
D03*
X232500D02*
D03*
X225500D02*
D03*
X218500D02*
D03*
X204500D02*
D03*
X211500D02*
D03*
X260500D02*
D03*
X253500D02*
D03*
X246500D02*
D03*
X267500D02*
D03*
X274500D02*
D03*
X281500D02*
D03*
X288500D02*
D03*
M02*
