G04*
G04 #@! TF.GenerationSoftware,Altium Limited,Altium Designer,18.0.12 (696)*
G04*
G04 Layer_Color=128*
%FSLAX25Y25*%
%MOIN*%
G70*
G01*
G75*
%ADD116C,0.00200*%
D116*
X25268Y178870D02*
X28417D01*
X26842Y177295D02*
Y180445D01*
X15425Y189500D02*
X18575D01*
X17000Y187925D02*
Y191075D01*
X33732Y189500D02*
X39638D01*
X36685Y186547D02*
Y192453D01*
X268850Y178843D02*
X275150D01*
X272000Y175693D02*
Y181992D01*
X279047Y188843D02*
X284953D01*
X282000Y185890D02*
Y191795D01*
X288850Y178843D02*
X295150D01*
X292000Y175693D02*
Y181992D01*
X288850Y198843D02*
X295150D01*
X292000Y195693D02*
Y201992D01*
X268850Y198843D02*
X275150D01*
X272000Y195693D02*
Y201992D01*
X268850Y21000D02*
X275150D01*
X272000Y17850D02*
Y24150D01*
X288850Y21000D02*
X295150D01*
X292000Y17850D02*
Y24150D01*
X288850Y1000D02*
X295150D01*
X292000Y-2150D02*
Y4150D01*
X279047Y11000D02*
X284953D01*
X282000Y8047D02*
Y13953D01*
X268850Y1000D02*
X275150D01*
X272000Y-2150D02*
Y4150D01*
X167300Y156500D02*
X169700D01*
X168500Y155300D02*
Y157700D01*
X162300Y156500D02*
X164700D01*
X163500Y155300D02*
Y157700D01*
X157300Y156500D02*
X159700D01*
X158500Y155300D02*
Y157700D01*
X152300Y156500D02*
X154700D01*
X153500Y155300D02*
Y157700D01*
X147300Y156500D02*
X149700D01*
X148500Y155300D02*
Y157700D01*
X142300Y156500D02*
X144700D01*
X143500Y155300D02*
Y157700D01*
X137300Y156500D02*
X139700D01*
X138500Y155300D02*
Y157700D01*
X132300Y156500D02*
X134700D01*
X133500Y155300D02*
Y157700D01*
X127300Y156500D02*
X129700D01*
X128500Y155300D02*
Y157700D01*
X122300Y156500D02*
X124700D01*
X123500Y155300D02*
Y157700D01*
X117300Y156500D02*
X119700D01*
X118500Y155300D02*
Y157700D01*
X112300Y156500D02*
X114700D01*
X113500Y155300D02*
Y157700D01*
X189300Y63500D02*
X191700D01*
X190500Y62300D02*
Y64700D01*
X189300Y68500D02*
X191700D01*
X190500Y67300D02*
Y69700D01*
X189300Y73500D02*
X191700D01*
X190500Y72300D02*
Y74700D01*
X189300Y78500D02*
X191700D01*
X190500Y77300D02*
Y79700D01*
X189300Y83500D02*
X191700D01*
X190500Y82300D02*
Y84700D01*
X189300Y88500D02*
X191700D01*
X190500Y87300D02*
Y89700D01*
X189300Y93500D02*
X191700D01*
X190500Y92300D02*
Y94700D01*
X189300Y98500D02*
X191700D01*
X190500Y97300D02*
Y99700D01*
X189300Y103500D02*
X191700D01*
X190500Y102300D02*
Y104700D01*
X189300Y108500D02*
X191700D01*
X190500Y107300D02*
Y109700D01*
X189300Y113500D02*
X191700D01*
X190500Y112300D02*
Y114700D01*
X189300Y118500D02*
X191700D01*
X190500Y117300D02*
Y119700D01*
X189300Y123500D02*
X191700D01*
X190500Y122300D02*
Y124700D01*
X189300Y128500D02*
X191700D01*
X190500Y127300D02*
Y129700D01*
X189300Y133500D02*
X191700D01*
X190500Y132300D02*
Y134700D01*
X96300Y71000D02*
X98700D01*
X97500Y69800D02*
Y72200D01*
X96300Y76000D02*
X98700D01*
X97500Y74800D02*
Y77200D01*
X96300Y81000D02*
X98700D01*
X97500Y79800D02*
Y82200D01*
X96300Y86000D02*
X98700D01*
X97500Y84800D02*
Y87200D01*
X96300Y91000D02*
X98700D01*
X97500Y89800D02*
Y92200D01*
X96300Y96000D02*
X98700D01*
X97500Y94800D02*
Y97200D01*
X96300Y101000D02*
X98700D01*
X97500Y99800D02*
Y102200D01*
X96300Y106000D02*
X98700D01*
X97500Y104800D02*
Y107200D01*
X96300Y111000D02*
X98700D01*
X97500Y109800D02*
Y112200D01*
X96300Y116000D02*
X98700D01*
X97500Y114800D02*
Y117200D01*
X96300Y121000D02*
X98700D01*
X97500Y119800D02*
Y122200D01*
X96300Y126000D02*
X98700D01*
X97500Y124800D02*
Y127200D01*
X96300Y131000D02*
X98700D01*
X97500Y129800D02*
Y132200D01*
X96300Y136000D02*
X98700D01*
X97500Y134800D02*
Y137200D01*
X96300Y141000D02*
X98700D01*
X97500Y139800D02*
Y142200D01*
X96300Y146000D02*
X98700D01*
X97500Y144800D02*
Y147200D01*
X151300Y63500D02*
X153700D01*
X152500Y62300D02*
Y64700D01*
X146300Y63500D02*
X148700D01*
X147500Y62300D02*
Y64700D01*
X161300Y63500D02*
X163700D01*
X162500Y62300D02*
Y64700D01*
X156300Y63500D02*
X158700D01*
X157500Y62300D02*
Y64700D01*
X141300Y63500D02*
X143700D01*
X142500Y62300D02*
Y64700D01*
X136300Y63500D02*
X138700D01*
X137500Y62300D02*
Y64700D01*
X131300Y63500D02*
X133700D01*
X132500Y62300D02*
Y64700D01*
X126300Y63500D02*
X128700D01*
X127500Y62300D02*
Y64700D01*
X121300Y63500D02*
X123700D01*
X122500Y62300D02*
Y64700D01*
X116300Y63500D02*
X118700D01*
X117500Y62300D02*
Y64700D01*
X111300Y63500D02*
X113700D01*
X112500Y62300D02*
Y64700D01*
X106300Y63500D02*
X108700D01*
X107500Y62300D02*
Y64700D01*
X101300Y63500D02*
X103700D01*
X102500Y62300D02*
Y64700D01*
X96300Y63500D02*
X98700D01*
X97500Y62300D02*
Y64700D01*
X14659Y29315D02*
X18005D01*
X16332Y27642D02*
Y30988D01*
X14659Y49000D02*
X18005D01*
X16332Y47327D02*
Y50673D01*
X4521Y25378D02*
X6883D01*
X5702Y24197D02*
Y26559D01*
X4521Y52937D02*
X6883D01*
X5702Y51756D02*
Y54118D01*
X66500Y123100D02*
X70100D01*
X68300Y121300D02*
Y124900D01*
X76500Y118100D02*
X80100D01*
X78300Y116300D02*
Y119900D01*
X66500Y113100D02*
X70100D01*
X68300Y111300D02*
Y114900D01*
X76500Y108100D02*
X80100D01*
X78300Y106300D02*
Y109900D01*
X66500Y103100D02*
X70100D01*
X68300Y101300D02*
Y104900D01*
X76500Y98100D02*
X80100D01*
X78300Y96300D02*
Y99900D01*
X66500Y93100D02*
X70100D01*
X68300Y91300D02*
Y94900D01*
X76500Y88100D02*
X80100D01*
X78300Y86300D02*
Y89900D01*
X52100Y74600D02*
X58500D01*
X55300Y71400D02*
Y77800D01*
X52100Y136600D02*
X58500D01*
X55300Y133400D02*
Y139800D01*
X22000Y130500D02*
X26000D01*
X24000Y128500D02*
Y132500D01*
X22000Y90600D02*
X26000D01*
X24000Y88600D02*
Y92600D01*
X28000Y120500D02*
X32000D01*
X30000Y118500D02*
Y122500D01*
X28000Y80600D02*
X32000D01*
X30000Y78600D02*
Y82600D01*
X36900Y83100D02*
X49700D01*
X43300Y76700D02*
Y89500D01*
X36900Y128100D02*
X49700D01*
X43300Y121700D02*
Y134500D01*
X57910Y216843D02*
X59091D01*
X58500Y216252D02*
Y217433D01*
X57910Y176000D02*
X59091D01*
X58500Y175409D02*
Y176591D01*
X2715Y176000D02*
X3896D01*
X3305Y175409D02*
Y176591D01*
X2715Y216843D02*
X3896D01*
X3305Y216252D02*
Y217433D01*
X45409Y38000D02*
X46591D01*
X46000Y37409D02*
Y38591D01*
X40194Y43000D02*
X41375D01*
X40784Y42409D02*
Y43591D01*
X58410Y43000D02*
X59591D01*
X59000Y42409D02*
Y43591D01*
X62410Y38000D02*
X63591D01*
X63000Y37409D02*
Y38591D01*
X16909Y58500D02*
X18090D01*
X17500Y57910D02*
Y59091D01*
X107910Y190249D02*
X109091D01*
X108500Y189658D02*
Y190840D01*
X122409Y45000D02*
X123591D01*
X123000Y44409D02*
Y45591D01*
X181909Y163500D02*
X183091D01*
X182500Y162909D02*
Y164091D01*
X181909Y169500D02*
X183091D01*
X182500Y168909D02*
Y170091D01*
X22870Y34039D02*
X24051D01*
X23461Y33449D02*
Y34630D01*
X50409Y59000D02*
X51591D01*
X51000Y58410D02*
Y59591D01*
X145409Y165600D02*
X146591D01*
X146000Y165009D02*
Y166191D01*
X151452Y195958D02*
X152633D01*
X152042Y195367D02*
Y196548D01*
X181409Y182500D02*
X182591D01*
X182000Y181909D02*
Y183091D01*
X127909Y182724D02*
X129091D01*
X128500Y182134D02*
Y183315D01*
X111909Y21000D02*
X113091D01*
X112500Y20410D02*
Y21590D01*
X123409Y3500D02*
X124591D01*
X124000Y2909D02*
Y4091D01*
X287910Y-17000D02*
X289090D01*
X288500Y-17591D02*
Y-16409D01*
X280909Y-17000D02*
X282090D01*
X281500Y-17591D02*
Y-16409D01*
X273909Y-17000D02*
X275091D01*
X274500Y-17591D02*
Y-16409D01*
X266910Y-17000D02*
X268091D01*
X267500Y-17591D02*
Y-16409D01*
X245910Y-17000D02*
X247091D01*
X246500Y-17591D02*
Y-16409D01*
X252909Y-17000D02*
X254090D01*
X253500Y-17591D02*
Y-16409D01*
X259910Y-17000D02*
X261090D01*
X260500Y-17591D02*
Y-16409D01*
X210910Y-17000D02*
X212090D01*
X211500Y-17591D02*
Y-16409D01*
X203909Y-17000D02*
X205090D01*
X204500Y-17591D02*
Y-16409D01*
X217910Y-17000D02*
X219091D01*
X218500Y-17591D02*
Y-16409D01*
X224909Y-17000D02*
X226091D01*
X225500Y-17591D02*
Y-16409D01*
X231909Y-17000D02*
X233090D01*
X232500Y-17591D02*
Y-16409D01*
X238910Y-17000D02*
X240090D01*
X239500Y-17591D02*
Y-16409D01*
X238910Y39000D02*
X240090D01*
X239500Y38409D02*
Y39591D01*
X231909Y39000D02*
X233090D01*
X232500Y38409D02*
Y39591D01*
X224909Y39000D02*
X226091D01*
X225500Y38409D02*
Y39591D01*
X217910Y39000D02*
X219091D01*
X218500Y38409D02*
Y39591D01*
X210910Y39000D02*
X212090D01*
X211500Y38409D02*
Y39591D01*
X259910Y39000D02*
X261090D01*
X260500Y38409D02*
Y39591D01*
X252909Y39000D02*
X254090D01*
X253500Y38409D02*
Y39591D01*
X245910Y39000D02*
X247091D01*
X246500Y38409D02*
Y39591D01*
X266910Y39000D02*
X268091D01*
X267500Y38409D02*
Y39591D01*
X273909Y39000D02*
X275091D01*
X274500Y38409D02*
Y39591D01*
X280909Y39000D02*
X282090D01*
X281500Y38409D02*
Y39591D01*
X287910Y39000D02*
X289090D01*
X288500Y38409D02*
Y39591D01*
X203909Y32000D02*
X205090D01*
X204500Y31409D02*
Y32591D01*
X203909Y-3000D02*
X205090D01*
X204500Y-3591D02*
Y-2410D01*
X203909Y-10000D02*
X205090D01*
X204500Y-10591D02*
Y-9409D01*
X203909Y4000D02*
X205090D01*
X204500Y3409D02*
Y4591D01*
X203909Y11000D02*
X205090D01*
X204500Y10409D02*
Y11591D01*
X203909Y18000D02*
X205090D01*
X204500Y17410D02*
Y18590D01*
X203909Y25000D02*
X205090D01*
X204500Y24409D02*
Y25591D01*
X203909Y39000D02*
X205090D01*
X204500Y38409D02*
Y39591D01*
X294910Y-17000D02*
X296091D01*
X295500Y-17591D02*
Y-16409D01*
X294910Y-10000D02*
X296091D01*
X295500Y-10591D02*
Y-9409D01*
X294910Y32000D02*
X296091D01*
X295500Y31409D02*
Y32591D01*
X294910Y39000D02*
X296091D01*
X295500Y38409D02*
Y39591D01*
X294910Y216843D02*
X296091D01*
X295500Y216252D02*
Y217433D01*
X294910Y209843D02*
X296091D01*
X295500Y209252D02*
Y210433D01*
X294910Y167843D02*
X296091D01*
X295500Y167252D02*
Y168433D01*
X294910Y160843D02*
X296091D01*
X295500Y160252D02*
Y161433D01*
X144909Y46000D02*
X146091D01*
X145500Y45409D02*
Y46591D01*
X159409Y19500D02*
X160591D01*
X160000Y18910D02*
Y20090D01*
X56651Y4500D02*
X57832D01*
X57242Y3909D02*
Y5091D01*
X203909Y216843D02*
X205090D01*
X204500Y216252D02*
Y217433D01*
X203909Y202843D02*
X205090D01*
X204500Y202252D02*
Y203433D01*
X203909Y195843D02*
X205090D01*
X204500Y195252D02*
Y196433D01*
X203909Y188843D02*
X205090D01*
X204500Y188252D02*
Y189433D01*
X203909Y181843D02*
X205090D01*
X204500Y181252D02*
Y182433D01*
X203909Y167843D02*
X205090D01*
X204500Y167252D02*
Y168433D01*
X203909Y174843D02*
X205090D01*
X204500Y174252D02*
Y175433D01*
X203909Y209843D02*
X205090D01*
X204500Y209252D02*
Y210433D01*
X287910Y216843D02*
X289090D01*
X288500Y216252D02*
Y217433D01*
X280909Y216843D02*
X282090D01*
X281500Y216252D02*
Y217433D01*
X273909Y216843D02*
X275091D01*
X274500Y216252D02*
Y217433D01*
X266910Y216843D02*
X268091D01*
X267500Y216252D02*
Y217433D01*
X245910Y216843D02*
X247091D01*
X246500Y216252D02*
Y217433D01*
X252909Y216843D02*
X254090D01*
X253500Y216252D02*
Y217433D01*
X259910Y216843D02*
X261090D01*
X260500Y216252D02*
Y217433D01*
X210910Y216843D02*
X212090D01*
X211500Y216252D02*
Y217433D01*
X217910Y216843D02*
X219091D01*
X218500Y216252D02*
Y217433D01*
X224909Y216843D02*
X226091D01*
X225500Y216252D02*
Y217433D01*
X231909Y216843D02*
X233090D01*
X232500Y216252D02*
Y217433D01*
X238910Y216843D02*
X240090D01*
X239500Y216252D02*
Y217433D01*
X238910Y160843D02*
X240090D01*
X239500Y160252D02*
Y161433D01*
X231909Y160843D02*
X233090D01*
X232500Y160252D02*
Y161433D01*
X224909Y160843D02*
X226091D01*
X225500Y160252D02*
Y161433D01*
X217910Y160843D02*
X219091D01*
X218500Y160252D02*
Y161433D01*
X203909Y160843D02*
X205090D01*
X204500Y160252D02*
Y161433D01*
X210910Y160843D02*
X212090D01*
X211500Y160252D02*
Y161433D01*
X259910Y160843D02*
X261090D01*
X260500Y160252D02*
Y161433D01*
X252909Y160843D02*
X254090D01*
X253500Y160252D02*
Y161433D01*
X245910Y160843D02*
X247091D01*
X246500Y160252D02*
Y161433D01*
X266910Y160843D02*
X268091D01*
X267500Y160252D02*
Y161433D01*
X273909Y160843D02*
X275091D01*
X274500Y160252D02*
Y161433D01*
X280909Y160843D02*
X282090D01*
X281500Y160252D02*
Y161433D01*
X287910Y160843D02*
X289090D01*
X288500Y160252D02*
Y161433D01*
M02*
