M48
;Layer_Color=9474304
;FILE_FORMAT=2:5
INCH,LZ
;TYPE=PLATED
T1F00S00C0.01181
T3F00S00C0.02400
T5F00S00C0.03346
T6F00S00C0.03600
T7F00S00C0.04000
T8F00S00C0.05906
T9F00S00C0.06299
T10F00S00C0.06400
;TYPE=NON_PLATED
T11F00S00C0.12800
%
T01
X0023461Y0034039
X0040784Y0043
X0046Y0038
X0063
X0059Y0043
X0057242Y00045
X0124Y00035
X01125Y0021
X0123Y0045
X01455Y0046
X016Y00195
X02045Y0018
Y0011
Y0004
Y-0003
Y-001
Y-0017
X02115
X02045Y0025
Y0032
Y0039
X02115
X02185
X02255
X02325
X02395
X02465
X02535
X02605
X02675
X02745
X02815
X02885
X02955
Y0032
Y-001
Y-0017
X02885
X02815
X02745
X02675
X02605
X02535
X02465
X02395
X02325
X02255
X02185
Y0160843
X02255
X02325
X02395
X02465
X02535
X02605
X02675
X02745
X02815
X02885
X02955
Y0167843
Y0209843
X02045
Y0202843
Y0195843
Y0188843
Y0181843
Y0174843
Y0167843
Y0160843
X02115
X01825Y01635
Y01695
X0182Y01825
X0152042Y0195958
X0146Y01656
X01285Y0182724
X01085Y0190249
X00585Y0176
X0003305
X00175Y00585
X0051Y0059
X0003305Y0216843
X00585
X02045
X02115
X02185
X02255
X02325
X02395
X02465
X02535
X02605
X02675
X02745
X02815
X02885
X02955
T03
X00975Y00635
X01025
X01075
X01125
X01175
X01225
X01275
X01325
X01375
X01425
X01475
X01525
X01575
X01625
X01905
Y00685
Y00735
Y00785
Y00835
Y00885
Y00935
Y00985
Y01035
Y01085
Y01135
Y01185
Y01235
Y01285
Y01335
X01685Y01565
X01635
X01585
X01535
X01485
X01435
X01385
X01335
X01285
X01235
X01185
X01135
X00975Y0146
Y0141
Y0136
Y0131
Y0126
Y0121
Y0116
Y0111
Y0106
Y0101
Y0096
Y0091
Y0086
Y0081
Y0076
Y0071
T05
X0016332Y0029315
Y0049
T06
X00683Y00931
Y01031
Y01131
Y01231
X00783Y01181
Y01081
Y00981
Y00881
T07
X003Y00806
X0024Y00906
X003Y01205
X0024Y01305
T08
X0282Y0011
Y0188843
T09
X0272Y0001
Y0021
X0292
Y0001
Y0178843
X0272
Y0198843
X0292
T10
X00553Y00746
Y01366
T11
X00433Y00831
Y01281
M30
