G04*
G04 #@! TF.GenerationSoftware,Altium Limited,Altium Designer,18.0.12 (696)*
G04*
G04 Layer_Color=2752767*
%FSLAX25Y25*%
%MOIN*%
G70*
G01*
G75*
%ADD18C,0.01000*%
%ADD116C,0.00200*%
%ADD117C,0.00267*%
%ADD118C,0.00133*%
D18*
X240000Y-20000D02*
X300000D01*
D116*
X26043Y178070D02*
Y179670D01*
X27643D01*
Y178070D01*
X26043D01*
X16200Y188700D02*
Y190300D01*
X17800D01*
Y188700D01*
X16200D01*
X272000Y178043D02*
X271200Y179643D01*
X272800D01*
X272000Y178043D01*
X282000Y188043D02*
X282400Y188443D01*
X282800D01*
X282400Y188843D01*
X282800Y189243D01*
X282400D01*
X282000Y189643D01*
X281600Y189243D01*
X281200D01*
X281600Y188843D01*
X281200Y188443D01*
X281600D01*
X282000Y188043D01*
X292000Y178043D02*
X291200Y179643D01*
X292800D01*
X292000Y178043D01*
Y198043D02*
X291200Y199643D01*
X292800D01*
X292000Y198043D01*
X272000D02*
X271200Y199643D01*
X272800D01*
X272000Y198043D01*
Y20200D02*
X271200Y21800D01*
X272800D01*
X272000Y20200D01*
X292000D02*
X291200Y21800D01*
X292800D01*
X292000Y20200D01*
Y200D02*
X291200Y1800D01*
X292800D01*
X292000Y200D01*
X282000Y10200D02*
X282400Y10600D01*
X282800D01*
X282400Y11000D01*
X282800Y11400D01*
X282400D01*
X282000Y11800D01*
X281600Y11400D01*
X281200D01*
X281600Y11000D01*
X281200Y10600D01*
X281600D01*
X282000Y10200D01*
X272000Y200D02*
X271200Y1800D01*
X272800D01*
X272000Y200D01*
X167700Y155700D02*
X168100Y156500D01*
X167700Y157300D01*
X168500Y156900D01*
X169300Y157300D01*
X168900Y156500D01*
X169300Y155700D01*
X168500Y156100D01*
X167700Y155700D01*
X162700D02*
X163100Y156500D01*
X162700Y157300D01*
X163500Y156900D01*
X164300Y157300D01*
X163900Y156500D01*
X164300Y155700D01*
X163500Y156100D01*
X162700Y155700D01*
X157700D02*
X158100Y156500D01*
X157700Y157300D01*
X158500Y156900D01*
X159300Y157300D01*
X158900Y156500D01*
X159300Y155700D01*
X158500Y156100D01*
X157700Y155700D01*
X152700D02*
X153100Y156500D01*
X152700Y157300D01*
X153500Y156900D01*
X154300Y157300D01*
X153900Y156500D01*
X154300Y155700D01*
X153500Y156100D01*
X152700Y155700D01*
X147700D02*
X148100Y156500D01*
X147700Y157300D01*
X148500Y156900D01*
X149300Y157300D01*
X148900Y156500D01*
X149300Y155700D01*
X148500Y156100D01*
X147700Y155700D01*
X142700D02*
X143100Y156500D01*
X142700Y157300D01*
X143500Y156900D01*
X144300Y157300D01*
X143900Y156500D01*
X144300Y155700D01*
X143500Y156100D01*
X142700Y155700D01*
X137700D02*
X138100Y156500D01*
X137700Y157300D01*
X138500Y156900D01*
X139300Y157300D01*
X138900Y156500D01*
X139300Y155700D01*
X138500Y156100D01*
X137700Y155700D01*
X132700D02*
X133100Y156500D01*
X132700Y157300D01*
X133500Y156900D01*
X134300Y157300D01*
X133900Y156500D01*
X134300Y155700D01*
X133500Y156100D01*
X132700Y155700D01*
X127700D02*
X128100Y156500D01*
X127700Y157300D01*
X128500Y156900D01*
X129300Y157300D01*
X128900Y156500D01*
X129300Y155700D01*
X128500Y156100D01*
X127700Y155700D01*
X122700D02*
X123100Y156500D01*
X122700Y157300D01*
X123500Y156900D01*
X124300Y157300D01*
X123900Y156500D01*
X124300Y155700D01*
X123500Y156100D01*
X122700Y155700D01*
X117700D02*
X118100Y156500D01*
X117700Y157300D01*
X118500Y156900D01*
X119300Y157300D01*
X118900Y156500D01*
X119300Y155700D01*
X118500Y156100D01*
X117700Y155700D01*
X112700D02*
X113100Y156500D01*
X112700Y157300D01*
X113500Y156900D01*
X114300Y157300D01*
X113900Y156500D01*
X114300Y155700D01*
X113500Y156100D01*
X112700Y155700D01*
X189700Y62700D02*
X190100Y63500D01*
X189700Y64300D01*
X190500Y63900D01*
X191300Y64300D01*
X190900Y63500D01*
X191300Y62700D01*
X190500Y63100D01*
X189700Y62700D01*
Y67700D02*
X190100Y68500D01*
X189700Y69300D01*
X190500Y68900D01*
X191300Y69300D01*
X190900Y68500D01*
X191300Y67700D01*
X190500Y68100D01*
X189700Y67700D01*
Y72700D02*
X190100Y73500D01*
X189700Y74300D01*
X190500Y73900D01*
X191300Y74300D01*
X190900Y73500D01*
X191300Y72700D01*
X190500Y73100D01*
X189700Y72700D01*
Y77700D02*
X190100Y78500D01*
X189700Y79300D01*
X190500Y78900D01*
X191300Y79300D01*
X190900Y78500D01*
X191300Y77700D01*
X190500Y78100D01*
X189700Y77700D01*
Y82700D02*
X190100Y83500D01*
X189700Y84300D01*
X190500Y83900D01*
X191300Y84300D01*
X190900Y83500D01*
X191300Y82700D01*
X190500Y83100D01*
X189700Y82700D01*
Y87700D02*
X190100Y88500D01*
X189700Y89300D01*
X190500Y88900D01*
X191300Y89300D01*
X190900Y88500D01*
X191300Y87700D01*
X190500Y88100D01*
X189700Y87700D01*
Y92700D02*
X190100Y93500D01*
X189700Y94300D01*
X190500Y93900D01*
X191300Y94300D01*
X190900Y93500D01*
X191300Y92700D01*
X190500Y93100D01*
X189700Y92700D01*
Y97700D02*
X190100Y98500D01*
X189700Y99300D01*
X190500Y98900D01*
X191300Y99300D01*
X190900Y98500D01*
X191300Y97700D01*
X190500Y98100D01*
X189700Y97700D01*
Y102700D02*
X190100Y103500D01*
X189700Y104300D01*
X190500Y103900D01*
X191300Y104300D01*
X190900Y103500D01*
X191300Y102700D01*
X190500Y103100D01*
X189700Y102700D01*
Y107700D02*
X190100Y108500D01*
X189700Y109300D01*
X190500Y108900D01*
X191300Y109300D01*
X190900Y108500D01*
X191300Y107700D01*
X190500Y108100D01*
X189700Y107700D01*
Y112700D02*
X190100Y113500D01*
X189700Y114300D01*
X190500Y113900D01*
X191300Y114300D01*
X190900Y113500D01*
X191300Y112700D01*
X190500Y113100D01*
X189700Y112700D01*
Y117700D02*
X190100Y118500D01*
X189700Y119300D01*
X190500Y118900D01*
X191300Y119300D01*
X190900Y118500D01*
X191300Y117700D01*
X190500Y118100D01*
X189700Y117700D01*
Y122700D02*
X190100Y123500D01*
X189700Y124300D01*
X190500Y123900D01*
X191300Y124300D01*
X190900Y123500D01*
X191300Y122700D01*
X190500Y123100D01*
X189700Y122700D01*
Y127700D02*
X190100Y128500D01*
X189700Y129300D01*
X190500Y128900D01*
X191300Y129300D01*
X190900Y128500D01*
X191300Y127700D01*
X190500Y128100D01*
X189700Y127700D01*
Y132700D02*
X190100Y133500D01*
X189700Y134300D01*
X190500Y133900D01*
X191300Y134300D01*
X190900Y133500D01*
X191300Y132700D01*
X190500Y133100D01*
X189700Y132700D01*
X96700Y70200D02*
X97100Y71000D01*
X96700Y71800D01*
X97500Y71400D01*
X98300Y71800D01*
X97900Y71000D01*
X98300Y70200D01*
X97500Y70600D01*
X96700Y70200D01*
Y75200D02*
X97100Y76000D01*
X96700Y76800D01*
X97500Y76400D01*
X98300Y76800D01*
X97900Y76000D01*
X98300Y75200D01*
X97500Y75600D01*
X96700Y75200D01*
Y80200D02*
X97100Y81000D01*
X96700Y81800D01*
X97500Y81400D01*
X98300Y81800D01*
X97900Y81000D01*
X98300Y80200D01*
X97500Y80600D01*
X96700Y80200D01*
Y85200D02*
X97100Y86000D01*
X96700Y86800D01*
X97500Y86400D01*
X98300Y86800D01*
X97900Y86000D01*
X98300Y85200D01*
X97500Y85600D01*
X96700Y85200D01*
Y90200D02*
X97100Y91000D01*
X96700Y91800D01*
X97500Y91400D01*
X98300Y91800D01*
X97900Y91000D01*
X98300Y90200D01*
X97500Y90600D01*
X96700Y90200D01*
Y95200D02*
X97100Y96000D01*
X96700Y96800D01*
X97500Y96400D01*
X98300Y96800D01*
X97900Y96000D01*
X98300Y95200D01*
X97500Y95600D01*
X96700Y95200D01*
Y100200D02*
X97100Y101000D01*
X96700Y101800D01*
X97500Y101400D01*
X98300Y101800D01*
X97900Y101000D01*
X98300Y100200D01*
X97500Y100600D01*
X96700Y100200D01*
Y105200D02*
X97100Y106000D01*
X96700Y106800D01*
X97500Y106400D01*
X98300Y106800D01*
X97900Y106000D01*
X98300Y105200D01*
X97500Y105600D01*
X96700Y105200D01*
Y110200D02*
X97100Y111000D01*
X96700Y111800D01*
X97500Y111400D01*
X98300Y111800D01*
X97900Y111000D01*
X98300Y110200D01*
X97500Y110600D01*
X96700Y110200D01*
Y115200D02*
X97100Y116000D01*
X96700Y116800D01*
X97500Y116400D01*
X98300Y116800D01*
X97900Y116000D01*
X98300Y115200D01*
X97500Y115600D01*
X96700Y115200D01*
Y120200D02*
X97100Y121000D01*
X96700Y121800D01*
X97500Y121400D01*
X98300Y121800D01*
X97900Y121000D01*
X98300Y120200D01*
X97500Y120600D01*
X96700Y120200D01*
Y125200D02*
X97100Y126000D01*
X96700Y126800D01*
X97500Y126400D01*
X98300Y126800D01*
X97900Y126000D01*
X98300Y125200D01*
X97500Y125600D01*
X96700Y125200D01*
Y130200D02*
X97100Y131000D01*
X96700Y131800D01*
X97500Y131400D01*
X98300Y131800D01*
X97900Y131000D01*
X98300Y130200D01*
X97500Y130600D01*
X96700Y130200D01*
Y135200D02*
X97100Y136000D01*
X96700Y136800D01*
X97500Y136400D01*
X98300Y136800D01*
X97900Y136000D01*
X98300Y135200D01*
X97500Y135600D01*
X96700Y135200D01*
Y140200D02*
X97100Y141000D01*
X96700Y141800D01*
X97500Y141400D01*
X98300Y141800D01*
X97900Y141000D01*
X98300Y140200D01*
X97500Y140600D01*
X96700Y140200D01*
Y145200D02*
X97100Y146000D01*
X96700Y146800D01*
X97500Y146400D01*
X98300Y146800D01*
X97900Y146000D01*
X98300Y145200D01*
X97500Y145600D01*
X96700Y145200D01*
X151700Y62700D02*
X152100Y63500D01*
X151700Y64300D01*
X152500Y63900D01*
X153300Y64300D01*
X152900Y63500D01*
X153300Y62700D01*
X152500Y63100D01*
X151700Y62700D01*
X146700D02*
X147100Y63500D01*
X146700Y64300D01*
X147500Y63900D01*
X148300Y64300D01*
X147900Y63500D01*
X148300Y62700D01*
X147500Y63100D01*
X146700Y62700D01*
X161700D02*
X162100Y63500D01*
X161700Y64300D01*
X162500Y63900D01*
X163300Y64300D01*
X162900Y63500D01*
X163300Y62700D01*
X162500Y63100D01*
X161700Y62700D01*
X156700D02*
X157100Y63500D01*
X156700Y64300D01*
X157500Y63900D01*
X158300Y64300D01*
X157900Y63500D01*
X158300Y62700D01*
X157500Y63100D01*
X156700Y62700D01*
X141700D02*
X142100Y63500D01*
X141700Y64300D01*
X142500Y63900D01*
X143300Y64300D01*
X142900Y63500D01*
X143300Y62700D01*
X142500Y63100D01*
X141700Y62700D01*
X136700D02*
X137100Y63500D01*
X136700Y64300D01*
X137500Y63900D01*
X138300Y64300D01*
X137900Y63500D01*
X138300Y62700D01*
X137500Y63100D01*
X136700Y62700D01*
X131700D02*
X132100Y63500D01*
X131700Y64300D01*
X132500Y63900D01*
X133300Y64300D01*
X132900Y63500D01*
X133300Y62700D01*
X132500Y63100D01*
X131700Y62700D01*
X126700D02*
X127100Y63500D01*
X126700Y64300D01*
X127500Y63900D01*
X128300Y64300D01*
X127900Y63500D01*
X128300Y62700D01*
X127500Y63100D01*
X126700Y62700D01*
X121700D02*
X122100Y63500D01*
X121700Y64300D01*
X122500Y63900D01*
X123300Y64300D01*
X122900Y63500D01*
X123300Y62700D01*
X122500Y63100D01*
X121700Y62700D01*
X116700D02*
X117100Y63500D01*
X116700Y64300D01*
X117500Y63900D01*
X118300Y64300D01*
X117900Y63500D01*
X118300Y62700D01*
X117500Y63100D01*
X116700Y62700D01*
X111700D02*
X112100Y63500D01*
X111700Y64300D01*
X112500Y63900D01*
X113300Y64300D01*
X112900Y63500D01*
X113300Y62700D01*
X112500Y63100D01*
X111700Y62700D01*
X106700D02*
X107100Y63500D01*
X106700Y64300D01*
X107500Y63900D01*
X108300Y64300D01*
X107900Y63500D01*
X108300Y62700D01*
X107500Y63100D01*
X106700Y62700D01*
X101700D02*
X102100Y63500D01*
X101700Y64300D01*
X102500Y63900D01*
X103300Y64300D01*
X102900Y63500D01*
X103300Y62700D01*
X102500Y63100D01*
X101700Y62700D01*
X96700D02*
X97100Y63500D01*
X96700Y64300D01*
X97500Y63900D01*
X98300Y64300D01*
X97900Y63500D01*
X98300Y62700D01*
X97500Y63100D01*
X96700Y62700D01*
X15932Y28915D02*
Y28515D01*
X16732D01*
Y28915D01*
X17132D01*
Y29715D01*
X16732D01*
Y30115D01*
X15932D01*
Y29715D01*
X15532D01*
Y28915D01*
X15932D01*
Y48600D02*
Y48200D01*
X16732D01*
Y48600D01*
X17132D01*
Y49400D01*
X16732D01*
Y49800D01*
X15932D01*
Y49400D01*
X15532D01*
Y48600D01*
X15932D01*
X4902Y24578D02*
X5302D01*
X5702Y24978D01*
X6102Y24578D01*
X6502D01*
Y24978D01*
X6102Y25378D01*
X6502Y25778D01*
Y26178D01*
X6102D01*
X5702Y25778D01*
X5302Y26178D01*
X4902D01*
Y25778D01*
X5302Y25378D01*
X4902Y24978D01*
Y24578D01*
Y52137D02*
X5302D01*
X5702Y52537D01*
X6102Y52137D01*
X6502D01*
Y52537D01*
X6102Y52937D01*
X6502Y53337D01*
Y53737D01*
X6102D01*
X5702Y53337D01*
X5302Y53737D01*
X4902D01*
Y53337D01*
X5302Y52937D01*
X4902Y52537D01*
Y52137D01*
X67500Y123100D02*
X68300Y123900D01*
X69100Y123100D01*
X68300Y122300D01*
X67500Y123100D01*
X77500Y118100D02*
X78300Y118900D01*
X79100Y118100D01*
X78300Y117300D01*
X77500Y118100D01*
X67500Y113100D02*
X68300Y113900D01*
X69100Y113100D01*
X68300Y112300D01*
X67500Y113100D01*
X77500Y108100D02*
X78300Y108900D01*
X79100Y108100D01*
X78300Y107300D01*
X77500Y108100D01*
X67500Y103100D02*
X68300Y103900D01*
X69100Y103100D01*
X68300Y102300D01*
X67500Y103100D01*
X77500Y98100D02*
X78300Y98900D01*
X79100Y98100D01*
X78300Y97300D01*
X77500Y98100D01*
X67500Y93100D02*
X68300Y93900D01*
X69100Y93100D01*
X68300Y92300D01*
X67500Y93100D01*
X77500Y88100D02*
X78300Y88900D01*
X79100Y88100D01*
X78300Y87300D01*
X77500Y88100D01*
X54500Y73800D02*
Y75400D01*
X56100D01*
Y73800D01*
X54500D01*
X54900Y74200D02*
Y75000D01*
X55700D01*
Y74200D01*
X54900D01*
X54500Y135800D02*
Y137400D01*
X56100D01*
Y135800D01*
X54500D01*
X54900Y136200D02*
Y137000D01*
X55700D01*
Y136200D01*
X54900D01*
X43300Y82300D02*
X42500Y83900D01*
X44100D01*
X43300Y82300D01*
Y82700D02*
X42900Y83500D01*
X43700D01*
X43300Y82700D01*
Y127300D02*
X42500Y128900D01*
X44100D01*
X43300Y127300D01*
Y127700D02*
X42900Y128500D01*
X43700D01*
X43300Y127700D01*
X58500Y216043D02*
X58900Y216443D01*
X59300D01*
X58900Y216843D01*
X59300Y217243D01*
X58900D01*
X58500Y217643D01*
X58100Y217243D01*
X57700D01*
X58100Y216843D01*
X57700Y216443D01*
X58100D01*
X58500Y216043D01*
Y216443D02*
X58700Y216643D01*
X58900D01*
X58700Y216843D01*
X58900Y217043D01*
X58700D01*
X58500Y217243D01*
X58300Y217043D01*
X58100D01*
X58300Y216843D01*
X58100Y216643D01*
X58300D01*
X58500Y216443D01*
Y175200D02*
X58900Y175600D01*
X59300D01*
X58900Y176000D01*
X59300Y176400D01*
X58900D01*
X58500Y176800D01*
X58100Y176400D01*
X57700D01*
X58100Y176000D01*
X57700Y175600D01*
X58100D01*
X58500Y175200D01*
Y175600D02*
X58700Y175800D01*
X58900D01*
X58700Y176000D01*
X58900Y176200D01*
X58700D01*
X58500Y176400D01*
X58300Y176200D01*
X58100D01*
X58300Y176000D01*
X58100Y175800D01*
X58300D01*
X58500Y175600D01*
X3305Y175200D02*
X3705Y175600D01*
X4105D01*
X3705Y176000D01*
X4105Y176400D01*
X3705D01*
X3305Y176800D01*
X2905Y176400D01*
X2505D01*
X2905Y176000D01*
X2505Y175600D01*
X2905D01*
X3305Y175200D01*
Y175600D02*
X3505Y175800D01*
X3705D01*
X3505Y176000D01*
X3705Y176200D01*
X3505D01*
X3305Y176400D01*
X3105Y176200D01*
X2905D01*
X3105Y176000D01*
X2905Y175800D01*
X3105D01*
X3305Y175600D01*
Y216043D02*
X3705Y216443D01*
X4105D01*
X3705Y216843D01*
X4105Y217243D01*
X3705D01*
X3305Y217643D01*
X2905Y217243D01*
X2505D01*
X2905Y216843D01*
X2505Y216443D01*
X2905D01*
X3305Y216043D01*
Y216443D02*
X3505Y216643D01*
X3705D01*
X3505Y216843D01*
X3705Y217043D01*
X3505D01*
X3305Y217243D01*
X3105Y217043D01*
X2905D01*
X3105Y216843D01*
X2905Y216643D01*
X3105D01*
X3305Y216443D01*
X46000Y37200D02*
X46400Y37600D01*
X46800D01*
X46400Y38000D01*
X46800Y38400D01*
X46400D01*
X46000Y38800D01*
X45600Y38400D01*
X45200D01*
X45600Y38000D01*
X45200Y37600D01*
X45600D01*
X46000Y37200D01*
Y37600D02*
X46200Y37800D01*
X46400D01*
X46200Y38000D01*
X46400Y38200D01*
X46200D01*
X46000Y38400D01*
X45800Y38200D01*
X45600D01*
X45800Y38000D01*
X45600Y37800D01*
X45800D01*
X46000Y37600D01*
X40784Y42200D02*
X41184Y42600D01*
X41584D01*
X41184Y43000D01*
X41584Y43400D01*
X41184D01*
X40784Y43800D01*
X40384Y43400D01*
X39984D01*
X40384Y43000D01*
X39984Y42600D01*
X40384D01*
X40784Y42200D01*
Y42600D02*
X40984Y42800D01*
X41184D01*
X40984Y43000D01*
X41184Y43200D01*
X40984D01*
X40784Y43400D01*
X40584Y43200D01*
X40384D01*
X40584Y43000D01*
X40384Y42800D01*
X40584D01*
X40784Y42600D01*
X59000Y42200D02*
X59400Y42600D01*
X59800D01*
X59400Y43000D01*
X59800Y43400D01*
X59400D01*
X59000Y43800D01*
X58600Y43400D01*
X58200D01*
X58600Y43000D01*
X58200Y42600D01*
X58600D01*
X59000Y42200D01*
Y42600D02*
X59200Y42800D01*
X59400D01*
X59200Y43000D01*
X59400Y43200D01*
X59200D01*
X59000Y43400D01*
X58800Y43200D01*
X58600D01*
X58800Y43000D01*
X58600Y42800D01*
X58800D01*
X59000Y42600D01*
X63000Y37200D02*
X63400Y37600D01*
X63800D01*
X63400Y38000D01*
X63800Y38400D01*
X63400D01*
X63000Y38800D01*
X62600Y38400D01*
X62200D01*
X62600Y38000D01*
X62200Y37600D01*
X62600D01*
X63000Y37200D01*
Y37600D02*
X63200Y37800D01*
X63400D01*
X63200Y38000D01*
X63400Y38200D01*
X63200D01*
X63000Y38400D01*
X62800Y38200D01*
X62600D01*
X62800Y38000D01*
X62600Y37800D01*
X62800D01*
X63000Y37600D01*
X17500Y57700D02*
X17900Y58100D01*
X18300D01*
X17900Y58500D01*
X18300Y58900D01*
X17900D01*
X17500Y59300D01*
X17100Y58900D01*
X16700D01*
X17100Y58500D01*
X16700Y58100D01*
X17100D01*
X17500Y57700D01*
Y58100D02*
X17700Y58300D01*
X17900D01*
X17700Y58500D01*
X17900Y58700D01*
X17700D01*
X17500Y58900D01*
X17300Y58700D01*
X17100D01*
X17300Y58500D01*
X17100Y58300D01*
X17300D01*
X17500Y58100D01*
X108500Y189449D02*
X108900Y189849D01*
X109300D01*
X108900Y190249D01*
X109300Y190649D01*
X108900D01*
X108500Y191049D01*
X108100Y190649D01*
X107700D01*
X108100Y190249D01*
X107700Y189849D01*
X108100D01*
X108500Y189449D01*
Y189849D02*
X108700Y190049D01*
X108900D01*
X108700Y190249D01*
X108900Y190449D01*
X108700D01*
X108500Y190649D01*
X108300Y190449D01*
X108100D01*
X108300Y190249D01*
X108100Y190049D01*
X108300D01*
X108500Y189849D01*
X123000Y44200D02*
X123400Y44600D01*
X123800D01*
X123400Y45000D01*
X123800Y45400D01*
X123400D01*
X123000Y45800D01*
X122600Y45400D01*
X122200D01*
X122600Y45000D01*
X122200Y44600D01*
X122600D01*
X123000Y44200D01*
Y44600D02*
X123200Y44800D01*
X123400D01*
X123200Y45000D01*
X123400Y45200D01*
X123200D01*
X123000Y45400D01*
X122800Y45200D01*
X122600D01*
X122800Y45000D01*
X122600Y44800D01*
X122800D01*
X123000Y44600D01*
X182500Y162700D02*
X182900Y163100D01*
X183300D01*
X182900Y163500D01*
X183300Y163900D01*
X182900D01*
X182500Y164300D01*
X182100Y163900D01*
X181700D01*
X182100Y163500D01*
X181700Y163100D01*
X182100D01*
X182500Y162700D01*
Y163100D02*
X182700Y163300D01*
X182900D01*
X182700Y163500D01*
X182900Y163700D01*
X182700D01*
X182500Y163900D01*
X182300Y163700D01*
X182100D01*
X182300Y163500D01*
X182100Y163300D01*
X182300D01*
X182500Y163100D01*
Y168700D02*
X182900Y169100D01*
X183300D01*
X182900Y169500D01*
X183300Y169900D01*
X182900D01*
X182500Y170300D01*
X182100Y169900D01*
X181700D01*
X182100Y169500D01*
X181700Y169100D01*
X182100D01*
X182500Y168700D01*
Y169100D02*
X182700Y169300D01*
X182900D01*
X182700Y169500D01*
X182900Y169700D01*
X182700D01*
X182500Y169900D01*
X182300Y169700D01*
X182100D01*
X182300Y169500D01*
X182100Y169300D01*
X182300D01*
X182500Y169100D01*
X23461Y33239D02*
X23861Y33639D01*
X24261D01*
X23861Y34039D01*
X24261Y34439D01*
X23861D01*
X23461Y34839D01*
X23061Y34439D01*
X22661D01*
X23061Y34039D01*
X22661Y33639D01*
X23061D01*
X23461Y33239D01*
Y33639D02*
X23661Y33839D01*
X23861D01*
X23661Y34039D01*
X23861Y34239D01*
X23661D01*
X23461Y34439D01*
X23261Y34239D01*
X23061D01*
X23261Y34039D01*
X23061Y33839D01*
X23261D01*
X23461Y33639D01*
X51000Y58200D02*
X51400Y58600D01*
X51800D01*
X51400Y59000D01*
X51800Y59400D01*
X51400D01*
X51000Y59800D01*
X50600Y59400D01*
X50200D01*
X50600Y59000D01*
X50200Y58600D01*
X50600D01*
X51000Y58200D01*
Y58600D02*
X51200Y58800D01*
X51400D01*
X51200Y59000D01*
X51400Y59200D01*
X51200D01*
X51000Y59400D01*
X50800Y59200D01*
X50600D01*
X50800Y59000D01*
X50600Y58800D01*
X50800D01*
X51000Y58600D01*
X146000Y164800D02*
X146400Y165200D01*
X146800D01*
X146400Y165600D01*
X146800Y166000D01*
X146400D01*
X146000Y166400D01*
X145600Y166000D01*
X145200D01*
X145600Y165600D01*
X145200Y165200D01*
X145600D01*
X146000Y164800D01*
Y165200D02*
X146200Y165400D01*
X146400D01*
X146200Y165600D01*
X146400Y165800D01*
X146200D01*
X146000Y166000D01*
X145800Y165800D01*
X145600D01*
X145800Y165600D01*
X145600Y165400D01*
X145800D01*
X146000Y165200D01*
X152042Y195158D02*
X152442Y195558D01*
X152842D01*
X152442Y195958D01*
X152842Y196358D01*
X152442D01*
X152042Y196758D01*
X151642Y196358D01*
X151242D01*
X151642Y195958D01*
X151242Y195558D01*
X151642D01*
X152042Y195158D01*
Y195558D02*
X152242Y195758D01*
X152442D01*
X152242Y195958D01*
X152442Y196158D01*
X152242D01*
X152042Y196358D01*
X151842Y196158D01*
X151642D01*
X151842Y195958D01*
X151642Y195758D01*
X151842D01*
X152042Y195558D01*
X182000Y181700D02*
X182400Y182100D01*
X182800D01*
X182400Y182500D01*
X182800Y182900D01*
X182400D01*
X182000Y183300D01*
X181600Y182900D01*
X181200D01*
X181600Y182500D01*
X181200Y182100D01*
X181600D01*
X182000Y181700D01*
Y182100D02*
X182200Y182300D01*
X182400D01*
X182200Y182500D01*
X182400Y182700D01*
X182200D01*
X182000Y182900D01*
X181800Y182700D01*
X181600D01*
X181800Y182500D01*
X181600Y182300D01*
X181800D01*
X182000Y182100D01*
X128500Y181924D02*
X128900Y182324D01*
X129300D01*
X128900Y182724D01*
X129300Y183124D01*
X128900D01*
X128500Y183524D01*
X128100Y183124D01*
X127700D01*
X128100Y182724D01*
X127700Y182324D01*
X128100D01*
X128500Y181924D01*
Y182324D02*
X128700Y182524D01*
X128900D01*
X128700Y182724D01*
X128900Y182924D01*
X128700D01*
X128500Y183124D01*
X128300Y182924D01*
X128100D01*
X128300Y182724D01*
X128100Y182524D01*
X128300D01*
X128500Y182324D01*
X112500Y20200D02*
X112900Y20600D01*
X113300D01*
X112900Y21000D01*
X113300Y21400D01*
X112900D01*
X112500Y21800D01*
X112100Y21400D01*
X111700D01*
X112100Y21000D01*
X111700Y20600D01*
X112100D01*
X112500Y20200D01*
Y20600D02*
X112700Y20800D01*
X112900D01*
X112700Y21000D01*
X112900Y21200D01*
X112700D01*
X112500Y21400D01*
X112300Y21200D01*
X112100D01*
X112300Y21000D01*
X112100Y20800D01*
X112300D01*
X112500Y20600D01*
X124000Y2700D02*
X124400Y3100D01*
X124800D01*
X124400Y3500D01*
X124800Y3900D01*
X124400D01*
X124000Y4300D01*
X123600Y3900D01*
X123200D01*
X123600Y3500D01*
X123200Y3100D01*
X123600D01*
X124000Y2700D01*
Y3100D02*
X124200Y3300D01*
X124400D01*
X124200Y3500D01*
X124400Y3700D01*
X124200D01*
X124000Y3900D01*
X123800Y3700D01*
X123600D01*
X123800Y3500D01*
X123600Y3300D01*
X123800D01*
X124000Y3100D01*
X288500Y-17800D02*
X288900Y-17400D01*
X289300D01*
X288900Y-17000D01*
X289300Y-16600D01*
X288900D01*
X288500Y-16200D01*
X288100Y-16600D01*
X287700D01*
X288100Y-17000D01*
X287700Y-17400D01*
X288100D01*
X288500Y-17800D01*
Y-17400D02*
X288700Y-17200D01*
X288900D01*
X288700Y-17000D01*
X288900Y-16800D01*
X288700D01*
X288500Y-16600D01*
X288300Y-16800D01*
X288100D01*
X288300Y-17000D01*
X288100Y-17200D01*
X288300D01*
X288500Y-17400D01*
X281500Y-17800D02*
X281900Y-17400D01*
X282300D01*
X281900Y-17000D01*
X282300Y-16600D01*
X281900D01*
X281500Y-16200D01*
X281100Y-16600D01*
X280700D01*
X281100Y-17000D01*
X280700Y-17400D01*
X281100D01*
X281500Y-17800D01*
Y-17400D02*
X281700Y-17200D01*
X281900D01*
X281700Y-17000D01*
X281900Y-16800D01*
X281700D01*
X281500Y-16600D01*
X281300Y-16800D01*
X281100D01*
X281300Y-17000D01*
X281100Y-17200D01*
X281300D01*
X281500Y-17400D01*
X274500Y-17800D02*
X274900Y-17400D01*
X275300D01*
X274900Y-17000D01*
X275300Y-16600D01*
X274900D01*
X274500Y-16200D01*
X274100Y-16600D01*
X273700D01*
X274100Y-17000D01*
X273700Y-17400D01*
X274100D01*
X274500Y-17800D01*
Y-17400D02*
X274700Y-17200D01*
X274900D01*
X274700Y-17000D01*
X274900Y-16800D01*
X274700D01*
X274500Y-16600D01*
X274300Y-16800D01*
X274100D01*
X274300Y-17000D01*
X274100Y-17200D01*
X274300D01*
X274500Y-17400D01*
X267500Y-17800D02*
X267900Y-17400D01*
X268300D01*
X267900Y-17000D01*
X268300Y-16600D01*
X267900D01*
X267500Y-16200D01*
X267100Y-16600D01*
X266700D01*
X267100Y-17000D01*
X266700Y-17400D01*
X267100D01*
X267500Y-17800D01*
Y-17400D02*
X267700Y-17200D01*
X267900D01*
X267700Y-17000D01*
X267900Y-16800D01*
X267700D01*
X267500Y-16600D01*
X267300Y-16800D01*
X267100D01*
X267300Y-17000D01*
X267100Y-17200D01*
X267300D01*
X267500Y-17400D01*
X246500Y-17800D02*
X246900Y-17400D01*
X247300D01*
X246900Y-17000D01*
X247300Y-16600D01*
X246900D01*
X246500Y-16200D01*
X246100Y-16600D01*
X245700D01*
X246100Y-17000D01*
X245700Y-17400D01*
X246100D01*
X246500Y-17800D01*
Y-17400D02*
X246700Y-17200D01*
X246900D01*
X246700Y-17000D01*
X246900Y-16800D01*
X246700D01*
X246500Y-16600D01*
X246300Y-16800D01*
X246100D01*
X246300Y-17000D01*
X246100Y-17200D01*
X246300D01*
X246500Y-17400D01*
X253500Y-17800D02*
X253900Y-17400D01*
X254300D01*
X253900Y-17000D01*
X254300Y-16600D01*
X253900D01*
X253500Y-16200D01*
X253100Y-16600D01*
X252700D01*
X253100Y-17000D01*
X252700Y-17400D01*
X253100D01*
X253500Y-17800D01*
Y-17400D02*
X253700Y-17200D01*
X253900D01*
X253700Y-17000D01*
X253900Y-16800D01*
X253700D01*
X253500Y-16600D01*
X253300Y-16800D01*
X253100D01*
X253300Y-17000D01*
X253100Y-17200D01*
X253300D01*
X253500Y-17400D01*
X260500Y-17800D02*
X260900Y-17400D01*
X261300D01*
X260900Y-17000D01*
X261300Y-16600D01*
X260900D01*
X260500Y-16200D01*
X260100Y-16600D01*
X259700D01*
X260100Y-17000D01*
X259700Y-17400D01*
X260100D01*
X260500Y-17800D01*
Y-17400D02*
X260700Y-17200D01*
X260900D01*
X260700Y-17000D01*
X260900Y-16800D01*
X260700D01*
X260500Y-16600D01*
X260300Y-16800D01*
X260100D01*
X260300Y-17000D01*
X260100Y-17200D01*
X260300D01*
X260500Y-17400D01*
X211500Y-17800D02*
X211900Y-17400D01*
X212300D01*
X211900Y-17000D01*
X212300Y-16600D01*
X211900D01*
X211500Y-16200D01*
X211100Y-16600D01*
X210700D01*
X211100Y-17000D01*
X210700Y-17400D01*
X211100D01*
X211500Y-17800D01*
Y-17400D02*
X211700Y-17200D01*
X211900D01*
X211700Y-17000D01*
X211900Y-16800D01*
X211700D01*
X211500Y-16600D01*
X211300Y-16800D01*
X211100D01*
X211300Y-17000D01*
X211100Y-17200D01*
X211300D01*
X211500Y-17400D01*
X204500Y-17800D02*
X204900Y-17400D01*
X205300D01*
X204900Y-17000D01*
X205300Y-16600D01*
X204900D01*
X204500Y-16200D01*
X204100Y-16600D01*
X203700D01*
X204100Y-17000D01*
X203700Y-17400D01*
X204100D01*
X204500Y-17800D01*
Y-17400D02*
X204700Y-17200D01*
X204900D01*
X204700Y-17000D01*
X204900Y-16800D01*
X204700D01*
X204500Y-16600D01*
X204300Y-16800D01*
X204100D01*
X204300Y-17000D01*
X204100Y-17200D01*
X204300D01*
X204500Y-17400D01*
X218500Y-17800D02*
X218900Y-17400D01*
X219300D01*
X218900Y-17000D01*
X219300Y-16600D01*
X218900D01*
X218500Y-16200D01*
X218100Y-16600D01*
X217700D01*
X218100Y-17000D01*
X217700Y-17400D01*
X218100D01*
X218500Y-17800D01*
Y-17400D02*
X218700Y-17200D01*
X218900D01*
X218700Y-17000D01*
X218900Y-16800D01*
X218700D01*
X218500Y-16600D01*
X218300Y-16800D01*
X218100D01*
X218300Y-17000D01*
X218100Y-17200D01*
X218300D01*
X218500Y-17400D01*
X225500Y-17800D02*
X225900Y-17400D01*
X226300D01*
X225900Y-17000D01*
X226300Y-16600D01*
X225900D01*
X225500Y-16200D01*
X225100Y-16600D01*
X224700D01*
X225100Y-17000D01*
X224700Y-17400D01*
X225100D01*
X225500Y-17800D01*
Y-17400D02*
X225700Y-17200D01*
X225900D01*
X225700Y-17000D01*
X225900Y-16800D01*
X225700D01*
X225500Y-16600D01*
X225300Y-16800D01*
X225100D01*
X225300Y-17000D01*
X225100Y-17200D01*
X225300D01*
X225500Y-17400D01*
X232500Y-17800D02*
X232900Y-17400D01*
X233300D01*
X232900Y-17000D01*
X233300Y-16600D01*
X232900D01*
X232500Y-16200D01*
X232100Y-16600D01*
X231700D01*
X232100Y-17000D01*
X231700Y-17400D01*
X232100D01*
X232500Y-17800D01*
Y-17400D02*
X232700Y-17200D01*
X232900D01*
X232700Y-17000D01*
X232900Y-16800D01*
X232700D01*
X232500Y-16600D01*
X232300Y-16800D01*
X232100D01*
X232300Y-17000D01*
X232100Y-17200D01*
X232300D01*
X232500Y-17400D01*
X239500Y-17800D02*
X239900Y-17400D01*
X240300D01*
X239900Y-17000D01*
X240300Y-16600D01*
X239900D01*
X239500Y-16200D01*
X239100Y-16600D01*
X238700D01*
X239100Y-17000D01*
X238700Y-17400D01*
X239100D01*
X239500Y-17800D01*
Y-17400D02*
X239700Y-17200D01*
X239900D01*
X239700Y-17000D01*
X239900Y-16800D01*
X239700D01*
X239500Y-16600D01*
X239300Y-16800D01*
X239100D01*
X239300Y-17000D01*
X239100Y-17200D01*
X239300D01*
X239500Y-17400D01*
Y38200D02*
X239900Y38600D01*
X240300D01*
X239900Y39000D01*
X240300Y39400D01*
X239900D01*
X239500Y39800D01*
X239100Y39400D01*
X238700D01*
X239100Y39000D01*
X238700Y38600D01*
X239100D01*
X239500Y38200D01*
Y38600D02*
X239700Y38800D01*
X239900D01*
X239700Y39000D01*
X239900Y39200D01*
X239700D01*
X239500Y39400D01*
X239300Y39200D01*
X239100D01*
X239300Y39000D01*
X239100Y38800D01*
X239300D01*
X239500Y38600D01*
X232500Y38200D02*
X232900Y38600D01*
X233300D01*
X232900Y39000D01*
X233300Y39400D01*
X232900D01*
X232500Y39800D01*
X232100Y39400D01*
X231700D01*
X232100Y39000D01*
X231700Y38600D01*
X232100D01*
X232500Y38200D01*
Y38600D02*
X232700Y38800D01*
X232900D01*
X232700Y39000D01*
X232900Y39200D01*
X232700D01*
X232500Y39400D01*
X232300Y39200D01*
X232100D01*
X232300Y39000D01*
X232100Y38800D01*
X232300D01*
X232500Y38600D01*
X225500Y38200D02*
X225900Y38600D01*
X226300D01*
X225900Y39000D01*
X226300Y39400D01*
X225900D01*
X225500Y39800D01*
X225100Y39400D01*
X224700D01*
X225100Y39000D01*
X224700Y38600D01*
X225100D01*
X225500Y38200D01*
Y38600D02*
X225700Y38800D01*
X225900D01*
X225700Y39000D01*
X225900Y39200D01*
X225700D01*
X225500Y39400D01*
X225300Y39200D01*
X225100D01*
X225300Y39000D01*
X225100Y38800D01*
X225300D01*
X225500Y38600D01*
X218500Y38200D02*
X218900Y38600D01*
X219300D01*
X218900Y39000D01*
X219300Y39400D01*
X218900D01*
X218500Y39800D01*
X218100Y39400D01*
X217700D01*
X218100Y39000D01*
X217700Y38600D01*
X218100D01*
X218500Y38200D01*
Y38600D02*
X218700Y38800D01*
X218900D01*
X218700Y39000D01*
X218900Y39200D01*
X218700D01*
X218500Y39400D01*
X218300Y39200D01*
X218100D01*
X218300Y39000D01*
X218100Y38800D01*
X218300D01*
X218500Y38600D01*
X211500Y38200D02*
X211900Y38600D01*
X212300D01*
X211900Y39000D01*
X212300Y39400D01*
X211900D01*
X211500Y39800D01*
X211100Y39400D01*
X210700D01*
X211100Y39000D01*
X210700Y38600D01*
X211100D01*
X211500Y38200D01*
Y38600D02*
X211700Y38800D01*
X211900D01*
X211700Y39000D01*
X211900Y39200D01*
X211700D01*
X211500Y39400D01*
X211300Y39200D01*
X211100D01*
X211300Y39000D01*
X211100Y38800D01*
X211300D01*
X211500Y38600D01*
X260500Y38200D02*
X260900Y38600D01*
X261300D01*
X260900Y39000D01*
X261300Y39400D01*
X260900D01*
X260500Y39800D01*
X260100Y39400D01*
X259700D01*
X260100Y39000D01*
X259700Y38600D01*
X260100D01*
X260500Y38200D01*
Y38600D02*
X260700Y38800D01*
X260900D01*
X260700Y39000D01*
X260900Y39200D01*
X260700D01*
X260500Y39400D01*
X260300Y39200D01*
X260100D01*
X260300Y39000D01*
X260100Y38800D01*
X260300D01*
X260500Y38600D01*
X253500Y38200D02*
X253900Y38600D01*
X254300D01*
X253900Y39000D01*
X254300Y39400D01*
X253900D01*
X253500Y39800D01*
X253100Y39400D01*
X252700D01*
X253100Y39000D01*
X252700Y38600D01*
X253100D01*
X253500Y38200D01*
Y38600D02*
X253700Y38800D01*
X253900D01*
X253700Y39000D01*
X253900Y39200D01*
X253700D01*
X253500Y39400D01*
X253300Y39200D01*
X253100D01*
X253300Y39000D01*
X253100Y38800D01*
X253300D01*
X253500Y38600D01*
X246500Y38200D02*
X246900Y38600D01*
X247300D01*
X246900Y39000D01*
X247300Y39400D01*
X246900D01*
X246500Y39800D01*
X246100Y39400D01*
X245700D01*
X246100Y39000D01*
X245700Y38600D01*
X246100D01*
X246500Y38200D01*
Y38600D02*
X246700Y38800D01*
X246900D01*
X246700Y39000D01*
X246900Y39200D01*
X246700D01*
X246500Y39400D01*
X246300Y39200D01*
X246100D01*
X246300Y39000D01*
X246100Y38800D01*
X246300D01*
X246500Y38600D01*
X267500Y38200D02*
X267900Y38600D01*
X268300D01*
X267900Y39000D01*
X268300Y39400D01*
X267900D01*
X267500Y39800D01*
X267100Y39400D01*
X266700D01*
X267100Y39000D01*
X266700Y38600D01*
X267100D01*
X267500Y38200D01*
Y38600D02*
X267700Y38800D01*
X267900D01*
X267700Y39000D01*
X267900Y39200D01*
X267700D01*
X267500Y39400D01*
X267300Y39200D01*
X267100D01*
X267300Y39000D01*
X267100Y38800D01*
X267300D01*
X267500Y38600D01*
X274500Y38200D02*
X274900Y38600D01*
X275300D01*
X274900Y39000D01*
X275300Y39400D01*
X274900D01*
X274500Y39800D01*
X274100Y39400D01*
X273700D01*
X274100Y39000D01*
X273700Y38600D01*
X274100D01*
X274500Y38200D01*
Y38600D02*
X274700Y38800D01*
X274900D01*
X274700Y39000D01*
X274900Y39200D01*
X274700D01*
X274500Y39400D01*
X274300Y39200D01*
X274100D01*
X274300Y39000D01*
X274100Y38800D01*
X274300D01*
X274500Y38600D01*
X281500Y38200D02*
X281900Y38600D01*
X282300D01*
X281900Y39000D01*
X282300Y39400D01*
X281900D01*
X281500Y39800D01*
X281100Y39400D01*
X280700D01*
X281100Y39000D01*
X280700Y38600D01*
X281100D01*
X281500Y38200D01*
Y38600D02*
X281700Y38800D01*
X281900D01*
X281700Y39000D01*
X281900Y39200D01*
X281700D01*
X281500Y39400D01*
X281300Y39200D01*
X281100D01*
X281300Y39000D01*
X281100Y38800D01*
X281300D01*
X281500Y38600D01*
X288500Y38200D02*
X288900Y38600D01*
X289300D01*
X288900Y39000D01*
X289300Y39400D01*
X288900D01*
X288500Y39800D01*
X288100Y39400D01*
X287700D01*
X288100Y39000D01*
X287700Y38600D01*
X288100D01*
X288500Y38200D01*
Y38600D02*
X288700Y38800D01*
X288900D01*
X288700Y39000D01*
X288900Y39200D01*
X288700D01*
X288500Y39400D01*
X288300Y39200D01*
X288100D01*
X288300Y39000D01*
X288100Y38800D01*
X288300D01*
X288500Y38600D01*
X204500Y31200D02*
X204900Y31600D01*
X205300D01*
X204900Y32000D01*
X205300Y32400D01*
X204900D01*
X204500Y32800D01*
X204100Y32400D01*
X203700D01*
X204100Y32000D01*
X203700Y31600D01*
X204100D01*
X204500Y31200D01*
Y31600D02*
X204700Y31800D01*
X204900D01*
X204700Y32000D01*
X204900Y32200D01*
X204700D01*
X204500Y32400D01*
X204300Y32200D01*
X204100D01*
X204300Y32000D01*
X204100Y31800D01*
X204300D01*
X204500Y31600D01*
Y-3800D02*
X204900Y-3400D01*
X205300D01*
X204900Y-3000D01*
X205300Y-2600D01*
X204900D01*
X204500Y-2200D01*
X204100Y-2600D01*
X203700D01*
X204100Y-3000D01*
X203700Y-3400D01*
X204100D01*
X204500Y-3800D01*
Y-3400D02*
X204700Y-3200D01*
X204900D01*
X204700Y-3000D01*
X204900Y-2800D01*
X204700D01*
X204500Y-2600D01*
X204300Y-2800D01*
X204100D01*
X204300Y-3000D01*
X204100Y-3200D01*
X204300D01*
X204500Y-3400D01*
Y-10800D02*
X204900Y-10400D01*
X205300D01*
X204900Y-10000D01*
X205300Y-9600D01*
X204900D01*
X204500Y-9200D01*
X204100Y-9600D01*
X203700D01*
X204100Y-10000D01*
X203700Y-10400D01*
X204100D01*
X204500Y-10800D01*
Y-10400D02*
X204700Y-10200D01*
X204900D01*
X204700Y-10000D01*
X204900Y-9800D01*
X204700D01*
X204500Y-9600D01*
X204300Y-9800D01*
X204100D01*
X204300Y-10000D01*
X204100Y-10200D01*
X204300D01*
X204500Y-10400D01*
Y3200D02*
X204900Y3600D01*
X205300D01*
X204900Y4000D01*
X205300Y4400D01*
X204900D01*
X204500Y4800D01*
X204100Y4400D01*
X203700D01*
X204100Y4000D01*
X203700Y3600D01*
X204100D01*
X204500Y3200D01*
Y3600D02*
X204700Y3800D01*
X204900D01*
X204700Y4000D01*
X204900Y4200D01*
X204700D01*
X204500Y4400D01*
X204300Y4200D01*
X204100D01*
X204300Y4000D01*
X204100Y3800D01*
X204300D01*
X204500Y3600D01*
Y10200D02*
X204900Y10600D01*
X205300D01*
X204900Y11000D01*
X205300Y11400D01*
X204900D01*
X204500Y11800D01*
X204100Y11400D01*
X203700D01*
X204100Y11000D01*
X203700Y10600D01*
X204100D01*
X204500Y10200D01*
Y10600D02*
X204700Y10800D01*
X204900D01*
X204700Y11000D01*
X204900Y11200D01*
X204700D01*
X204500Y11400D01*
X204300Y11200D01*
X204100D01*
X204300Y11000D01*
X204100Y10800D01*
X204300D01*
X204500Y10600D01*
Y17200D02*
X204900Y17600D01*
X205300D01*
X204900Y18000D01*
X205300Y18400D01*
X204900D01*
X204500Y18800D01*
X204100Y18400D01*
X203700D01*
X204100Y18000D01*
X203700Y17600D01*
X204100D01*
X204500Y17200D01*
Y17600D02*
X204700Y17800D01*
X204900D01*
X204700Y18000D01*
X204900Y18200D01*
X204700D01*
X204500Y18400D01*
X204300Y18200D01*
X204100D01*
X204300Y18000D01*
X204100Y17800D01*
X204300D01*
X204500Y17600D01*
Y24200D02*
X204900Y24600D01*
X205300D01*
X204900Y25000D01*
X205300Y25400D01*
X204900D01*
X204500Y25800D01*
X204100Y25400D01*
X203700D01*
X204100Y25000D01*
X203700Y24600D01*
X204100D01*
X204500Y24200D01*
Y24600D02*
X204700Y24800D01*
X204900D01*
X204700Y25000D01*
X204900Y25200D01*
X204700D01*
X204500Y25400D01*
X204300Y25200D01*
X204100D01*
X204300Y25000D01*
X204100Y24800D01*
X204300D01*
X204500Y24600D01*
Y38200D02*
X204900Y38600D01*
X205300D01*
X204900Y39000D01*
X205300Y39400D01*
X204900D01*
X204500Y39800D01*
X204100Y39400D01*
X203700D01*
X204100Y39000D01*
X203700Y38600D01*
X204100D01*
X204500Y38200D01*
Y38600D02*
X204700Y38800D01*
X204900D01*
X204700Y39000D01*
X204900Y39200D01*
X204700D01*
X204500Y39400D01*
X204300Y39200D01*
X204100D01*
X204300Y39000D01*
X204100Y38800D01*
X204300D01*
X204500Y38600D01*
X295500Y-17800D02*
X295900Y-17400D01*
X296300D01*
X295900Y-17000D01*
X296300Y-16600D01*
X295900D01*
X295500Y-16200D01*
X295100Y-16600D01*
X294700D01*
X295100Y-17000D01*
X294700Y-17400D01*
X295100D01*
X295500Y-17800D01*
Y-17400D02*
X295700Y-17200D01*
X295900D01*
X295700Y-17000D01*
X295900Y-16800D01*
X295700D01*
X295500Y-16600D01*
X295300Y-16800D01*
X295100D01*
X295300Y-17000D01*
X295100Y-17200D01*
X295300D01*
X295500Y-17400D01*
Y-10800D02*
X295900Y-10400D01*
X296300D01*
X295900Y-10000D01*
X296300Y-9600D01*
X295900D01*
X295500Y-9200D01*
X295100Y-9600D01*
X294700D01*
X295100Y-10000D01*
X294700Y-10400D01*
X295100D01*
X295500Y-10800D01*
Y-10400D02*
X295700Y-10200D01*
X295900D01*
X295700Y-10000D01*
X295900Y-9800D01*
X295700D01*
X295500Y-9600D01*
X295300Y-9800D01*
X295100D01*
X295300Y-10000D01*
X295100Y-10200D01*
X295300D01*
X295500Y-10400D01*
Y31200D02*
X295900Y31600D01*
X296300D01*
X295900Y32000D01*
X296300Y32400D01*
X295900D01*
X295500Y32800D01*
X295100Y32400D01*
X294700D01*
X295100Y32000D01*
X294700Y31600D01*
X295100D01*
X295500Y31200D01*
Y31600D02*
X295700Y31800D01*
X295900D01*
X295700Y32000D01*
X295900Y32200D01*
X295700D01*
X295500Y32400D01*
X295300Y32200D01*
X295100D01*
X295300Y32000D01*
X295100Y31800D01*
X295300D01*
X295500Y31600D01*
Y38200D02*
X295900Y38600D01*
X296300D01*
X295900Y39000D01*
X296300Y39400D01*
X295900D01*
X295500Y39800D01*
X295100Y39400D01*
X294700D01*
X295100Y39000D01*
X294700Y38600D01*
X295100D01*
X295500Y38200D01*
Y38600D02*
X295700Y38800D01*
X295900D01*
X295700Y39000D01*
X295900Y39200D01*
X295700D01*
X295500Y39400D01*
X295300Y39200D01*
X295100D01*
X295300Y39000D01*
X295100Y38800D01*
X295300D01*
X295500Y38600D01*
Y216043D02*
X295900Y216443D01*
X296300D01*
X295900Y216843D01*
X296300Y217243D01*
X295900D01*
X295500Y217643D01*
X295100Y217243D01*
X294700D01*
X295100Y216843D01*
X294700Y216443D01*
X295100D01*
X295500Y216043D01*
Y216443D02*
X295700Y216643D01*
X295900D01*
X295700Y216843D01*
X295900Y217043D01*
X295700D01*
X295500Y217243D01*
X295300Y217043D01*
X295100D01*
X295300Y216843D01*
X295100Y216643D01*
X295300D01*
X295500Y216443D01*
Y209043D02*
X295900Y209443D01*
X296300D01*
X295900Y209843D01*
X296300Y210243D01*
X295900D01*
X295500Y210643D01*
X295100Y210243D01*
X294700D01*
X295100Y209843D01*
X294700Y209443D01*
X295100D01*
X295500Y209043D01*
Y209443D02*
X295700Y209643D01*
X295900D01*
X295700Y209843D01*
X295900Y210043D01*
X295700D01*
X295500Y210243D01*
X295300Y210043D01*
X295100D01*
X295300Y209843D01*
X295100Y209643D01*
X295300D01*
X295500Y209443D01*
Y167043D02*
X295900Y167443D01*
X296300D01*
X295900Y167843D01*
X296300Y168243D01*
X295900D01*
X295500Y168643D01*
X295100Y168243D01*
X294700D01*
X295100Y167843D01*
X294700Y167443D01*
X295100D01*
X295500Y167043D01*
Y167443D02*
X295700Y167643D01*
X295900D01*
X295700Y167843D01*
X295900Y168043D01*
X295700D01*
X295500Y168243D01*
X295300Y168043D01*
X295100D01*
X295300Y167843D01*
X295100Y167643D01*
X295300D01*
X295500Y167443D01*
Y160043D02*
X295900Y160443D01*
X296300D01*
X295900Y160843D01*
X296300Y161243D01*
X295900D01*
X295500Y161643D01*
X295100Y161243D01*
X294700D01*
X295100Y160843D01*
X294700Y160443D01*
X295100D01*
X295500Y160043D01*
Y160443D02*
X295700Y160643D01*
X295900D01*
X295700Y160843D01*
X295900Y161043D01*
X295700D01*
X295500Y161243D01*
X295300Y161043D01*
X295100D01*
X295300Y160843D01*
X295100Y160643D01*
X295300D01*
X295500Y160443D01*
X145500Y45200D02*
X145900Y45600D01*
X146300D01*
X145900Y46000D01*
X146300Y46400D01*
X145900D01*
X145500Y46800D01*
X145100Y46400D01*
X144700D01*
X145100Y46000D01*
X144700Y45600D01*
X145100D01*
X145500Y45200D01*
Y45600D02*
X145700Y45800D01*
X145900D01*
X145700Y46000D01*
X145900Y46200D01*
X145700D01*
X145500Y46400D01*
X145300Y46200D01*
X145100D01*
X145300Y46000D01*
X145100Y45800D01*
X145300D01*
X145500Y45600D01*
X160000Y18700D02*
X160400Y19100D01*
X160800D01*
X160400Y19500D01*
X160800Y19900D01*
X160400D01*
X160000Y20300D01*
X159600Y19900D01*
X159200D01*
X159600Y19500D01*
X159200Y19100D01*
X159600D01*
X160000Y18700D01*
Y19100D02*
X160200Y19300D01*
X160400D01*
X160200Y19500D01*
X160400Y19700D01*
X160200D01*
X160000Y19900D01*
X159800Y19700D01*
X159600D01*
X159800Y19500D01*
X159600Y19300D01*
X159800D01*
X160000Y19100D01*
X57242Y3700D02*
X57642Y4100D01*
X58042D01*
X57642Y4500D01*
X58042Y4900D01*
X57642D01*
X57242Y5300D01*
X56842Y4900D01*
X56442D01*
X56842Y4500D01*
X56442Y4100D01*
X56842D01*
X57242Y3700D01*
Y4100D02*
X57442Y4300D01*
X57642D01*
X57442Y4500D01*
X57642Y4700D01*
X57442D01*
X57242Y4900D01*
X57042Y4700D01*
X56842D01*
X57042Y4500D01*
X56842Y4300D01*
X57042D01*
X57242Y4100D01*
X204500Y216043D02*
X204900Y216443D01*
X205300D01*
X204900Y216843D01*
X205300Y217243D01*
X204900D01*
X204500Y217643D01*
X204100Y217243D01*
X203700D01*
X204100Y216843D01*
X203700Y216443D01*
X204100D01*
X204500Y216043D01*
Y216443D02*
X204700Y216643D01*
X204900D01*
X204700Y216843D01*
X204900Y217043D01*
X204700D01*
X204500Y217243D01*
X204300Y217043D01*
X204100D01*
X204300Y216843D01*
X204100Y216643D01*
X204300D01*
X204500Y216443D01*
Y202043D02*
X204900Y202443D01*
X205300D01*
X204900Y202843D01*
X205300Y203243D01*
X204900D01*
X204500Y203643D01*
X204100Y203243D01*
X203700D01*
X204100Y202843D01*
X203700Y202443D01*
X204100D01*
X204500Y202043D01*
Y202443D02*
X204700Y202643D01*
X204900D01*
X204700Y202843D01*
X204900Y203043D01*
X204700D01*
X204500Y203243D01*
X204300Y203043D01*
X204100D01*
X204300Y202843D01*
X204100Y202643D01*
X204300D01*
X204500Y202443D01*
Y195043D02*
X204900Y195443D01*
X205300D01*
X204900Y195843D01*
X205300Y196243D01*
X204900D01*
X204500Y196643D01*
X204100Y196243D01*
X203700D01*
X204100Y195843D01*
X203700Y195443D01*
X204100D01*
X204500Y195043D01*
Y195443D02*
X204700Y195643D01*
X204900D01*
X204700Y195843D01*
X204900Y196043D01*
X204700D01*
X204500Y196243D01*
X204300Y196043D01*
X204100D01*
X204300Y195843D01*
X204100Y195643D01*
X204300D01*
X204500Y195443D01*
Y188043D02*
X204900Y188443D01*
X205300D01*
X204900Y188843D01*
X205300Y189243D01*
X204900D01*
X204500Y189643D01*
X204100Y189243D01*
X203700D01*
X204100Y188843D01*
X203700Y188443D01*
X204100D01*
X204500Y188043D01*
Y188443D02*
X204700Y188643D01*
X204900D01*
X204700Y188843D01*
X204900Y189043D01*
X204700D01*
X204500Y189243D01*
X204300Y189043D01*
X204100D01*
X204300Y188843D01*
X204100Y188643D01*
X204300D01*
X204500Y188443D01*
Y181043D02*
X204900Y181443D01*
X205300D01*
X204900Y181843D01*
X205300Y182243D01*
X204900D01*
X204500Y182643D01*
X204100Y182243D01*
X203700D01*
X204100Y181843D01*
X203700Y181443D01*
X204100D01*
X204500Y181043D01*
Y181443D02*
X204700Y181643D01*
X204900D01*
X204700Y181843D01*
X204900Y182043D01*
X204700D01*
X204500Y182243D01*
X204300Y182043D01*
X204100D01*
X204300Y181843D01*
X204100Y181643D01*
X204300D01*
X204500Y181443D01*
Y167043D02*
X204900Y167443D01*
X205300D01*
X204900Y167843D01*
X205300Y168243D01*
X204900D01*
X204500Y168643D01*
X204100Y168243D01*
X203700D01*
X204100Y167843D01*
X203700Y167443D01*
X204100D01*
X204500Y167043D01*
Y167443D02*
X204700Y167643D01*
X204900D01*
X204700Y167843D01*
X204900Y168043D01*
X204700D01*
X204500Y168243D01*
X204300Y168043D01*
X204100D01*
X204300Y167843D01*
X204100Y167643D01*
X204300D01*
X204500Y167443D01*
Y174043D02*
X204900Y174443D01*
X205300D01*
X204900Y174843D01*
X205300Y175243D01*
X204900D01*
X204500Y175643D01*
X204100Y175243D01*
X203700D01*
X204100Y174843D01*
X203700Y174443D01*
X204100D01*
X204500Y174043D01*
Y174443D02*
X204700Y174643D01*
X204900D01*
X204700Y174843D01*
X204900Y175043D01*
X204700D01*
X204500Y175243D01*
X204300Y175043D01*
X204100D01*
X204300Y174843D01*
X204100Y174643D01*
X204300D01*
X204500Y174443D01*
Y209043D02*
X204900Y209443D01*
X205300D01*
X204900Y209843D01*
X205300Y210243D01*
X204900D01*
X204500Y210643D01*
X204100Y210243D01*
X203700D01*
X204100Y209843D01*
X203700Y209443D01*
X204100D01*
X204500Y209043D01*
Y209443D02*
X204700Y209643D01*
X204900D01*
X204700Y209843D01*
X204900Y210043D01*
X204700D01*
X204500Y210243D01*
X204300Y210043D01*
X204100D01*
X204300Y209843D01*
X204100Y209643D01*
X204300D01*
X204500Y209443D01*
X288500Y216043D02*
X288900Y216443D01*
X289300D01*
X288900Y216843D01*
X289300Y217243D01*
X288900D01*
X288500Y217643D01*
X288100Y217243D01*
X287700D01*
X288100Y216843D01*
X287700Y216443D01*
X288100D01*
X288500Y216043D01*
Y216443D02*
X288700Y216643D01*
X288900D01*
X288700Y216843D01*
X288900Y217043D01*
X288700D01*
X288500Y217243D01*
X288300Y217043D01*
X288100D01*
X288300Y216843D01*
X288100Y216643D01*
X288300D01*
X288500Y216443D01*
X281500Y216043D02*
X281900Y216443D01*
X282300D01*
X281900Y216843D01*
X282300Y217243D01*
X281900D01*
X281500Y217643D01*
X281100Y217243D01*
X280700D01*
X281100Y216843D01*
X280700Y216443D01*
X281100D01*
X281500Y216043D01*
Y216443D02*
X281700Y216643D01*
X281900D01*
X281700Y216843D01*
X281900Y217043D01*
X281700D01*
X281500Y217243D01*
X281300Y217043D01*
X281100D01*
X281300Y216843D01*
X281100Y216643D01*
X281300D01*
X281500Y216443D01*
X274500Y216043D02*
X274900Y216443D01*
X275300D01*
X274900Y216843D01*
X275300Y217243D01*
X274900D01*
X274500Y217643D01*
X274100Y217243D01*
X273700D01*
X274100Y216843D01*
X273700Y216443D01*
X274100D01*
X274500Y216043D01*
Y216443D02*
X274700Y216643D01*
X274900D01*
X274700Y216843D01*
X274900Y217043D01*
X274700D01*
X274500Y217243D01*
X274300Y217043D01*
X274100D01*
X274300Y216843D01*
X274100Y216643D01*
X274300D01*
X274500Y216443D01*
X267500Y216043D02*
X267900Y216443D01*
X268300D01*
X267900Y216843D01*
X268300Y217243D01*
X267900D01*
X267500Y217643D01*
X267100Y217243D01*
X266700D01*
X267100Y216843D01*
X266700Y216443D01*
X267100D01*
X267500Y216043D01*
Y216443D02*
X267700Y216643D01*
X267900D01*
X267700Y216843D01*
X267900Y217043D01*
X267700D01*
X267500Y217243D01*
X267300Y217043D01*
X267100D01*
X267300Y216843D01*
X267100Y216643D01*
X267300D01*
X267500Y216443D01*
X246500Y216043D02*
X246900Y216443D01*
X247300D01*
X246900Y216843D01*
X247300Y217243D01*
X246900D01*
X246500Y217643D01*
X246100Y217243D01*
X245700D01*
X246100Y216843D01*
X245700Y216443D01*
X246100D01*
X246500Y216043D01*
Y216443D02*
X246700Y216643D01*
X246900D01*
X246700Y216843D01*
X246900Y217043D01*
X246700D01*
X246500Y217243D01*
X246300Y217043D01*
X246100D01*
X246300Y216843D01*
X246100Y216643D01*
X246300D01*
X246500Y216443D01*
X253500Y216043D02*
X253900Y216443D01*
X254300D01*
X253900Y216843D01*
X254300Y217243D01*
X253900D01*
X253500Y217643D01*
X253100Y217243D01*
X252700D01*
X253100Y216843D01*
X252700Y216443D01*
X253100D01*
X253500Y216043D01*
Y216443D02*
X253700Y216643D01*
X253900D01*
X253700Y216843D01*
X253900Y217043D01*
X253700D01*
X253500Y217243D01*
X253300Y217043D01*
X253100D01*
X253300Y216843D01*
X253100Y216643D01*
X253300D01*
X253500Y216443D01*
X260500Y216043D02*
X260900Y216443D01*
X261300D01*
X260900Y216843D01*
X261300Y217243D01*
X260900D01*
X260500Y217643D01*
X260100Y217243D01*
X259700D01*
X260100Y216843D01*
X259700Y216443D01*
X260100D01*
X260500Y216043D01*
Y216443D02*
X260700Y216643D01*
X260900D01*
X260700Y216843D01*
X260900Y217043D01*
X260700D01*
X260500Y217243D01*
X260300Y217043D01*
X260100D01*
X260300Y216843D01*
X260100Y216643D01*
X260300D01*
X260500Y216443D01*
X211500Y216043D02*
X211900Y216443D01*
X212300D01*
X211900Y216843D01*
X212300Y217243D01*
X211900D01*
X211500Y217643D01*
X211100Y217243D01*
X210700D01*
X211100Y216843D01*
X210700Y216443D01*
X211100D01*
X211500Y216043D01*
Y216443D02*
X211700Y216643D01*
X211900D01*
X211700Y216843D01*
X211900Y217043D01*
X211700D01*
X211500Y217243D01*
X211300Y217043D01*
X211100D01*
X211300Y216843D01*
X211100Y216643D01*
X211300D01*
X211500Y216443D01*
X218500Y216043D02*
X218900Y216443D01*
X219300D01*
X218900Y216843D01*
X219300Y217243D01*
X218900D01*
X218500Y217643D01*
X218100Y217243D01*
X217700D01*
X218100Y216843D01*
X217700Y216443D01*
X218100D01*
X218500Y216043D01*
Y216443D02*
X218700Y216643D01*
X218900D01*
X218700Y216843D01*
X218900Y217043D01*
X218700D01*
X218500Y217243D01*
X218300Y217043D01*
X218100D01*
X218300Y216843D01*
X218100Y216643D01*
X218300D01*
X218500Y216443D01*
X225500Y216043D02*
X225900Y216443D01*
X226300D01*
X225900Y216843D01*
X226300Y217243D01*
X225900D01*
X225500Y217643D01*
X225100Y217243D01*
X224700D01*
X225100Y216843D01*
X224700Y216443D01*
X225100D01*
X225500Y216043D01*
Y216443D02*
X225700Y216643D01*
X225900D01*
X225700Y216843D01*
X225900Y217043D01*
X225700D01*
X225500Y217243D01*
X225300Y217043D01*
X225100D01*
X225300Y216843D01*
X225100Y216643D01*
X225300D01*
X225500Y216443D01*
X232500Y216043D02*
X232900Y216443D01*
X233300D01*
X232900Y216843D01*
X233300Y217243D01*
X232900D01*
X232500Y217643D01*
X232100Y217243D01*
X231700D01*
X232100Y216843D01*
X231700Y216443D01*
X232100D01*
X232500Y216043D01*
Y216443D02*
X232700Y216643D01*
X232900D01*
X232700Y216843D01*
X232900Y217043D01*
X232700D01*
X232500Y217243D01*
X232300Y217043D01*
X232100D01*
X232300Y216843D01*
X232100Y216643D01*
X232300D01*
X232500Y216443D01*
X239500Y216043D02*
X239900Y216443D01*
X240300D01*
X239900Y216843D01*
X240300Y217243D01*
X239900D01*
X239500Y217643D01*
X239100Y217243D01*
X238700D01*
X239100Y216843D01*
X238700Y216443D01*
X239100D01*
X239500Y216043D01*
Y216443D02*
X239700Y216643D01*
X239900D01*
X239700Y216843D01*
X239900Y217043D01*
X239700D01*
X239500Y217243D01*
X239300Y217043D01*
X239100D01*
X239300Y216843D01*
X239100Y216643D01*
X239300D01*
X239500Y216443D01*
Y160043D02*
X239900Y160443D01*
X240300D01*
X239900Y160843D01*
X240300Y161243D01*
X239900D01*
X239500Y161643D01*
X239100Y161243D01*
X238700D01*
X239100Y160843D01*
X238700Y160443D01*
X239100D01*
X239500Y160043D01*
Y160443D02*
X239700Y160643D01*
X239900D01*
X239700Y160843D01*
X239900Y161043D01*
X239700D01*
X239500Y161243D01*
X239300Y161043D01*
X239100D01*
X239300Y160843D01*
X239100Y160643D01*
X239300D01*
X239500Y160443D01*
X232500Y160043D02*
X232900Y160443D01*
X233300D01*
X232900Y160843D01*
X233300Y161243D01*
X232900D01*
X232500Y161643D01*
X232100Y161243D01*
X231700D01*
X232100Y160843D01*
X231700Y160443D01*
X232100D01*
X232500Y160043D01*
Y160443D02*
X232700Y160643D01*
X232900D01*
X232700Y160843D01*
X232900Y161043D01*
X232700D01*
X232500Y161243D01*
X232300Y161043D01*
X232100D01*
X232300Y160843D01*
X232100Y160643D01*
X232300D01*
X232500Y160443D01*
X225500Y160043D02*
X225900Y160443D01*
X226300D01*
X225900Y160843D01*
X226300Y161243D01*
X225900D01*
X225500Y161643D01*
X225100Y161243D01*
X224700D01*
X225100Y160843D01*
X224700Y160443D01*
X225100D01*
X225500Y160043D01*
Y160443D02*
X225700Y160643D01*
X225900D01*
X225700Y160843D01*
X225900Y161043D01*
X225700D01*
X225500Y161243D01*
X225300Y161043D01*
X225100D01*
X225300Y160843D01*
X225100Y160643D01*
X225300D01*
X225500Y160443D01*
X218500Y160043D02*
X218900Y160443D01*
X219300D01*
X218900Y160843D01*
X219300Y161243D01*
X218900D01*
X218500Y161643D01*
X218100Y161243D01*
X217700D01*
X218100Y160843D01*
X217700Y160443D01*
X218100D01*
X218500Y160043D01*
Y160443D02*
X218700Y160643D01*
X218900D01*
X218700Y160843D01*
X218900Y161043D01*
X218700D01*
X218500Y161243D01*
X218300Y161043D01*
X218100D01*
X218300Y160843D01*
X218100Y160643D01*
X218300D01*
X218500Y160443D01*
X204500Y160043D02*
X204900Y160443D01*
X205300D01*
X204900Y160843D01*
X205300Y161243D01*
X204900D01*
X204500Y161643D01*
X204100Y161243D01*
X203700D01*
X204100Y160843D01*
X203700Y160443D01*
X204100D01*
X204500Y160043D01*
Y160443D02*
X204700Y160643D01*
X204900D01*
X204700Y160843D01*
X204900Y161043D01*
X204700D01*
X204500Y161243D01*
X204300Y161043D01*
X204100D01*
X204300Y160843D01*
X204100Y160643D01*
X204300D01*
X204500Y160443D01*
X211500Y160043D02*
X211900Y160443D01*
X212300D01*
X211900Y160843D01*
X212300Y161243D01*
X211900D01*
X211500Y161643D01*
X211100Y161243D01*
X210700D01*
X211100Y160843D01*
X210700Y160443D01*
X211100D01*
X211500Y160043D01*
Y160443D02*
X211700Y160643D01*
X211900D01*
X211700Y160843D01*
X211900Y161043D01*
X211700D01*
X211500Y161243D01*
X211300Y161043D01*
X211100D01*
X211300Y160843D01*
X211100Y160643D01*
X211300D01*
X211500Y160443D01*
X260500Y160043D02*
X260900Y160443D01*
X261300D01*
X260900Y160843D01*
X261300Y161243D01*
X260900D01*
X260500Y161643D01*
X260100Y161243D01*
X259700D01*
X260100Y160843D01*
X259700Y160443D01*
X260100D01*
X260500Y160043D01*
Y160443D02*
X260700Y160643D01*
X260900D01*
X260700Y160843D01*
X260900Y161043D01*
X260700D01*
X260500Y161243D01*
X260300Y161043D01*
X260100D01*
X260300Y160843D01*
X260100Y160643D01*
X260300D01*
X260500Y160443D01*
X253500Y160043D02*
X253900Y160443D01*
X254300D01*
X253900Y160843D01*
X254300Y161243D01*
X253900D01*
X253500Y161643D01*
X253100Y161243D01*
X252700D01*
X253100Y160843D01*
X252700Y160443D01*
X253100D01*
X253500Y160043D01*
Y160443D02*
X253700Y160643D01*
X253900D01*
X253700Y160843D01*
X253900Y161043D01*
X253700D01*
X253500Y161243D01*
X253300Y161043D01*
X253100D01*
X253300Y160843D01*
X253100Y160643D01*
X253300D01*
X253500Y160443D01*
X246500Y160043D02*
X246900Y160443D01*
X247300D01*
X246900Y160843D01*
X247300Y161243D01*
X246900D01*
X246500Y161643D01*
X246100Y161243D01*
X245700D01*
X246100Y160843D01*
X245700Y160443D01*
X246100D01*
X246500Y160043D01*
Y160443D02*
X246700Y160643D01*
X246900D01*
X246700Y160843D01*
X246900Y161043D01*
X246700D01*
X246500Y161243D01*
X246300Y161043D01*
X246100D01*
X246300Y160843D01*
X246100Y160643D01*
X246300D01*
X246500Y160443D01*
X267500Y160043D02*
X267900Y160443D01*
X268300D01*
X267900Y160843D01*
X268300Y161243D01*
X267900D01*
X267500Y161643D01*
X267100Y161243D01*
X266700D01*
X267100Y160843D01*
X266700Y160443D01*
X267100D01*
X267500Y160043D01*
Y160443D02*
X267700Y160643D01*
X267900D01*
X267700Y160843D01*
X267900Y161043D01*
X267700D01*
X267500Y161243D01*
X267300Y161043D01*
X267100D01*
X267300Y160843D01*
X267100Y160643D01*
X267300D01*
X267500Y160443D01*
X274500Y160043D02*
X274900Y160443D01*
X275300D01*
X274900Y160843D01*
X275300Y161243D01*
X274900D01*
X274500Y161643D01*
X274100Y161243D01*
X273700D01*
X274100Y160843D01*
X273700Y160443D01*
X274100D01*
X274500Y160043D01*
Y160443D02*
X274700Y160643D01*
X274900D01*
X274700Y160843D01*
X274900Y161043D01*
X274700D01*
X274500Y161243D01*
X274300Y161043D01*
X274100D01*
X274300Y160843D01*
X274100Y160643D01*
X274300D01*
X274500Y160443D01*
X281500Y160043D02*
X281900Y160443D01*
X282300D01*
X281900Y160843D01*
X282300Y161243D01*
X281900D01*
X281500Y161643D01*
X281100Y161243D01*
X280700D01*
X281100Y160843D01*
X280700Y160443D01*
X281100D01*
X281500Y160043D01*
Y160443D02*
X281700Y160643D01*
X281900D01*
X281700Y160843D01*
X281900Y161043D01*
X281700D01*
X281500Y161243D01*
X281300Y161043D01*
X281100D01*
X281300Y160843D01*
X281100Y160643D01*
X281300D01*
X281500Y160443D01*
X288500Y160043D02*
X288900Y160443D01*
X289300D01*
X288900Y160843D01*
X289300Y161243D01*
X288900D01*
X288500Y161643D01*
X288100Y161243D01*
X287700D01*
X288100Y160843D01*
X287700Y160443D01*
X288100D01*
X288500Y160043D01*
Y160443D02*
X288700Y160643D01*
X288900D01*
X288700Y160843D01*
X288900Y161043D01*
X288700D01*
X288500Y161243D01*
X288300Y161043D01*
X288100D01*
X288300Y160843D01*
X288100Y160643D01*
X288300D01*
X288500Y160443D01*
D117*
X37485Y189500D02*
G03*
X37485Y189500I-800J0D01*
G01*
X24800Y130500D02*
G03*
X24800Y130500I-800J0D01*
G01*
Y90600D02*
G03*
X24800Y90600I-800J0D01*
G01*
X30800Y120500D02*
G03*
X30800Y120500I-800J0D01*
G01*
Y80600D02*
G03*
X30800Y80600I-800J0D01*
G01*
D118*
X24400Y130500D02*
G03*
X24400Y130500I-400J0D01*
G01*
Y90600D02*
G03*
X24400Y90600I-400J0D01*
G01*
X30400Y120500D02*
G03*
X30400Y120500I-400J0D01*
G01*
Y80600D02*
G03*
X30400Y80600I-400J0D01*
G01*
M02*
