G04*
G04 #@! TF.GenerationSoftware,Altium Limited,Altium Designer,18.0.12 (696)*
G04*
G04 Layer_Physical_Order=1*
G04 Layer_Color=255*
%FSLAX25Y25*%
%MOIN*%
G70*
G01*
G75*
%ADD15C,0.00800*%
%ADD18C,0.01000*%
%ADD66C,0.01968*%
G04:AMPARAMS|DCode=67|XSize=11.81mil|YSize=13.78mil|CornerRadius=2.95mil|HoleSize=0mil|Usage=FLASHONLY|Rotation=270.000|XOffset=0mil|YOffset=0mil|HoleType=Round|Shape=RoundedRectangle|*
%AMROUNDEDRECTD67*
21,1,0.01181,0.00787,0,0,270.0*
21,1,0.00591,0.01378,0,0,270.0*
1,1,0.00591,-0.00394,-0.00295*
1,1,0.00591,-0.00394,0.00295*
1,1,0.00591,0.00394,0.00295*
1,1,0.00591,0.00394,-0.00295*
%
%ADD67ROUNDEDRECTD67*%
%ADD68R,0.02284X0.04646*%
%ADD69R,0.01968X0.02953*%
%ADD70R,0.26378X0.26378*%
%ADD71R,0.11811X0.06299*%
%ADD72R,0.03150X0.03543*%
%ADD73R,0.05512X0.04331*%
%ADD74R,0.04331X0.05512*%
%ADD75R,0.03504X0.03110*%
%ADD76R,0.03543X0.03150*%
%ADD77R,0.06600X0.07400*%
%ADD78R,0.05000X0.01100*%
%ADD79R,0.03543X0.02756*%
%ADD80R,0.02756X0.03543*%
%ADD81R,0.02200X0.05000*%
%ADD82R,0.05000X0.02200*%
%ADD83R,0.05200X0.02000*%
%ADD84R,0.05200X0.02200*%
%ADD85R,0.08661X0.04134*%
%ADD86R,0.04134X0.03937*%
%ADD87R,0.03543X0.02846*%
%ADD88R,0.02953X0.03347*%
%ADD89R,0.05906X0.05906*%
%ADD90R,0.06102X0.05315*%
%ADD91R,0.04606X0.07087*%
%ADD92R,0.07480X0.05315*%
%ADD93R,0.04724X0.03937*%
%ADD94R,0.03347X0.04331*%
%ADD95R,0.03445X0.04331*%
%ADD96R,0.02953X0.04331*%
%ADD97O,0.01378X0.07087*%
%ADD98R,0.05315X0.01575*%
%ADD99R,0.07480X0.05906*%
%ADD100C,0.02200*%
%ADD101C,0.01181*%
%ADD102C,0.02846*%
%ADD103R,0.05906X0.03150*%
%ADD104R,0.03150X0.05906*%
%ADD105R,0.03150X0.05906*%
%ADD106C,0.09449*%
%ADD107C,0.08858*%
%ADD108C,0.03600*%
%ADD109C,0.05709*%
%ADD110R,0.05600X0.05600*%
%ADD111C,0.05600*%
%ADD112C,0.09600*%
%ADD113C,0.06000*%
%ADD114C,0.12800*%
%ADD115C,0.02500*%
G36*
X300000Y158000D02*
X201500Y158000D01*
X201500Y198502D01*
X203772D01*
X203821Y198002D01*
X203622Y197962D01*
X202878Y197465D01*
X202380Y196721D01*
X202305Y196343D01*
X206695D01*
X206620Y196721D01*
X206122Y197465D01*
X205378Y197962D01*
X205179Y198002D01*
X205228Y198502D01*
X247669D01*
Y197571D01*
X248926D01*
Y196929D01*
X247728D01*
Y191895D01*
X247544Y191655D01*
X247338Y191516D01*
X246463D01*
X246425Y191523D01*
X246387Y191516D01*
X238613D01*
X238575Y191523D01*
X238537Y191516D01*
X237563D01*
Y191378D01*
X236233Y191287D01*
X235724Y191285D01*
X235532Y191246D01*
X235339Y191208D01*
X235337Y191206D01*
X235335Y191206D01*
X235172Y191096D01*
X235008Y190987D01*
X235007Y190985D01*
X235005Y190983D01*
X234953Y190905D01*
X231183D01*
X231141Y190971D01*
X231132Y190978D01*
X231126Y190987D01*
X230969Y191091D01*
X230815Y191199D01*
X230804Y191202D01*
X230795Y191208D01*
X230610Y191244D01*
X230426Y191285D01*
X229432Y191306D01*
X228702Y191364D01*
X228571Y191384D01*
Y191811D01*
X227681D01*
X227680Y191812D01*
X227675Y191811D01*
X227597D01*
X227559Y191819D01*
X227521Y191811D01*
X224831D01*
Y194150D01*
X220000D01*
Y191583D01*
X222437D01*
Y186102D01*
X220000D01*
Y183536D01*
X224831D01*
Y185874D01*
X227521D01*
X227559Y185866D01*
X227597Y185874D01*
X227675D01*
X227680Y185874D01*
X227681Y185874D01*
X228571D01*
Y186301D01*
X228693Y186319D01*
X229901Y186395D01*
X230415Y186400D01*
X230605Y186440D01*
X230795Y186478D01*
X230799Y186480D01*
X230804Y186481D01*
X230965Y186591D01*
X231126Y186699D01*
X231129Y186703D01*
X231133Y186706D01*
X231182Y186780D01*
X234953D01*
X235005Y186702D01*
X235007Y186700D01*
X235008Y186699D01*
X235171Y186590D01*
X235335Y186479D01*
X235337Y186479D01*
X235339Y186478D01*
X235532Y186439D01*
X235724Y186400D01*
X236253Y186398D01*
X237494Y186363D01*
X237563Y186357D01*
Y186169D01*
X238537D01*
X238575Y186162D01*
X238613Y186169D01*
X246387D01*
X246425Y186162D01*
X246463Y186169D01*
X247437D01*
Y186307D01*
X248767Y186398D01*
X249275Y186400D01*
X249372Y186420D01*
X253272D01*
X253272Y186420D01*
X253309Y186238D01*
X253343Y186073D01*
X253407Y185977D01*
X253629Y185645D01*
X254058Y185359D01*
X254457Y185279D01*
Y186874D01*
X255457D01*
Y185279D01*
X255856Y185359D01*
X256284Y185645D01*
X256571Y186073D01*
X256656Y186504D01*
X260344D01*
X260430Y186073D01*
X260716Y185645D01*
X261144Y185359D01*
X261543Y185279D01*
Y186874D01*
X262543D01*
Y185279D01*
X262942Y185359D01*
X263371Y185645D01*
X263657Y186073D01*
X263758Y186579D01*
X264157Y186780D01*
X274367D01*
X274398Y186729D01*
X274415Y186716D01*
X274427Y186699D01*
X274575Y186600D01*
X274719Y186495D01*
X274740Y186489D01*
X274758Y186478D01*
X274933Y186443D01*
X275106Y186401D01*
X275468Y186386D01*
X275778Y186347D01*
X276081Y186281D01*
X276378Y186190D01*
X276671Y186071D01*
X276961Y185924D01*
X277250Y185748D01*
X277537Y185541D01*
X277824Y185301D01*
X278015Y185118D01*
X278128Y184970D01*
X279262Y184100D01*
X280583Y183553D01*
X282000Y183367D01*
X283417Y183553D01*
X284738Y184100D01*
X285872Y184970D01*
X286742Y186105D01*
X287289Y187425D01*
X287476Y188843D01*
X287289Y190260D01*
X286742Y191581D01*
X285872Y192715D01*
X284738Y193585D01*
X283417Y194132D01*
X282000Y194319D01*
X280583Y194132D01*
X279262Y193585D01*
X278128Y192715D01*
X278015Y192568D01*
X277824Y192384D01*
X277537Y192145D01*
X277250Y191937D01*
X276961Y191761D01*
X276671Y191614D01*
X276378Y191495D01*
X276081Y191404D01*
X275778Y191339D01*
X275468Y191299D01*
X275106Y191284D01*
X274933Y191242D01*
X274758Y191208D01*
X274740Y191196D01*
X274719Y191191D01*
X274575Y191086D01*
X274427Y190987D01*
X274415Y190969D01*
X274398Y190956D01*
X274367Y190905D01*
X264884D01*
X264692Y191367D01*
X268012Y194687D01*
X269113Y193842D01*
X270506Y193265D01*
X271500Y193135D01*
Y198343D01*
X266292D01*
X266423Y197348D01*
X266739Y196586D01*
X265272Y195119D01*
X264772Y195326D01*
Y199465D01*
X259228D01*
Y199306D01*
X258766Y199115D01*
X258331Y199551D01*
Y203114D01*
X253575D01*
Y197571D01*
X257138D01*
X258416Y196293D01*
X258780Y196050D01*
X259209Y195965D01*
X259228Y195490D01*
Y194709D01*
X260878D01*
Y194117D01*
X260716Y194009D01*
X260430Y193580D01*
X260344Y193150D01*
X256656D01*
X256571Y193580D01*
X256284Y194009D01*
X255856Y194295D01*
X255457Y194374D01*
Y192780D01*
X254457D01*
Y194374D01*
X254058Y194295D01*
X253772Y194104D01*
X253314Y194288D01*
X253272Y194325D01*
Y196929D01*
X251169D01*
Y197571D01*
X252425D01*
Y203114D01*
X247669D01*
Y200745D01*
X206266D01*
X206189Y201001D01*
X206138Y201245D01*
X206620Y201965D01*
X206695Y202343D01*
X202305D01*
X202380Y201965D01*
X202862Y201245D01*
X202811Y201001D01*
X202733Y200745D01*
X201500D01*
Y220000D01*
X300000Y220000D01*
X300000Y158000D01*
D02*
G37*
G36*
X263298Y187708D02*
X263156Y187812D01*
X262884Y187986D01*
X262753Y188056D01*
X262626Y188116D01*
X262502Y188165D01*
X262382Y188203D01*
X262265Y188230D01*
X262153Y188247D01*
X262043Y188252D01*
Y189433D01*
X262153Y189439D01*
X262265Y189455D01*
X262382Y189482D01*
X262502Y189520D01*
X262626Y189569D01*
X262753Y189629D01*
X262884Y189699D01*
X263156Y189874D01*
X263298Y189977D01*
Y187708D01*
D02*
G37*
G36*
X253844Y189874D02*
X254116Y189699D01*
X254247Y189629D01*
X254374Y189569D01*
X254498Y189520D01*
X254618Y189482D01*
X254735Y189455D01*
X254847Y189439D01*
X254957Y189433D01*
Y188252D01*
X254847Y188247D01*
X254735Y188230D01*
X254618Y188203D01*
X254498Y188165D01*
X254374Y188116D01*
X254247Y188056D01*
X254116Y187986D01*
X253844Y187812D01*
X253702Y187708D01*
Y189977D01*
X253844Y189874D01*
D02*
G37*
G36*
X246453Y190459D02*
X246539Y190418D01*
X246681Y190382D01*
X246880Y190351D01*
X247449Y190304D01*
X248730Y190268D01*
X249271Y190266D01*
Y187420D01*
X248730Y187417D01*
X246539Y187267D01*
X246453Y187227D01*
X246425Y187181D01*
Y190504D01*
X246453Y190459D01*
D02*
G37*
G36*
X238575Y187181D02*
X238547Y187227D01*
X238461Y187267D01*
X238319Y187303D01*
X238120Y187334D01*
X237550Y187381D01*
X236270Y187417D01*
X235729Y187420D01*
Y190266D01*
X236270Y190268D01*
X238461Y190418D01*
X238547Y190459D01*
X238575Y190504D01*
Y187181D01*
D02*
G37*
G36*
X227587Y190698D02*
X227673Y190607D01*
X227815Y190527D01*
X228014Y190458D01*
X228270Y190399D01*
X228584Y190351D01*
X229380Y190287D01*
X230405Y190266D01*
Y187420D01*
X229864Y187414D01*
X228584Y187334D01*
X228270Y187286D01*
X228014Y187227D01*
X227815Y187158D01*
X227673Y187078D01*
X227587Y186987D01*
X227559Y186886D01*
Y190799D01*
X227587Y190698D01*
D02*
G37*
G36*
X278837Y185742D02*
X278504Y186061D01*
X278163Y186346D01*
X277814Y186598D01*
X277458Y186816D01*
X277093Y187000D01*
X276720Y187151D01*
X276339Y187269D01*
X275950Y187353D01*
X275553Y187403D01*
X275148Y187420D01*
Y190266D01*
X275553Y190282D01*
X275950Y190333D01*
X276339Y190417D01*
X276720Y190534D01*
X277093Y190685D01*
X277458Y190869D01*
X277814Y191087D01*
X278163Y191339D01*
X278504Y191624D01*
X278837Y191943D01*
Y185742D01*
D02*
G37*
G36*
X61500Y220000D02*
Y201233D01*
X20000D01*
X19337Y201101D01*
X18774Y200726D01*
X15774Y197726D01*
X15399Y197163D01*
X15267Y196500D01*
Y193453D01*
X14425D01*
Y185547D01*
X19575D01*
Y193453D01*
X18733D01*
Y195782D01*
X20718Y197767D01*
X61500D01*
Y184433D01*
X40018D01*
X39381Y185070D01*
X39260Y185547D01*
X39260D01*
X39260Y185547D01*
Y189000D01*
X34110D01*
Y185547D01*
X34952D01*
Y185315D01*
X35084Y184652D01*
X35459Y184089D01*
X38074Y181474D01*
X38637Y181099D01*
X39300Y180967D01*
X61500D01*
Y170951D01*
X58574Y168026D01*
X58199Y167463D01*
X58067Y166800D01*
Y162356D01*
X57700D01*
Y155356D01*
X57700Y155356D01*
X57700D01*
X57491Y154942D01*
X56194Y153645D01*
X55405D01*
Y156061D01*
X41594D01*
Y147762D01*
X55405D01*
Y150178D01*
X56911D01*
X57200Y150236D01*
X57700Y149838D01*
Y145500D01*
X57265Y145000D01*
X0Y145000D01*
X-0Y220000D01*
X61500Y220000D01*
D02*
G37*
G36*
X7474Y53331D02*
X3931D01*
Y55299D01*
X7474Y55299D01*
Y53331D01*
D02*
G37*
G36*
X9443Y48213D02*
X1962D01*
Y53331D01*
X9443D01*
Y48213D01*
D02*
G37*
G36*
Y24984D02*
X1962D01*
Y30102D01*
X9443D01*
Y24984D01*
D02*
G37*
G36*
X7474Y23016D02*
X3931Y23016D01*
Y24984D01*
X7474D01*
Y23016D01*
D02*
G37*
G36*
X300000Y-20000D02*
X201500Y-20000D01*
X201500Y42000D01*
X300000Y42000D01*
X300000Y-20000D01*
D02*
G37*
%LPC*%
G36*
X296000Y219037D02*
Y217343D01*
X297695D01*
X297620Y217721D01*
X297122Y218465D01*
X296378Y218962D01*
X296000Y219037D01*
D02*
G37*
G36*
X295000D02*
X294622Y218962D01*
X293878Y218465D01*
X293380Y217721D01*
X293305Y217343D01*
X295000D01*
Y219037D01*
D02*
G37*
G36*
X289000D02*
Y217343D01*
X290695D01*
X290619Y217721D01*
X290122Y218465D01*
X289378Y218962D01*
X289000Y219037D01*
D02*
G37*
G36*
X288000D02*
X287622Y218962D01*
X286878Y218465D01*
X286381Y217721D01*
X286305Y217343D01*
X288000D01*
Y219037D01*
D02*
G37*
G36*
X282000D02*
Y217343D01*
X283695D01*
X283619Y217721D01*
X283122Y218465D01*
X282378Y218962D01*
X282000Y219037D01*
D02*
G37*
G36*
X281000D02*
X280622Y218962D01*
X279878Y218465D01*
X279380Y217721D01*
X279305Y217343D01*
X281000D01*
Y219037D01*
D02*
G37*
G36*
X275000D02*
Y217343D01*
X276695D01*
X276620Y217721D01*
X276122Y218465D01*
X275378Y218962D01*
X275000Y219037D01*
D02*
G37*
G36*
X274000D02*
X273622Y218962D01*
X272878Y218465D01*
X272380Y217721D01*
X272305Y217343D01*
X274000D01*
Y219037D01*
D02*
G37*
G36*
X268000D02*
Y217343D01*
X269695D01*
X269619Y217721D01*
X269122Y218465D01*
X268378Y218962D01*
X268000Y219037D01*
D02*
G37*
G36*
X267000D02*
X266622Y218962D01*
X265878Y218465D01*
X265381Y217721D01*
X265305Y217343D01*
X267000D01*
Y219037D01*
D02*
G37*
G36*
X261000D02*
Y217343D01*
X262695D01*
X262619Y217721D01*
X262122Y218465D01*
X261378Y218962D01*
X261000Y219037D01*
D02*
G37*
G36*
X260000D02*
X259622Y218962D01*
X258878Y218465D01*
X258381Y217721D01*
X258305Y217343D01*
X260000D01*
Y219037D01*
D02*
G37*
G36*
X254000D02*
Y217343D01*
X255695D01*
X255620Y217721D01*
X255122Y218465D01*
X254378Y218962D01*
X254000Y219037D01*
D02*
G37*
G36*
X253000D02*
X252622Y218962D01*
X251878Y218465D01*
X251380Y217721D01*
X251305Y217343D01*
X253000D01*
Y219037D01*
D02*
G37*
G36*
X247000D02*
Y217343D01*
X248695D01*
X248620Y217721D01*
X248122Y218465D01*
X247378Y218962D01*
X247000Y219037D01*
D02*
G37*
G36*
X246000D02*
X245622Y218962D01*
X244878Y218465D01*
X244380Y217721D01*
X244305Y217343D01*
X246000D01*
Y219037D01*
D02*
G37*
G36*
X240000D02*
Y217343D01*
X241695D01*
X241619Y217721D01*
X241122Y218465D01*
X240378Y218962D01*
X240000Y219037D01*
D02*
G37*
G36*
X239000D02*
X238622Y218962D01*
X237878Y218465D01*
X237381Y217721D01*
X237305Y217343D01*
X239000D01*
Y219037D01*
D02*
G37*
G36*
X233000D02*
Y217343D01*
X234695D01*
X234619Y217721D01*
X234122Y218465D01*
X233378Y218962D01*
X233000Y219037D01*
D02*
G37*
G36*
X232000D02*
X231622Y218962D01*
X230878Y218465D01*
X230381Y217721D01*
X230305Y217343D01*
X232000D01*
Y219037D01*
D02*
G37*
G36*
X226000D02*
Y217343D01*
X227695D01*
X227620Y217721D01*
X227122Y218465D01*
X226378Y218962D01*
X226000Y219037D01*
D02*
G37*
G36*
X225000D02*
X224622Y218962D01*
X223878Y218465D01*
X223380Y217721D01*
X223305Y217343D01*
X225000D01*
Y219037D01*
D02*
G37*
G36*
X219000D02*
Y217343D01*
X220695D01*
X220620Y217721D01*
X220122Y218465D01*
X219378Y218962D01*
X219000Y219037D01*
D02*
G37*
G36*
X218000D02*
X217622Y218962D01*
X216878Y218465D01*
X216381Y217721D01*
X216305Y217343D01*
X218000D01*
Y219037D01*
D02*
G37*
G36*
X212000D02*
Y217343D01*
X213695D01*
X213619Y217721D01*
X213122Y218465D01*
X212378Y218962D01*
X212000Y219037D01*
D02*
G37*
G36*
X211000D02*
X210622Y218962D01*
X209878Y218465D01*
X209381Y217721D01*
X209305Y217343D01*
X211000D01*
Y219037D01*
D02*
G37*
G36*
X205000D02*
Y217343D01*
X206695D01*
X206620Y217721D01*
X206122Y218465D01*
X205378Y218962D01*
X205000Y219037D01*
D02*
G37*
G36*
X204000D02*
X203622Y218962D01*
X202878Y218465D01*
X202380Y217721D01*
X202305Y217343D01*
X204000D01*
Y219037D01*
D02*
G37*
G36*
X297695Y216343D02*
X296000D01*
Y214648D01*
X296378Y214723D01*
X297122Y215220D01*
X297620Y215965D01*
X297695Y216343D01*
D02*
G37*
G36*
X295000D02*
X293305D01*
X293380Y215965D01*
X293878Y215220D01*
X294622Y214723D01*
X295000Y214648D01*
Y216343D01*
D02*
G37*
G36*
X290695D02*
X289000D01*
Y214648D01*
X289378Y214723D01*
X290122Y215220D01*
X290619Y215965D01*
X290695Y216343D01*
D02*
G37*
G36*
X288000D02*
X286305D01*
X286381Y215965D01*
X286878Y215220D01*
X287622Y214723D01*
X288000Y214648D01*
Y216343D01*
D02*
G37*
G36*
X283695D02*
X282000D01*
Y214648D01*
X282378Y214723D01*
X283122Y215220D01*
X283619Y215965D01*
X283695Y216343D01*
D02*
G37*
G36*
X281000D02*
X279305D01*
X279380Y215965D01*
X279878Y215220D01*
X280622Y214723D01*
X281000Y214648D01*
Y216343D01*
D02*
G37*
G36*
X276695D02*
X275000D01*
Y214648D01*
X275378Y214723D01*
X276122Y215220D01*
X276620Y215965D01*
X276695Y216343D01*
D02*
G37*
G36*
X274000D02*
X272305D01*
X272380Y215965D01*
X272878Y215220D01*
X273622Y214723D01*
X274000Y214648D01*
Y216343D01*
D02*
G37*
G36*
X269695D02*
X268000D01*
Y214648D01*
X268378Y214723D01*
X269122Y215220D01*
X269619Y215965D01*
X269695Y216343D01*
D02*
G37*
G36*
X267000D02*
X265305D01*
X265381Y215965D01*
X265878Y215220D01*
X266622Y214723D01*
X267000Y214648D01*
Y216343D01*
D02*
G37*
G36*
X262695D02*
X261000D01*
Y214648D01*
X261378Y214723D01*
X262122Y215220D01*
X262619Y215965D01*
X262695Y216343D01*
D02*
G37*
G36*
X260000D02*
X258305D01*
X258381Y215965D01*
X258878Y215220D01*
X259622Y214723D01*
X260000Y214648D01*
Y216343D01*
D02*
G37*
G36*
X255695D02*
X254000D01*
Y214648D01*
X254378Y214723D01*
X255122Y215220D01*
X255620Y215965D01*
X255695Y216343D01*
D02*
G37*
G36*
X253000D02*
X251305D01*
X251380Y215965D01*
X251878Y215220D01*
X252622Y214723D01*
X253000Y214648D01*
Y216343D01*
D02*
G37*
G36*
X248695D02*
X247000D01*
Y214648D01*
X247378Y214723D01*
X248122Y215220D01*
X248620Y215965D01*
X248695Y216343D01*
D02*
G37*
G36*
X246000D02*
X244305D01*
X244380Y215965D01*
X244878Y215220D01*
X245622Y214723D01*
X246000Y214648D01*
Y216343D01*
D02*
G37*
G36*
X241695D02*
X240000D01*
Y214648D01*
X240378Y214723D01*
X241122Y215220D01*
X241619Y215965D01*
X241695Y216343D01*
D02*
G37*
G36*
X239000D02*
X237305D01*
X237381Y215965D01*
X237878Y215220D01*
X238622Y214723D01*
X239000Y214648D01*
Y216343D01*
D02*
G37*
G36*
X234695D02*
X233000D01*
Y214648D01*
X233378Y214723D01*
X234122Y215220D01*
X234619Y215965D01*
X234695Y216343D01*
D02*
G37*
G36*
X232000D02*
X230305D01*
X230381Y215965D01*
X230878Y215220D01*
X231622Y214723D01*
X232000Y214648D01*
Y216343D01*
D02*
G37*
G36*
X227695D02*
X226000D01*
Y214648D01*
X226378Y214723D01*
X227122Y215220D01*
X227620Y215965D01*
X227695Y216343D01*
D02*
G37*
G36*
X225000D02*
X223305D01*
X223380Y215965D01*
X223878Y215220D01*
X224622Y214723D01*
X225000Y214648D01*
Y216343D01*
D02*
G37*
G36*
X220695D02*
X219000D01*
Y214648D01*
X219378Y214723D01*
X220122Y215220D01*
X220620Y215965D01*
X220695Y216343D01*
D02*
G37*
G36*
X218000D02*
X216305D01*
X216381Y215965D01*
X216878Y215220D01*
X217622Y214723D01*
X218000Y214648D01*
Y216343D01*
D02*
G37*
G36*
X213695D02*
X212000D01*
Y214648D01*
X212378Y214723D01*
X213122Y215220D01*
X213619Y215965D01*
X213695Y216343D01*
D02*
G37*
G36*
X211000D02*
X209305D01*
X209381Y215965D01*
X209878Y215220D01*
X210622Y214723D01*
X211000Y214648D01*
Y216343D01*
D02*
G37*
G36*
X206695D02*
X205000D01*
Y214648D01*
X205378Y214723D01*
X206122Y215220D01*
X206620Y215965D01*
X206695Y216343D01*
D02*
G37*
G36*
X204000D02*
X202305D01*
X202380Y215965D01*
X202878Y215220D01*
X203622Y214723D01*
X204000Y214648D01*
Y216343D01*
D02*
G37*
G36*
X296000Y212037D02*
Y210343D01*
X297695D01*
X297620Y210720D01*
X297122Y211465D01*
X296378Y211962D01*
X296000Y212037D01*
D02*
G37*
G36*
X295000D02*
X294622Y211962D01*
X293878Y211465D01*
X293380Y210720D01*
X293305Y210343D01*
X295000D01*
Y212037D01*
D02*
G37*
G36*
X205000D02*
Y210343D01*
X206695D01*
X206620Y210720D01*
X206122Y211465D01*
X205378Y211962D01*
X205000Y212037D01*
D02*
G37*
G36*
X204000D02*
X203622Y211962D01*
X202878Y211465D01*
X202380Y210720D01*
X202305Y210343D01*
X204000D01*
Y212037D01*
D02*
G37*
G36*
X297695Y209343D02*
X296000D01*
Y207648D01*
X296378Y207723D01*
X297122Y208220D01*
X297620Y208965D01*
X297695Y209343D01*
D02*
G37*
G36*
X295000D02*
X293305D01*
X293380Y208965D01*
X293878Y208220D01*
X294622Y207723D01*
X295000Y207648D01*
Y209343D01*
D02*
G37*
G36*
X206695D02*
X205000D01*
Y207648D01*
X205378Y207723D01*
X206122Y208220D01*
X206620Y208965D01*
X206695Y209343D01*
D02*
G37*
G36*
X204000D02*
X202305D01*
X202380Y208965D01*
X202878Y208220D01*
X203622Y207723D01*
X204000Y207648D01*
Y209343D01*
D02*
G37*
G36*
X205000Y205037D02*
Y203343D01*
X206695D01*
X206620Y203720D01*
X206122Y204465D01*
X205378Y204962D01*
X205000Y205037D01*
D02*
G37*
G36*
X204000D02*
X203622Y204962D01*
X202878Y204465D01*
X202380Y203720D01*
X202305Y203343D01*
X204000D01*
Y205037D01*
D02*
G37*
G36*
X264772Y204976D02*
X262500D01*
Y203098D01*
X264772D01*
Y204976D01*
D02*
G37*
G36*
X261500D02*
X259228D01*
Y203098D01*
X261500D01*
Y204976D01*
D02*
G37*
G36*
X264772Y202098D02*
X262500D01*
Y200220D01*
X264772D01*
Y202098D01*
D02*
G37*
G36*
X261500D02*
X259228D01*
Y200220D01*
X261500D01*
Y202098D01*
D02*
G37*
G36*
X272500Y204551D02*
Y199343D01*
X277708D01*
X277577Y200337D01*
X277000Y201729D01*
X276083Y202925D01*
X274887Y203843D01*
X273494Y204420D01*
X272500Y204551D01*
D02*
G37*
G36*
X292500D02*
Y199343D01*
X297708D01*
X297577Y200337D01*
X297000Y201729D01*
X296083Y202925D01*
X294887Y203843D01*
X293494Y204420D01*
X292500Y204551D01*
D02*
G37*
G36*
X271500D02*
X270506Y204420D01*
X269113Y203843D01*
X267917Y202925D01*
X267000Y201729D01*
X266423Y200337D01*
X266292Y199343D01*
X271500D01*
Y204551D01*
D02*
G37*
G36*
X291500D02*
X290506Y204420D01*
X289113Y203843D01*
X287917Y202925D01*
X287000Y201729D01*
X286423Y200337D01*
X286292Y199343D01*
X291500D01*
Y204551D01*
D02*
G37*
G36*
X224831Y197716D02*
X220000D01*
Y195150D01*
X224831D01*
Y197716D01*
D02*
G37*
G36*
X219000D02*
X214169D01*
Y195150D01*
X219000D01*
Y197716D01*
D02*
G37*
G36*
X206695Y195343D02*
X205000D01*
Y193648D01*
X205378Y193723D01*
X206122Y194220D01*
X206620Y194965D01*
X206695Y195343D01*
D02*
G37*
G36*
X204000D02*
X202305D01*
X202380Y194965D01*
X202878Y194220D01*
X203622Y193723D01*
X204000Y193648D01*
Y195343D01*
D02*
G37*
G36*
X297708Y198343D02*
X292500D01*
Y193135D01*
X293494Y193265D01*
X294887Y193842D01*
X296083Y194760D01*
X297000Y195956D01*
X297577Y197348D01*
X297708Y198343D01*
D02*
G37*
G36*
X277708D02*
X272500D01*
Y193135D01*
X273494Y193265D01*
X274887Y193842D01*
X276083Y194760D01*
X277000Y195956D01*
X277577Y197348D01*
X277708Y198343D01*
D02*
G37*
G36*
X291500D02*
X286292D01*
X286423Y197348D01*
X287000Y195956D01*
X287917Y194760D01*
X289113Y193842D01*
X290506Y193265D01*
X291500Y193135D01*
Y198343D01*
D02*
G37*
G36*
X219000Y194150D02*
X214169D01*
Y191583D01*
X219000D01*
Y194150D01*
D02*
G37*
G36*
X205000Y191037D02*
Y189343D01*
X206695D01*
X206620Y189720D01*
X206122Y190465D01*
X205378Y190962D01*
X205000Y191037D01*
D02*
G37*
G36*
X204000D02*
X203622Y190962D01*
X202878Y190465D01*
X202380Y189720D01*
X202305Y189343D01*
X204000D01*
Y191037D01*
D02*
G37*
G36*
X206695Y188343D02*
X205000D01*
Y186648D01*
X205378Y186723D01*
X206122Y187220D01*
X206620Y187965D01*
X206695Y188343D01*
D02*
G37*
G36*
X204000D02*
X202305D01*
X202380Y187965D01*
X202878Y187220D01*
X203622Y186723D01*
X204000Y186648D01*
Y188343D01*
D02*
G37*
G36*
X219000Y186102D02*
X214169D01*
Y183536D01*
X219000D01*
Y186102D01*
D02*
G37*
G36*
X205000Y184037D02*
Y182343D01*
X206695D01*
X206620Y182720D01*
X206122Y183465D01*
X205378Y183962D01*
X205000Y184037D01*
D02*
G37*
G36*
X204000D02*
X203622Y183962D01*
X202878Y183465D01*
X202380Y182720D01*
X202305Y182343D01*
X204000D01*
Y184037D01*
D02*
G37*
G36*
X224831Y182536D02*
X220000D01*
Y179969D01*
X224831D01*
Y182536D01*
D02*
G37*
G36*
X219000D02*
X214169D01*
Y179969D01*
X219000D01*
Y182536D01*
D02*
G37*
G36*
X206695Y181343D02*
X205000D01*
Y179648D01*
X205378Y179723D01*
X206122Y180220D01*
X206620Y180965D01*
X206695Y181343D01*
D02*
G37*
G36*
X204000D02*
X202305D01*
X202380Y180965D01*
X202878Y180220D01*
X203622Y179723D01*
X204000Y179648D01*
Y181343D01*
D02*
G37*
G36*
X272500Y184551D02*
Y179343D01*
X277708D01*
X277577Y180337D01*
X277000Y181729D01*
X276083Y182925D01*
X274887Y183843D01*
X273494Y184420D01*
X272500Y184551D01*
D02*
G37*
G36*
X292500D02*
Y179343D01*
X297708D01*
X297577Y180337D01*
X297000Y181729D01*
X296083Y182925D01*
X294887Y183843D01*
X293494Y184420D01*
X292500Y184551D01*
D02*
G37*
G36*
X271500D02*
X270506Y184420D01*
X269113Y183843D01*
X267917Y182925D01*
X267000Y181729D01*
X266423Y180337D01*
X266292Y179343D01*
X271500D01*
Y184551D01*
D02*
G37*
G36*
X291500D02*
X290506Y184420D01*
X289113Y183843D01*
X287917Y182925D01*
X287000Y181729D01*
X286423Y180337D01*
X286292Y179343D01*
X291500D01*
Y184551D01*
D02*
G37*
G36*
X205000Y177037D02*
Y175343D01*
X206695D01*
X206620Y175721D01*
X206122Y176465D01*
X205378Y176962D01*
X205000Y177037D01*
D02*
G37*
G36*
X204000D02*
X203622Y176962D01*
X202878Y176465D01*
X202380Y175721D01*
X202305Y175343D01*
X204000D01*
Y177037D01*
D02*
G37*
G36*
X297708Y178343D02*
X292500D01*
Y173135D01*
X293494Y173266D01*
X294887Y173842D01*
X296083Y174760D01*
X297000Y175956D01*
X297577Y177348D01*
X297708Y178343D01*
D02*
G37*
G36*
X277708D02*
X272500D01*
Y173135D01*
X273494Y173266D01*
X274887Y173842D01*
X276083Y174760D01*
X277000Y175956D01*
X277577Y177348D01*
X277708Y178343D01*
D02*
G37*
G36*
X291500D02*
X286292D01*
X286423Y177348D01*
X287000Y175956D01*
X287917Y174760D01*
X289113Y173842D01*
X290506Y173266D01*
X291500Y173135D01*
Y178343D01*
D02*
G37*
G36*
X271500D02*
X266292D01*
X266423Y177348D01*
X267000Y175956D01*
X267917Y174760D01*
X269113Y173842D01*
X270506Y173266D01*
X271500Y173135D01*
Y178343D01*
D02*
G37*
G36*
X206695Y174343D02*
X205000D01*
Y172648D01*
X205378Y172723D01*
X206122Y173220D01*
X206620Y173965D01*
X206695Y174343D01*
D02*
G37*
G36*
X204000D02*
X202305D01*
X202380Y173965D01*
X202878Y173220D01*
X203622Y172723D01*
X204000Y172648D01*
Y174343D01*
D02*
G37*
G36*
X296000Y170037D02*
Y168343D01*
X297695D01*
X297620Y168720D01*
X297122Y169465D01*
X296378Y169962D01*
X296000Y170037D01*
D02*
G37*
G36*
X295000D02*
X294622Y169962D01*
X293878Y169465D01*
X293380Y168720D01*
X293305Y168343D01*
X295000D01*
Y170037D01*
D02*
G37*
G36*
X205000D02*
Y168343D01*
X206695D01*
X206620Y168720D01*
X206122Y169465D01*
X205378Y169962D01*
X205000Y170037D01*
D02*
G37*
G36*
X204000D02*
X203622Y169962D01*
X202878Y169465D01*
X202380Y168720D01*
X202305Y168343D01*
X204000D01*
Y170037D01*
D02*
G37*
G36*
X297695Y167343D02*
X296000D01*
Y165648D01*
X296378Y165723D01*
X297122Y166220D01*
X297620Y166965D01*
X297695Y167343D01*
D02*
G37*
G36*
X295000D02*
X293305D01*
X293380Y166965D01*
X293878Y166220D01*
X294622Y165723D01*
X295000Y165648D01*
Y167343D01*
D02*
G37*
G36*
X206695D02*
X205000D01*
Y165648D01*
X205378Y165723D01*
X206122Y166220D01*
X206620Y166965D01*
X206695Y167343D01*
D02*
G37*
G36*
X204000D02*
X202305D01*
X202380Y166965D01*
X202878Y166220D01*
X203622Y165723D01*
X204000Y165648D01*
Y167343D01*
D02*
G37*
G36*
X296000Y163037D02*
Y161343D01*
X297695D01*
X297620Y161721D01*
X297122Y162465D01*
X296378Y162962D01*
X296000Y163037D01*
D02*
G37*
G36*
X295000D02*
X294622Y162962D01*
X293878Y162465D01*
X293380Y161721D01*
X293305Y161343D01*
X295000D01*
Y163037D01*
D02*
G37*
G36*
X289000D02*
Y161343D01*
X290695D01*
X290619Y161721D01*
X290122Y162465D01*
X289378Y162962D01*
X289000Y163037D01*
D02*
G37*
G36*
X288000D02*
X287622Y162962D01*
X286878Y162465D01*
X286381Y161721D01*
X286305Y161343D01*
X288000D01*
Y163037D01*
D02*
G37*
G36*
X282000D02*
Y161343D01*
X283695D01*
X283619Y161721D01*
X283122Y162465D01*
X282378Y162962D01*
X282000Y163037D01*
D02*
G37*
G36*
X281000D02*
X280622Y162962D01*
X279878Y162465D01*
X279380Y161721D01*
X279305Y161343D01*
X281000D01*
Y163037D01*
D02*
G37*
G36*
X275000D02*
Y161343D01*
X276695D01*
X276620Y161721D01*
X276122Y162465D01*
X275378Y162962D01*
X275000Y163037D01*
D02*
G37*
G36*
X274000D02*
X273622Y162962D01*
X272878Y162465D01*
X272380Y161721D01*
X272305Y161343D01*
X274000D01*
Y163037D01*
D02*
G37*
G36*
X268000D02*
Y161343D01*
X269695D01*
X269619Y161721D01*
X269122Y162465D01*
X268378Y162962D01*
X268000Y163037D01*
D02*
G37*
G36*
X267000D02*
X266622Y162962D01*
X265878Y162465D01*
X265381Y161721D01*
X265305Y161343D01*
X267000D01*
Y163037D01*
D02*
G37*
G36*
X261000D02*
Y161343D01*
X262695D01*
X262619Y161721D01*
X262122Y162465D01*
X261378Y162962D01*
X261000Y163037D01*
D02*
G37*
G36*
X260000D02*
X259622Y162962D01*
X258878Y162465D01*
X258381Y161721D01*
X258305Y161343D01*
X260000D01*
Y163037D01*
D02*
G37*
G36*
X254000D02*
Y161343D01*
X255695D01*
X255620Y161721D01*
X255122Y162465D01*
X254378Y162962D01*
X254000Y163037D01*
D02*
G37*
G36*
X253000D02*
X252622Y162962D01*
X251878Y162465D01*
X251380Y161721D01*
X251305Y161343D01*
X253000D01*
Y163037D01*
D02*
G37*
G36*
X247000D02*
Y161343D01*
X248695D01*
X248620Y161721D01*
X248122Y162465D01*
X247378Y162962D01*
X247000Y163037D01*
D02*
G37*
G36*
X246000D02*
X245622Y162962D01*
X244878Y162465D01*
X244380Y161721D01*
X244305Y161343D01*
X246000D01*
Y163037D01*
D02*
G37*
G36*
X240000D02*
Y161343D01*
X241695D01*
X241619Y161721D01*
X241122Y162465D01*
X240378Y162962D01*
X240000Y163037D01*
D02*
G37*
G36*
X239000D02*
X238622Y162962D01*
X237878Y162465D01*
X237381Y161721D01*
X237305Y161343D01*
X239000D01*
Y163037D01*
D02*
G37*
G36*
X233000D02*
Y161343D01*
X234695D01*
X234619Y161721D01*
X234122Y162465D01*
X233378Y162962D01*
X233000Y163037D01*
D02*
G37*
G36*
X232000D02*
X231622Y162962D01*
X230878Y162465D01*
X230381Y161721D01*
X230305Y161343D01*
X232000D01*
Y163037D01*
D02*
G37*
G36*
X226000D02*
Y161343D01*
X227695D01*
X227620Y161721D01*
X227122Y162465D01*
X226378Y162962D01*
X226000Y163037D01*
D02*
G37*
G36*
X225000D02*
X224622Y162962D01*
X223878Y162465D01*
X223380Y161721D01*
X223305Y161343D01*
X225000D01*
Y163037D01*
D02*
G37*
G36*
X219000D02*
Y161343D01*
X220695D01*
X220620Y161721D01*
X220122Y162465D01*
X219378Y162962D01*
X219000Y163037D01*
D02*
G37*
G36*
X218000D02*
X217622Y162962D01*
X216878Y162465D01*
X216381Y161721D01*
X216305Y161343D01*
X218000D01*
Y163037D01*
D02*
G37*
G36*
X212000D02*
Y161343D01*
X213695D01*
X213619Y161721D01*
X213122Y162465D01*
X212378Y162962D01*
X212000Y163037D01*
D02*
G37*
G36*
X211000D02*
X210622Y162962D01*
X209878Y162465D01*
X209381Y161721D01*
X209305Y161343D01*
X211000D01*
Y163037D01*
D02*
G37*
G36*
X205000D02*
Y161343D01*
X206695D01*
X206620Y161721D01*
X206122Y162465D01*
X205378Y162962D01*
X205000Y163037D01*
D02*
G37*
G36*
X204000D02*
X203622Y162962D01*
X202878Y162465D01*
X202380Y161721D01*
X202305Y161343D01*
X204000D01*
Y163037D01*
D02*
G37*
G36*
X297695Y160343D02*
X296000D01*
Y158648D01*
X296378Y158723D01*
X297122Y159220D01*
X297620Y159965D01*
X297695Y160343D01*
D02*
G37*
G36*
X295000D02*
X293305D01*
X293380Y159965D01*
X293878Y159220D01*
X294622Y158723D01*
X295000Y158648D01*
Y160343D01*
D02*
G37*
G36*
X290695D02*
X289000D01*
Y158648D01*
X289378Y158723D01*
X290122Y159220D01*
X290619Y159965D01*
X290695Y160343D01*
D02*
G37*
G36*
X288000D02*
X286305D01*
X286381Y159965D01*
X286878Y159220D01*
X287622Y158723D01*
X288000Y158648D01*
Y160343D01*
D02*
G37*
G36*
X283695D02*
X282000D01*
Y158648D01*
X282378Y158723D01*
X283122Y159220D01*
X283619Y159965D01*
X283695Y160343D01*
D02*
G37*
G36*
X281000D02*
X279305D01*
X279380Y159965D01*
X279878Y159220D01*
X280622Y158723D01*
X281000Y158648D01*
Y160343D01*
D02*
G37*
G36*
X276695D02*
X275000D01*
Y158648D01*
X275378Y158723D01*
X276122Y159220D01*
X276620Y159965D01*
X276695Y160343D01*
D02*
G37*
G36*
X274000D02*
X272305D01*
X272380Y159965D01*
X272878Y159220D01*
X273622Y158723D01*
X274000Y158648D01*
Y160343D01*
D02*
G37*
G36*
X269695D02*
X268000D01*
Y158648D01*
X268378Y158723D01*
X269122Y159220D01*
X269619Y159965D01*
X269695Y160343D01*
D02*
G37*
G36*
X267000D02*
X265305D01*
X265381Y159965D01*
X265878Y159220D01*
X266622Y158723D01*
X267000Y158648D01*
Y160343D01*
D02*
G37*
G36*
X262695D02*
X261000D01*
Y158648D01*
X261378Y158723D01*
X262122Y159220D01*
X262619Y159965D01*
X262695Y160343D01*
D02*
G37*
G36*
X260000D02*
X258305D01*
X258381Y159965D01*
X258878Y159220D01*
X259622Y158723D01*
X260000Y158648D01*
Y160343D01*
D02*
G37*
G36*
X255695D02*
X254000D01*
Y158648D01*
X254378Y158723D01*
X255122Y159220D01*
X255620Y159965D01*
X255695Y160343D01*
D02*
G37*
G36*
X253000D02*
X251305D01*
X251380Y159965D01*
X251878Y159220D01*
X252622Y158723D01*
X253000Y158648D01*
Y160343D01*
D02*
G37*
G36*
X248695D02*
X247000D01*
Y158648D01*
X247378Y158723D01*
X248122Y159220D01*
X248620Y159965D01*
X248695Y160343D01*
D02*
G37*
G36*
X246000D02*
X244305D01*
X244380Y159965D01*
X244878Y159220D01*
X245622Y158723D01*
X246000Y158648D01*
Y160343D01*
D02*
G37*
G36*
X241695D02*
X240000D01*
Y158648D01*
X240378Y158723D01*
X241122Y159220D01*
X241619Y159965D01*
X241695Y160343D01*
D02*
G37*
G36*
X239000D02*
X237305D01*
X237381Y159965D01*
X237878Y159220D01*
X238622Y158723D01*
X239000Y158648D01*
Y160343D01*
D02*
G37*
G36*
X234695D02*
X233000D01*
Y158648D01*
X233378Y158723D01*
X234122Y159220D01*
X234619Y159965D01*
X234695Y160343D01*
D02*
G37*
G36*
X232000D02*
X230305D01*
X230381Y159965D01*
X230878Y159220D01*
X231622Y158723D01*
X232000Y158648D01*
Y160343D01*
D02*
G37*
G36*
X227695D02*
X226000D01*
Y158648D01*
X226378Y158723D01*
X227122Y159220D01*
X227620Y159965D01*
X227695Y160343D01*
D02*
G37*
G36*
X225000D02*
X223305D01*
X223380Y159965D01*
X223878Y159220D01*
X224622Y158723D01*
X225000Y158648D01*
Y160343D01*
D02*
G37*
G36*
X220695D02*
X219000D01*
Y158648D01*
X219378Y158723D01*
X220122Y159220D01*
X220620Y159965D01*
X220695Y160343D01*
D02*
G37*
G36*
X218000D02*
X216305D01*
X216381Y159965D01*
X216878Y159220D01*
X217622Y158723D01*
X218000Y158648D01*
Y160343D01*
D02*
G37*
G36*
X213695D02*
X212000D01*
Y158648D01*
X212378Y158723D01*
X213122Y159220D01*
X213619Y159965D01*
X213695Y160343D01*
D02*
G37*
G36*
X211000D02*
X209305D01*
X209381Y159965D01*
X209878Y159220D01*
X210622Y158723D01*
X211000Y158648D01*
Y160343D01*
D02*
G37*
G36*
X206695D02*
X205000D01*
Y158648D01*
X205378Y158723D01*
X206122Y159220D01*
X206620Y159965D01*
X206695Y160343D01*
D02*
G37*
G36*
X204000D02*
X202305D01*
X202380Y159965D01*
X202878Y159220D01*
X203622Y158723D01*
X204000Y158648D01*
Y160343D01*
D02*
G37*
G36*
X59000Y219037D02*
Y217343D01*
X60695D01*
X60619Y217721D01*
X60122Y218465D01*
X59378Y218962D01*
X59000Y219037D01*
D02*
G37*
G36*
X58000D02*
X57622Y218962D01*
X56878Y218465D01*
X56381Y217721D01*
X56305Y217343D01*
X58000D01*
Y219037D01*
D02*
G37*
G36*
X3805D02*
Y217343D01*
X5500D01*
X5425Y217721D01*
X4927Y218465D01*
X4183Y218962D01*
X3805Y219037D01*
D02*
G37*
G36*
X2805D02*
X2427Y218962D01*
X1683Y218465D01*
X1186Y217721D01*
X1111Y217343D01*
X2805D01*
Y219037D01*
D02*
G37*
G36*
X60695Y216343D02*
X59000D01*
Y214648D01*
X59378Y214723D01*
X60122Y215220D01*
X60619Y215965D01*
X60695Y216343D01*
D02*
G37*
G36*
X58000D02*
X56305D01*
X56381Y215965D01*
X56878Y215220D01*
X57622Y214723D01*
X58000Y214648D01*
Y216343D01*
D02*
G37*
G36*
X5500D02*
X3805D01*
Y214648D01*
X4183Y214723D01*
X4927Y215220D01*
X5425Y215965D01*
X5500Y216343D01*
D02*
G37*
G36*
X2805D02*
X1111D01*
X1186Y215965D01*
X1683Y215220D01*
X2427Y214723D01*
X2805Y214648D01*
Y216343D01*
D02*
G37*
G36*
X39260Y193453D02*
X37185D01*
Y190000D01*
X39260D01*
Y193453D01*
D02*
G37*
G36*
X36185D02*
X34110D01*
Y190000D01*
X36185D01*
Y193453D01*
D02*
G37*
G36*
X59000Y178195D02*
Y176500D01*
X60695D01*
X60619Y176878D01*
X60122Y177622D01*
X59378Y178120D01*
X59000Y178195D01*
D02*
G37*
G36*
X58000D02*
X57622Y178120D01*
X56878Y177622D01*
X56381Y176878D01*
X56305Y176500D01*
X58000D01*
Y178195D01*
D02*
G37*
G36*
X3805D02*
Y176500D01*
X5500D01*
X5425Y176878D01*
X4927Y177622D01*
X4183Y178120D01*
X3805Y178195D01*
D02*
G37*
G36*
X2805D02*
X2427Y178120D01*
X1683Y177622D01*
X1186Y176878D01*
X1111Y176500D01*
X2805D01*
Y178195D01*
D02*
G37*
G36*
X30795Y181445D02*
X22890D01*
Y176295D01*
X30795D01*
Y181445D01*
D02*
G37*
G36*
X60695Y175500D02*
X59000D01*
Y173805D01*
X59378Y173881D01*
X60122Y174378D01*
X60619Y175122D01*
X60695Y175500D01*
D02*
G37*
G36*
X58000D02*
X56305D01*
X56381Y175122D01*
X56878Y174378D01*
X57622Y173881D01*
X58000Y173805D01*
Y175500D01*
D02*
G37*
G36*
X5500D02*
X3805D01*
Y173805D01*
X4183Y173881D01*
X4927Y174378D01*
X5425Y175122D01*
X5500Y175500D01*
D02*
G37*
G36*
X2805D02*
X1111D01*
X1186Y175122D01*
X1683Y174378D01*
X2427Y173881D01*
X2805Y173805D01*
Y175500D01*
D02*
G37*
G36*
X55405Y174171D02*
X49000D01*
Y170522D01*
X55405D01*
Y174171D01*
D02*
G37*
G36*
X48000D02*
X41594D01*
Y170522D01*
X48000D01*
Y174171D01*
D02*
G37*
G36*
X55405Y169522D02*
X49000D01*
Y165872D01*
X55405D01*
Y169522D01*
D02*
G37*
G36*
X48000D02*
X41594D01*
Y165872D01*
X48000D01*
Y169522D01*
D02*
G37*
G36*
X36508Y175156D02*
X8130D01*
Y146778D01*
X36508D01*
Y175156D01*
D02*
G37*
G36*
X296000Y41195D02*
Y39500D01*
X297695D01*
X297620Y39878D01*
X297122Y40622D01*
X296378Y41120D01*
X296000Y41195D01*
D02*
G37*
G36*
X295000D02*
X294622Y41120D01*
X293878Y40622D01*
X293380Y39878D01*
X293305Y39500D01*
X295000D01*
Y41195D01*
D02*
G37*
G36*
X289000D02*
Y39500D01*
X290695D01*
X290619Y39878D01*
X290122Y40622D01*
X289378Y41120D01*
X289000Y41195D01*
D02*
G37*
G36*
X288000D02*
X287622Y41120D01*
X286878Y40622D01*
X286381Y39878D01*
X286305Y39500D01*
X288000D01*
Y41195D01*
D02*
G37*
G36*
X282000D02*
Y39500D01*
X283695D01*
X283619Y39878D01*
X283122Y40622D01*
X282378Y41120D01*
X282000Y41195D01*
D02*
G37*
G36*
X281000D02*
X280622Y41120D01*
X279878Y40622D01*
X279380Y39878D01*
X279305Y39500D01*
X281000D01*
Y41195D01*
D02*
G37*
G36*
X275000D02*
Y39500D01*
X276695D01*
X276620Y39878D01*
X276122Y40622D01*
X275378Y41120D01*
X275000Y41195D01*
D02*
G37*
G36*
X274000D02*
X273622Y41120D01*
X272878Y40622D01*
X272380Y39878D01*
X272305Y39500D01*
X274000D01*
Y41195D01*
D02*
G37*
G36*
X268000D02*
Y39500D01*
X269695D01*
X269619Y39878D01*
X269122Y40622D01*
X268378Y41120D01*
X268000Y41195D01*
D02*
G37*
G36*
X267000D02*
X266622Y41120D01*
X265878Y40622D01*
X265381Y39878D01*
X265305Y39500D01*
X267000D01*
Y41195D01*
D02*
G37*
G36*
X261000D02*
Y39500D01*
X262695D01*
X262619Y39878D01*
X262122Y40622D01*
X261378Y41120D01*
X261000Y41195D01*
D02*
G37*
G36*
X260000D02*
X259622Y41120D01*
X258878Y40622D01*
X258381Y39878D01*
X258305Y39500D01*
X260000D01*
Y41195D01*
D02*
G37*
G36*
X254000D02*
Y39500D01*
X255695D01*
X255620Y39878D01*
X255122Y40622D01*
X254378Y41120D01*
X254000Y41195D01*
D02*
G37*
G36*
X253000D02*
X252622Y41120D01*
X251878Y40622D01*
X251380Y39878D01*
X251305Y39500D01*
X253000D01*
Y41195D01*
D02*
G37*
G36*
X247000D02*
Y39500D01*
X248695D01*
X248620Y39878D01*
X248122Y40622D01*
X247378Y41120D01*
X247000Y41195D01*
D02*
G37*
G36*
X246000D02*
X245622Y41120D01*
X244878Y40622D01*
X244380Y39878D01*
X244305Y39500D01*
X246000D01*
Y41195D01*
D02*
G37*
G36*
X240000D02*
Y39500D01*
X241695D01*
X241619Y39878D01*
X241122Y40622D01*
X240378Y41120D01*
X240000Y41195D01*
D02*
G37*
G36*
X239000D02*
X238622Y41120D01*
X237878Y40622D01*
X237381Y39878D01*
X237305Y39500D01*
X239000D01*
Y41195D01*
D02*
G37*
G36*
X233000D02*
Y39500D01*
X234695D01*
X234619Y39878D01*
X234122Y40622D01*
X233378Y41120D01*
X233000Y41195D01*
D02*
G37*
G36*
X232000D02*
X231622Y41120D01*
X230878Y40622D01*
X230381Y39878D01*
X230305Y39500D01*
X232000D01*
Y41195D01*
D02*
G37*
G36*
X226000D02*
Y39500D01*
X227695D01*
X227620Y39878D01*
X227122Y40622D01*
X226378Y41120D01*
X226000Y41195D01*
D02*
G37*
G36*
X225000D02*
X224622Y41120D01*
X223878Y40622D01*
X223380Y39878D01*
X223305Y39500D01*
X225000D01*
Y41195D01*
D02*
G37*
G36*
X219000D02*
Y39500D01*
X220695D01*
X220620Y39878D01*
X220122Y40622D01*
X219378Y41120D01*
X219000Y41195D01*
D02*
G37*
G36*
X218000D02*
X217622Y41120D01*
X216878Y40622D01*
X216381Y39878D01*
X216305Y39500D01*
X218000D01*
Y41195D01*
D02*
G37*
G36*
X212000D02*
Y39500D01*
X213695D01*
X213619Y39878D01*
X213122Y40622D01*
X212378Y41120D01*
X212000Y41195D01*
D02*
G37*
G36*
X211000D02*
X210622Y41120D01*
X209878Y40622D01*
X209381Y39878D01*
X209305Y39500D01*
X211000D01*
Y41195D01*
D02*
G37*
G36*
X205000D02*
Y39500D01*
X206695D01*
X206620Y39878D01*
X206122Y40622D01*
X205378Y41120D01*
X205000Y41195D01*
D02*
G37*
G36*
X204000D02*
X203622Y41120D01*
X202878Y40622D01*
X202380Y39878D01*
X202305Y39500D01*
X204000D01*
Y41195D01*
D02*
G37*
G36*
X297695Y38500D02*
X296000D01*
Y36805D01*
X296378Y36880D01*
X297122Y37378D01*
X297620Y38122D01*
X297695Y38500D01*
D02*
G37*
G36*
X295000D02*
X293305D01*
X293380Y38122D01*
X293878Y37378D01*
X294622Y36880D01*
X295000Y36805D01*
Y38500D01*
D02*
G37*
G36*
X290695D02*
X289000D01*
Y36805D01*
X289378Y36880D01*
X290122Y37378D01*
X290619Y38122D01*
X290695Y38500D01*
D02*
G37*
G36*
X288000D02*
X286305D01*
X286381Y38122D01*
X286878Y37378D01*
X287622Y36880D01*
X288000Y36805D01*
Y38500D01*
D02*
G37*
G36*
X283695D02*
X282000D01*
Y36805D01*
X282378Y36880D01*
X283122Y37378D01*
X283619Y38122D01*
X283695Y38500D01*
D02*
G37*
G36*
X281000D02*
X279305D01*
X279380Y38122D01*
X279878Y37378D01*
X280622Y36880D01*
X281000Y36805D01*
Y38500D01*
D02*
G37*
G36*
X276695D02*
X275000D01*
Y36805D01*
X275378Y36880D01*
X276122Y37378D01*
X276620Y38122D01*
X276695Y38500D01*
D02*
G37*
G36*
X274000D02*
X272305D01*
X272380Y38122D01*
X272878Y37378D01*
X273622Y36880D01*
X274000Y36805D01*
Y38500D01*
D02*
G37*
G36*
X269695D02*
X268000D01*
Y36805D01*
X268378Y36880D01*
X269122Y37378D01*
X269619Y38122D01*
X269695Y38500D01*
D02*
G37*
G36*
X267000D02*
X265305D01*
X265381Y38122D01*
X265878Y37378D01*
X266622Y36880D01*
X267000Y36805D01*
Y38500D01*
D02*
G37*
G36*
X262695D02*
X261000D01*
Y36805D01*
X261378Y36880D01*
X262122Y37378D01*
X262619Y38122D01*
X262695Y38500D01*
D02*
G37*
G36*
X260000D02*
X258305D01*
X258381Y38122D01*
X258878Y37378D01*
X259622Y36880D01*
X260000Y36805D01*
Y38500D01*
D02*
G37*
G36*
X255695D02*
X254000D01*
Y36805D01*
X254378Y36880D01*
X255122Y37378D01*
X255620Y38122D01*
X255695Y38500D01*
D02*
G37*
G36*
X253000D02*
X251305D01*
X251380Y38122D01*
X251878Y37378D01*
X252622Y36880D01*
X253000Y36805D01*
Y38500D01*
D02*
G37*
G36*
X248695D02*
X247000D01*
Y36805D01*
X247378Y36880D01*
X248122Y37378D01*
X248620Y38122D01*
X248695Y38500D01*
D02*
G37*
G36*
X246000D02*
X244305D01*
X244380Y38122D01*
X244878Y37378D01*
X245622Y36880D01*
X246000Y36805D01*
Y38500D01*
D02*
G37*
G36*
X241695D02*
X240000D01*
Y36805D01*
X240378Y36880D01*
X241122Y37378D01*
X241619Y38122D01*
X241695Y38500D01*
D02*
G37*
G36*
X239000D02*
X237305D01*
X237381Y38122D01*
X237878Y37378D01*
X238622Y36880D01*
X239000Y36805D01*
Y38500D01*
D02*
G37*
G36*
X234695D02*
X233000D01*
Y36805D01*
X233378Y36880D01*
X234122Y37378D01*
X234619Y38122D01*
X234695Y38500D01*
D02*
G37*
G36*
X232000D02*
X230305D01*
X230381Y38122D01*
X230878Y37378D01*
X231622Y36880D01*
X232000Y36805D01*
Y38500D01*
D02*
G37*
G36*
X227695D02*
X226000D01*
Y36805D01*
X226378Y36880D01*
X227122Y37378D01*
X227620Y38122D01*
X227695Y38500D01*
D02*
G37*
G36*
X225000D02*
X223305D01*
X223380Y38122D01*
X223878Y37378D01*
X224622Y36880D01*
X225000Y36805D01*
Y38500D01*
D02*
G37*
G36*
X220695D02*
X219000D01*
Y36805D01*
X219378Y36880D01*
X220122Y37378D01*
X220620Y38122D01*
X220695Y38500D01*
D02*
G37*
G36*
X218000D02*
X216305D01*
X216381Y38122D01*
X216878Y37378D01*
X217622Y36880D01*
X218000Y36805D01*
Y38500D01*
D02*
G37*
G36*
X213695D02*
X212000D01*
Y36805D01*
X212378Y36880D01*
X213122Y37378D01*
X213619Y38122D01*
X213695Y38500D01*
D02*
G37*
G36*
X211000D02*
X209305D01*
X209381Y38122D01*
X209878Y37378D01*
X210622Y36880D01*
X211000Y36805D01*
Y38500D01*
D02*
G37*
G36*
X206695D02*
X205000D01*
Y36805D01*
X205378Y36880D01*
X206122Y37378D01*
X206620Y38122D01*
X206695Y38500D01*
D02*
G37*
G36*
X204000D02*
X202305D01*
X202380Y38122D01*
X202878Y37378D01*
X203622Y36880D01*
X204000Y36805D01*
Y38500D01*
D02*
G37*
G36*
X296000Y34195D02*
Y32500D01*
X297695D01*
X297620Y32878D01*
X297122Y33622D01*
X296378Y34119D01*
X296000Y34195D01*
D02*
G37*
G36*
X295000D02*
X294622Y34119D01*
X293878Y33622D01*
X293380Y32878D01*
X293305Y32500D01*
X295000D01*
Y34195D01*
D02*
G37*
G36*
X205000D02*
Y32500D01*
X206695D01*
X206620Y32878D01*
X206122Y33622D01*
X205378Y34119D01*
X205000Y34195D01*
D02*
G37*
G36*
X204000D02*
X203622Y34119D01*
X202878Y33622D01*
X202380Y32878D01*
X202305Y32500D01*
X204000D01*
Y34195D01*
D02*
G37*
G36*
X297695Y31500D02*
X296000D01*
Y29805D01*
X296378Y29880D01*
X297122Y30378D01*
X297620Y31122D01*
X297695Y31500D01*
D02*
G37*
G36*
X295000D02*
X293305D01*
X293380Y31122D01*
X293878Y30378D01*
X294622Y29880D01*
X295000Y29805D01*
Y31500D01*
D02*
G37*
G36*
X206695D02*
X205000D01*
Y29805D01*
X205378Y29880D01*
X206122Y30378D01*
X206620Y31122D01*
X206695Y31500D01*
D02*
G37*
G36*
X204000D02*
X202305D01*
X202380Y31122D01*
X202878Y30378D01*
X203622Y29880D01*
X204000Y29805D01*
Y31500D01*
D02*
G37*
G36*
X205000Y27195D02*
Y25500D01*
X206695D01*
X206620Y25878D01*
X206122Y26622D01*
X205378Y27119D01*
X205000Y27195D01*
D02*
G37*
G36*
X204000D02*
X203622Y27119D01*
X202878Y26622D01*
X202380Y25878D01*
X202305Y25500D01*
X204000D01*
Y27195D01*
D02*
G37*
G36*
X206695Y24500D02*
X205000D01*
Y22805D01*
X205378Y22881D01*
X206122Y23378D01*
X206620Y24122D01*
X206695Y24500D01*
D02*
G37*
G36*
X204000D02*
X202305D01*
X202380Y24122D01*
X202878Y23378D01*
X203622Y22881D01*
X204000Y22805D01*
Y24500D01*
D02*
G37*
G36*
X292500Y26708D02*
Y21500D01*
X297708D01*
X297577Y22494D01*
X297000Y23887D01*
X296083Y25083D01*
X294887Y26000D01*
X293494Y26577D01*
X292500Y26708D01*
D02*
G37*
G36*
X272500D02*
Y21500D01*
X277708D01*
X277577Y22494D01*
X277000Y23887D01*
X276083Y25083D01*
X274887Y26000D01*
X273494Y26577D01*
X272500Y26708D01*
D02*
G37*
G36*
X291500D02*
X290506Y26577D01*
X289113Y26000D01*
X287917Y25083D01*
X287000Y23887D01*
X286423Y22494D01*
X286292Y21500D01*
X291500D01*
Y26708D01*
D02*
G37*
G36*
X271500D02*
X270506Y26577D01*
X269113Y26000D01*
X267917Y25083D01*
X267000Y23887D01*
X266423Y22494D01*
X266292Y21500D01*
X271500D01*
Y26708D01*
D02*
G37*
G36*
X205000Y20195D02*
Y18500D01*
X206695D01*
X206620Y18878D01*
X206122Y19622D01*
X205378Y20120D01*
X205000Y20195D01*
D02*
G37*
G36*
X204000D02*
X203622Y20120D01*
X202878Y19622D01*
X202380Y18878D01*
X202305Y18500D01*
X204000D01*
Y20195D01*
D02*
G37*
G36*
X238327Y19874D02*
X233496D01*
Y17307D01*
X238327D01*
Y19874D01*
D02*
G37*
G36*
X232496D02*
X227665D01*
Y17307D01*
X232496D01*
Y19874D01*
D02*
G37*
G36*
X206695Y17500D02*
X205000D01*
Y15805D01*
X205378Y15880D01*
X206122Y16378D01*
X206620Y17122D01*
X206695Y17500D01*
D02*
G37*
G36*
X204000D02*
X202305D01*
X202380Y17122D01*
X202878Y16378D01*
X203622Y15880D01*
X204000Y15805D01*
Y17500D01*
D02*
G37*
G36*
X297708Y20500D02*
X292500D01*
Y15292D01*
X293494Y15423D01*
X294887Y16000D01*
X296083Y16917D01*
X297000Y18113D01*
X297577Y19506D01*
X297708Y20500D01*
D02*
G37*
G36*
X277708D02*
X272500D01*
Y15292D01*
X273494Y15423D01*
X274887Y16000D01*
X276083Y16917D01*
X277000Y18113D01*
X277577Y19506D01*
X277708Y20500D01*
D02*
G37*
G36*
X291500D02*
X286292D01*
X286423Y19506D01*
X287000Y18113D01*
X287917Y16917D01*
X289113Y16000D01*
X290506Y15423D01*
X291500Y15292D01*
Y20500D01*
D02*
G37*
G36*
X271500D02*
X266292D01*
X266423Y19506D01*
X267000Y18113D01*
X267917Y16917D01*
X269113Y16000D01*
X270506Y15423D01*
X271500Y15292D01*
Y20500D01*
D02*
G37*
G36*
X232496Y16307D02*
X227665D01*
Y13740D01*
X232496D01*
Y16307D01*
D02*
G37*
G36*
X282000Y16476D02*
X280583Y16289D01*
X279262Y15742D01*
X278128Y14872D01*
X278015Y14725D01*
X277824Y14542D01*
X277537Y14302D01*
X277250Y14095D01*
X276961Y13918D01*
X276671Y13771D01*
X276378Y13653D01*
X276081Y13561D01*
X275778Y13496D01*
X275468Y13457D01*
X275106Y13442D01*
X274933Y13400D01*
X274758Y13365D01*
X274740Y13353D01*
X274719Y13348D01*
X274575Y13243D01*
X274427Y13144D01*
X274415Y13126D01*
X274398Y13114D01*
X274367Y13063D01*
X244679D01*
X244637Y13129D01*
X244628Y13135D01*
X244622Y13144D01*
X244465Y13249D01*
X244311Y13357D01*
X244300Y13359D01*
X244291Y13365D01*
X244106Y13402D01*
X243922Y13442D01*
X242928Y13463D01*
X242198Y13522D01*
X242067Y13542D01*
Y13969D01*
X241177D01*
X241176Y13969D01*
X241171Y13969D01*
X241093D01*
X241055Y13976D01*
X241017Y13969D01*
X238327D01*
Y16307D01*
X233496D01*
Y13740D01*
X235933D01*
Y8260D01*
X233496D01*
Y5693D01*
X238327D01*
Y8032D01*
X241017D01*
X241055Y8024D01*
X241093Y8032D01*
X241171D01*
X241176Y8031D01*
X241177Y8032D01*
X242067D01*
Y8458D01*
X242189Y8477D01*
X243397Y8552D01*
X243911Y8557D01*
X244101Y8597D01*
X244291Y8635D01*
X244295Y8638D01*
X244300Y8639D01*
X244461Y8748D01*
X244622Y8856D01*
X244625Y8860D01*
X244629Y8863D01*
X244677Y8937D01*
X274367D01*
X274398Y8886D01*
X274415Y8874D01*
X274427Y8856D01*
X274575Y8757D01*
X274719Y8652D01*
X274740Y8647D01*
X274758Y8635D01*
X274933Y8600D01*
X275106Y8558D01*
X275468Y8543D01*
X275778Y8504D01*
X276081Y8439D01*
X276378Y8347D01*
X276671Y8229D01*
X276961Y8082D01*
X277250Y7905D01*
X277537Y7698D01*
X277824Y7458D01*
X278015Y7275D01*
X278128Y7128D01*
X279262Y6258D01*
X280583Y5711D01*
X282000Y5524D01*
X283417Y5711D01*
X284738Y6258D01*
X285872Y7128D01*
X286742Y8262D01*
X287289Y9583D01*
X287476Y11000D01*
X287289Y12417D01*
X286742Y13738D01*
X285872Y14872D01*
X284738Y15742D01*
X283417Y16289D01*
X282000Y16476D01*
D02*
G37*
G36*
X205000Y13195D02*
Y11500D01*
X206695D01*
X206620Y11878D01*
X206122Y12622D01*
X205378Y13119D01*
X205000Y13195D01*
D02*
G37*
G36*
X204000D02*
X203622Y13119D01*
X202878Y12622D01*
X202380Y11878D01*
X202305Y11500D01*
X204000D01*
Y13195D01*
D02*
G37*
G36*
X206695Y10500D02*
X205000D01*
Y8805D01*
X205378Y8880D01*
X206122Y9378D01*
X206620Y10122D01*
X206695Y10500D01*
D02*
G37*
G36*
X204000D02*
X202305D01*
X202380Y10122D01*
X202878Y9378D01*
X203622Y8880D01*
X204000Y8805D01*
Y10500D01*
D02*
G37*
G36*
X232496Y8260D02*
X227665D01*
Y5693D01*
X232496D01*
Y8260D01*
D02*
G37*
G36*
X205000Y6195D02*
Y4500D01*
X206695D01*
X206620Y4878D01*
X206122Y5622D01*
X205378Y6119D01*
X205000Y6195D01*
D02*
G37*
G36*
X204000D02*
X203622Y6119D01*
X202878Y5622D01*
X202380Y4878D01*
X202305Y4500D01*
X204000D01*
Y6195D01*
D02*
G37*
G36*
X238327Y4693D02*
X233496D01*
Y2126D01*
X238327D01*
Y4693D01*
D02*
G37*
G36*
X232496D02*
X227665D01*
Y2126D01*
X232496D01*
Y4693D01*
D02*
G37*
G36*
X206695Y3500D02*
X205000D01*
Y1805D01*
X205378Y1881D01*
X206122Y2378D01*
X206620Y3122D01*
X206695Y3500D01*
D02*
G37*
G36*
X204000D02*
X202305D01*
X202380Y3122D01*
X202878Y2378D01*
X203622Y1881D01*
X204000Y1805D01*
Y3500D01*
D02*
G37*
G36*
X292500Y6708D02*
Y1500D01*
X297708D01*
X297577Y2494D01*
X297000Y3887D01*
X296083Y5083D01*
X294887Y6000D01*
X293494Y6577D01*
X292500Y6708D01*
D02*
G37*
G36*
X272500D02*
Y1500D01*
X277708D01*
X277577Y2494D01*
X277000Y3887D01*
X276083Y5083D01*
X274887Y6000D01*
X273494Y6577D01*
X272500Y6708D01*
D02*
G37*
G36*
X291500D02*
X290506Y6577D01*
X289113Y6000D01*
X287917Y5083D01*
X287000Y3887D01*
X286423Y2494D01*
X286292Y1500D01*
X291500D01*
Y6708D01*
D02*
G37*
G36*
X271500D02*
X270506Y6577D01*
X269113Y6000D01*
X267917Y5083D01*
X267000Y3887D01*
X266423Y2494D01*
X266292Y1500D01*
X271500D01*
Y6708D01*
D02*
G37*
G36*
X205000Y-805D02*
Y-2500D01*
X206695D01*
X206620Y-2122D01*
X206122Y-1378D01*
X205378Y-881D01*
X205000Y-805D01*
D02*
G37*
G36*
X204000D02*
X203622Y-881D01*
X202878Y-1378D01*
X202380Y-2122D01*
X202305Y-2500D01*
X204000D01*
Y-805D01*
D02*
G37*
G36*
X297708Y500D02*
X292500D01*
Y-4708D01*
X293494Y-4577D01*
X294887Y-4000D01*
X296083Y-3083D01*
X297000Y-1887D01*
X297577Y-494D01*
X297708Y500D01*
D02*
G37*
G36*
X277708D02*
X272500D01*
Y-4708D01*
X273494Y-4577D01*
X274887Y-4000D01*
X276083Y-3083D01*
X277000Y-1887D01*
X277577Y-494D01*
X277708Y500D01*
D02*
G37*
G36*
X291500D02*
X286292D01*
X286423Y-494D01*
X287000Y-1887D01*
X287917Y-3083D01*
X289113Y-4000D01*
X290506Y-4577D01*
X291500Y-4708D01*
Y500D01*
D02*
G37*
G36*
X271500D02*
X266292D01*
X266423Y-494D01*
X267000Y-1887D01*
X267917Y-3083D01*
X269113Y-4000D01*
X270506Y-4577D01*
X271500Y-4708D01*
Y500D01*
D02*
G37*
G36*
X206695Y-3500D02*
X205000D01*
Y-5195D01*
X205378Y-5119D01*
X206122Y-4622D01*
X206620Y-3878D01*
X206695Y-3500D01*
D02*
G37*
G36*
X204000D02*
X202305D01*
X202380Y-3878D01*
X202878Y-4622D01*
X203622Y-5119D01*
X204000Y-5195D01*
Y-3500D01*
D02*
G37*
G36*
X296000Y-7805D02*
Y-9500D01*
X297695D01*
X297620Y-9122D01*
X297122Y-8378D01*
X296378Y-7880D01*
X296000Y-7805D01*
D02*
G37*
G36*
X295000D02*
X294622Y-7880D01*
X293878Y-8378D01*
X293380Y-9122D01*
X293305Y-9500D01*
X295000D01*
Y-7805D01*
D02*
G37*
G36*
X205000D02*
Y-9500D01*
X206695D01*
X206620Y-9122D01*
X206122Y-8378D01*
X205378Y-7880D01*
X205000Y-7805D01*
D02*
G37*
G36*
X204000D02*
X203622Y-7880D01*
X202878Y-8378D01*
X202380Y-9122D01*
X202305Y-9500D01*
X204000D01*
Y-7805D01*
D02*
G37*
G36*
X297695Y-10500D02*
X296000D01*
Y-12195D01*
X296378Y-12120D01*
X297122Y-11622D01*
X297620Y-10878D01*
X297695Y-10500D01*
D02*
G37*
G36*
X295000D02*
X293305D01*
X293380Y-10878D01*
X293878Y-11622D01*
X294622Y-12120D01*
X295000Y-12195D01*
Y-10500D01*
D02*
G37*
G36*
X206695D02*
X205000D01*
Y-12195D01*
X205378Y-12120D01*
X206122Y-11622D01*
X206620Y-10878D01*
X206695Y-10500D01*
D02*
G37*
G36*
X204000D02*
X202305D01*
X202380Y-10878D01*
X202878Y-11622D01*
X203622Y-12120D01*
X204000Y-12195D01*
Y-10500D01*
D02*
G37*
G36*
X296000Y-14805D02*
Y-16500D01*
X297695D01*
X297620Y-16122D01*
X297122Y-15378D01*
X296378Y-14881D01*
X296000Y-14805D01*
D02*
G37*
G36*
X295000D02*
X294622Y-14881D01*
X293878Y-15378D01*
X293380Y-16122D01*
X293305Y-16500D01*
X295000D01*
Y-14805D01*
D02*
G37*
G36*
X289000D02*
Y-16500D01*
X290695D01*
X290619Y-16122D01*
X290122Y-15378D01*
X289378Y-14881D01*
X289000Y-14805D01*
D02*
G37*
G36*
X288000D02*
X287622Y-14881D01*
X286878Y-15378D01*
X286381Y-16122D01*
X286305Y-16500D01*
X288000D01*
Y-14805D01*
D02*
G37*
G36*
X282000D02*
Y-16500D01*
X283695D01*
X283619Y-16122D01*
X283122Y-15378D01*
X282378Y-14881D01*
X282000Y-14805D01*
D02*
G37*
G36*
X281000D02*
X280622Y-14881D01*
X279878Y-15378D01*
X279380Y-16122D01*
X279305Y-16500D01*
X281000D01*
Y-14805D01*
D02*
G37*
G36*
X275000D02*
Y-16500D01*
X276695D01*
X276620Y-16122D01*
X276122Y-15378D01*
X275378Y-14881D01*
X275000Y-14805D01*
D02*
G37*
G36*
X274000D02*
X273622Y-14881D01*
X272878Y-15378D01*
X272380Y-16122D01*
X272305Y-16500D01*
X274000D01*
Y-14805D01*
D02*
G37*
G36*
X268000D02*
Y-16500D01*
X269695D01*
X269619Y-16122D01*
X269122Y-15378D01*
X268378Y-14881D01*
X268000Y-14805D01*
D02*
G37*
G36*
X267000D02*
X266622Y-14881D01*
X265878Y-15378D01*
X265381Y-16122D01*
X265305Y-16500D01*
X267000D01*
Y-14805D01*
D02*
G37*
G36*
X261000D02*
Y-16500D01*
X262695D01*
X262619Y-16122D01*
X262122Y-15378D01*
X261378Y-14881D01*
X261000Y-14805D01*
D02*
G37*
G36*
X260000D02*
X259622Y-14881D01*
X258878Y-15378D01*
X258381Y-16122D01*
X258305Y-16500D01*
X260000D01*
Y-14805D01*
D02*
G37*
G36*
X254000D02*
Y-16500D01*
X255695D01*
X255620Y-16122D01*
X255122Y-15378D01*
X254378Y-14881D01*
X254000Y-14805D01*
D02*
G37*
G36*
X253000D02*
X252622Y-14881D01*
X251878Y-15378D01*
X251380Y-16122D01*
X251305Y-16500D01*
X253000D01*
Y-14805D01*
D02*
G37*
G36*
X247000D02*
Y-16500D01*
X248695D01*
X248620Y-16122D01*
X248122Y-15378D01*
X247378Y-14881D01*
X247000Y-14805D01*
D02*
G37*
G36*
X246000D02*
X245622Y-14881D01*
X244878Y-15378D01*
X244380Y-16122D01*
X244305Y-16500D01*
X246000D01*
Y-14805D01*
D02*
G37*
G36*
X240000D02*
Y-16500D01*
X241695D01*
X241619Y-16122D01*
X241122Y-15378D01*
X240378Y-14881D01*
X240000Y-14805D01*
D02*
G37*
G36*
X239000D02*
X238622Y-14881D01*
X237878Y-15378D01*
X237381Y-16122D01*
X237305Y-16500D01*
X239000D01*
Y-14805D01*
D02*
G37*
G36*
X233000D02*
Y-16500D01*
X234695D01*
X234619Y-16122D01*
X234122Y-15378D01*
X233378Y-14881D01*
X233000Y-14805D01*
D02*
G37*
G36*
X232000D02*
X231622Y-14881D01*
X230878Y-15378D01*
X230381Y-16122D01*
X230305Y-16500D01*
X232000D01*
Y-14805D01*
D02*
G37*
G36*
X226000D02*
Y-16500D01*
X227695D01*
X227620Y-16122D01*
X227122Y-15378D01*
X226378Y-14881D01*
X226000Y-14805D01*
D02*
G37*
G36*
X225000D02*
X224622Y-14881D01*
X223878Y-15378D01*
X223380Y-16122D01*
X223305Y-16500D01*
X225000D01*
Y-14805D01*
D02*
G37*
G36*
X219000D02*
Y-16500D01*
X220695D01*
X220620Y-16122D01*
X220122Y-15378D01*
X219378Y-14881D01*
X219000Y-14805D01*
D02*
G37*
G36*
X218000D02*
X217622Y-14881D01*
X216878Y-15378D01*
X216381Y-16122D01*
X216305Y-16500D01*
X218000D01*
Y-14805D01*
D02*
G37*
G36*
X212000D02*
Y-16500D01*
X213695D01*
X213619Y-16122D01*
X213122Y-15378D01*
X212378Y-14881D01*
X212000Y-14805D01*
D02*
G37*
G36*
X211000D02*
X210622Y-14881D01*
X209878Y-15378D01*
X209381Y-16122D01*
X209305Y-16500D01*
X211000D01*
Y-14805D01*
D02*
G37*
G36*
X205000D02*
Y-16500D01*
X206695D01*
X206620Y-16122D01*
X206122Y-15378D01*
X205378Y-14881D01*
X205000Y-14805D01*
D02*
G37*
G36*
X204000D02*
X203622Y-14881D01*
X202878Y-15378D01*
X202380Y-16122D01*
X202305Y-16500D01*
X204000D01*
Y-14805D01*
D02*
G37*
G36*
X297695Y-17500D02*
X296000D01*
Y-19195D01*
X296378Y-19119D01*
X297122Y-18622D01*
X297620Y-17878D01*
X297695Y-17500D01*
D02*
G37*
G36*
X295000D02*
X293305D01*
X293380Y-17878D01*
X293878Y-18622D01*
X294622Y-19119D01*
X295000Y-19195D01*
Y-17500D01*
D02*
G37*
G36*
X290695D02*
X289000D01*
Y-19195D01*
X289378Y-19119D01*
X290122Y-18622D01*
X290619Y-17878D01*
X290695Y-17500D01*
D02*
G37*
G36*
X288000D02*
X286305D01*
X286381Y-17878D01*
X286878Y-18622D01*
X287622Y-19119D01*
X288000Y-19195D01*
Y-17500D01*
D02*
G37*
G36*
X283695D02*
X282000D01*
Y-19195D01*
X282378Y-19119D01*
X283122Y-18622D01*
X283619Y-17878D01*
X283695Y-17500D01*
D02*
G37*
G36*
X281000D02*
X279305D01*
X279380Y-17878D01*
X279878Y-18622D01*
X280622Y-19119D01*
X281000Y-19195D01*
Y-17500D01*
D02*
G37*
G36*
X276695D02*
X275000D01*
Y-19195D01*
X275378Y-19119D01*
X276122Y-18622D01*
X276620Y-17878D01*
X276695Y-17500D01*
D02*
G37*
G36*
X274000D02*
X272305D01*
X272380Y-17878D01*
X272878Y-18622D01*
X273622Y-19119D01*
X274000Y-19195D01*
Y-17500D01*
D02*
G37*
G36*
X269695D02*
X268000D01*
Y-19195D01*
X268378Y-19119D01*
X269122Y-18622D01*
X269619Y-17878D01*
X269695Y-17500D01*
D02*
G37*
G36*
X267000D02*
X265305D01*
X265381Y-17878D01*
X265878Y-18622D01*
X266622Y-19119D01*
X267000Y-19195D01*
Y-17500D01*
D02*
G37*
G36*
X262695D02*
X261000D01*
Y-19195D01*
X261378Y-19119D01*
X262122Y-18622D01*
X262619Y-17878D01*
X262695Y-17500D01*
D02*
G37*
G36*
X260000D02*
X258305D01*
X258381Y-17878D01*
X258878Y-18622D01*
X259622Y-19119D01*
X260000Y-19195D01*
Y-17500D01*
D02*
G37*
G36*
X255695D02*
X254000D01*
Y-19195D01*
X254378Y-19119D01*
X255122Y-18622D01*
X255620Y-17878D01*
X255695Y-17500D01*
D02*
G37*
G36*
X253000D02*
X251305D01*
X251380Y-17878D01*
X251878Y-18622D01*
X252622Y-19119D01*
X253000Y-19195D01*
Y-17500D01*
D02*
G37*
G36*
X248695D02*
X247000D01*
Y-19195D01*
X247378Y-19119D01*
X248122Y-18622D01*
X248620Y-17878D01*
X248695Y-17500D01*
D02*
G37*
G36*
X246000D02*
X244305D01*
X244380Y-17878D01*
X244878Y-18622D01*
X245622Y-19119D01*
X246000Y-19195D01*
Y-17500D01*
D02*
G37*
G36*
X241695D02*
X240000D01*
Y-19195D01*
X240378Y-19119D01*
X241122Y-18622D01*
X241619Y-17878D01*
X241695Y-17500D01*
D02*
G37*
G36*
X239000D02*
X237305D01*
X237381Y-17878D01*
X237878Y-18622D01*
X238622Y-19119D01*
X239000Y-19195D01*
Y-17500D01*
D02*
G37*
G36*
X234695D02*
X233000D01*
Y-19195D01*
X233378Y-19119D01*
X234122Y-18622D01*
X234619Y-17878D01*
X234695Y-17500D01*
D02*
G37*
G36*
X232000D02*
X230305D01*
X230381Y-17878D01*
X230878Y-18622D01*
X231622Y-19119D01*
X232000Y-19195D01*
Y-17500D01*
D02*
G37*
G36*
X227695D02*
X226000D01*
Y-19195D01*
X226378Y-19119D01*
X227122Y-18622D01*
X227620Y-17878D01*
X227695Y-17500D01*
D02*
G37*
G36*
X225000D02*
X223305D01*
X223380Y-17878D01*
X223878Y-18622D01*
X224622Y-19119D01*
X225000Y-19195D01*
Y-17500D01*
D02*
G37*
G36*
X220695D02*
X219000D01*
Y-19195D01*
X219378Y-19119D01*
X220122Y-18622D01*
X220620Y-17878D01*
X220695Y-17500D01*
D02*
G37*
G36*
X218000D02*
X216305D01*
X216381Y-17878D01*
X216878Y-18622D01*
X217622Y-19119D01*
X218000Y-19195D01*
Y-17500D01*
D02*
G37*
G36*
X213695D02*
X212000D01*
Y-19195D01*
X212378Y-19119D01*
X213122Y-18622D01*
X213619Y-17878D01*
X213695Y-17500D01*
D02*
G37*
G36*
X211000D02*
X209305D01*
X209381Y-17878D01*
X209878Y-18622D01*
X210622Y-19119D01*
X211000Y-19195D01*
Y-17500D01*
D02*
G37*
G36*
X206695D02*
X205000D01*
Y-19195D01*
X205378Y-19119D01*
X206122Y-18622D01*
X206620Y-17878D01*
X206695Y-17500D01*
D02*
G37*
G36*
X204000D02*
X202305D01*
X202380Y-17878D01*
X202878Y-18622D01*
X203622Y-19119D01*
X204000Y-19195D01*
Y-17500D01*
D02*
G37*
%LPD*%
G36*
X241083Y12855D02*
X241169Y12764D01*
X241311Y12684D01*
X241510Y12615D01*
X241766Y12556D01*
X242079Y12508D01*
X242876Y12444D01*
X243901Y12423D01*
Y9577D01*
X243360Y9572D01*
X242079Y9492D01*
X241766Y9444D01*
X241510Y9385D01*
X241311Y9316D01*
X241169Y9236D01*
X241083Y9145D01*
X241055Y9043D01*
Y12957D01*
X241083Y12855D01*
D02*
G37*
G36*
X278837Y7900D02*
X278504Y8218D01*
X278163Y8504D01*
X277814Y8755D01*
X277458Y8973D01*
X277093Y9158D01*
X276720Y9309D01*
X276339Y9426D01*
X275950Y9510D01*
X275553Y9560D01*
X275148Y9577D01*
Y12423D01*
X275553Y12440D01*
X275950Y12490D01*
X276339Y12574D01*
X276720Y12691D01*
X277093Y12842D01*
X277458Y13027D01*
X277814Y13245D01*
X278163Y13497D01*
X278504Y13782D01*
X278837Y14100D01*
Y7900D01*
D02*
G37*
D15*
X182500Y163500D02*
Y164500D01*
X181400Y165600D02*
X182500Y164500D01*
Y168500D02*
Y169500D01*
X181550Y167550D02*
X182500Y168500D01*
X176100Y165600D02*
X181400D01*
X176100Y167550D02*
X181550D01*
X118500Y166500D02*
X128500Y156500D01*
X114926Y166500D02*
X118500D01*
X113700Y167726D02*
X114926Y166500D01*
X113700Y167726D02*
Y169986D01*
X114520Y170806D01*
X117600D01*
X114520Y172756D02*
X117600D01*
X113700Y173576D02*
X114520Y172756D01*
X113700Y173576D02*
Y177786D01*
X138313Y156500D02*
X138500D01*
X125957Y168856D02*
X138313Y156500D01*
X117600Y168856D02*
X125957D01*
X169802Y162822D02*
X172200Y165220D01*
X137678Y162822D02*
X169802D01*
X136500Y164000D02*
X137678Y162822D01*
X114520Y178606D02*
X133823D01*
X113700Y177786D02*
X114520Y178606D01*
X133823Y178276D02*
Y178606D01*
Y178276D02*
X136500Y175599D01*
Y164000D02*
Y175599D01*
X172200Y165220D02*
Y168680D01*
X173020Y169500D01*
X176100D01*
D18*
X147500Y63500D02*
Y141000D01*
X136500Y152000D02*
X147500Y141000D01*
X86756Y152000D02*
X136500D01*
X80988Y152256D02*
X81244Y152000D01*
X65744Y152256D02*
X80988D01*
X63500Y154500D02*
X65744Y152256D01*
X63500Y154500D02*
Y158856D01*
X152500Y171450D02*
X152500Y171450D01*
X152500Y171450D02*
Y176472D01*
X150697Y178276D02*
X152500Y176472D01*
X147000Y178276D02*
X150697D01*
X144287Y186500D02*
X151528D01*
X152500Y171450D02*
X158900D01*
X87740Y158856D02*
X88953Y160069D01*
Y169500D01*
X87740Y158285D02*
Y158856D01*
X81456Y152000D02*
X87740Y158285D01*
X81244Y152000D02*
X81456D01*
X63500Y158856D02*
X63500Y158856D01*
X83412Y148656D02*
X86756Y152000D01*
X67200Y148656D02*
X83412D01*
X270582Y198843D02*
X272000D01*
X262550Y190811D02*
X270582Y198843D01*
X262043Y190811D02*
X262550D01*
X254957D02*
Y192780D01*
X59873Y30627D02*
X76059D01*
X47873D02*
X59873D01*
X54500Y36000D02*
X59873Y30627D01*
X54500Y36000D02*
Y44497D01*
X89000Y192000D02*
X89000Y192000D01*
X118713Y51940D02*
X123000Y47654D01*
Y45000D02*
Y47654D01*
X18640Y19030D02*
X30470D01*
X12110Y12500D02*
X18640Y19030D01*
X21055Y7665D02*
X25890Y12500D01*
X21055Y3000D02*
Y7665D01*
X27945Y3000D02*
X45244D01*
X250047Y194807D02*
Y199500D01*
X249424Y199623D02*
X249797Y199250D01*
X176598Y199623D02*
X249424D01*
X133547Y163953D02*
X136750Y160750D01*
X183639D02*
X186500Y163611D01*
X136750Y160750D02*
X183639D01*
X30470Y19030D02*
X39036D01*
X28500Y21000D02*
X30470Y19030D01*
X28500Y21000D02*
Y29000D01*
X23461Y34039D02*
X28500Y29000D01*
X40784Y20778D02*
Y25314D01*
X39036Y19030D02*
X40784Y20778D01*
X30918Y47582D02*
X47873Y30627D01*
X30918Y47582D02*
Y55847D01*
X32000Y56929D01*
Y57500D01*
X41500D01*
X45453Y61453D01*
Y64500D01*
X51000Y52106D02*
Y59000D01*
Y52106D02*
X51020Y52086D01*
X43343Y25314D02*
Y31157D01*
X30224Y44276D02*
X43343Y31157D01*
X16332Y44276D02*
X30224D01*
X45244Y3000D02*
X45387Y3143D01*
Y9500D01*
X139453Y166500D02*
X140353Y165600D01*
X146000D01*
X151123Y199623D02*
X176598D01*
X147458Y195958D02*
X151123Y199623D01*
X124000Y195958D02*
X147458D01*
X152042Y195958D02*
X158900D01*
X176598Y199623D02*
X177800Y198421D01*
X101756Y189469D02*
X102256Y190249D01*
X179988Y184512D02*
X182000Y182500D01*
X176000Y184512D02*
X179988D01*
X176000Y179000D02*
X183000D01*
X177800Y191700D02*
X186500Y183000D01*
Y175500D02*
Y183000D01*
X112756Y156500D02*
X113500D01*
X83100Y174706D02*
X94500D01*
X83047Y175247D02*
X83100Y175300D01*
X83047Y169500D02*
Y175247D01*
X94000Y169244D02*
X94388Y168856D01*
X93744Y169500D02*
X94000Y169244D01*
X94388Y168856D02*
X100400D01*
X88953Y169500D02*
X93744D01*
X104000Y500D02*
X138500D01*
X95314Y9186D02*
X104000Y500D01*
X95314Y9186D02*
Y32300D01*
X107816Y5657D02*
X117602D01*
X94500Y174756D02*
X94550Y174706D01*
X100400D01*
Y168856D02*
Y170806D01*
Y172756D01*
X117500Y53154D02*
X118713Y51940D01*
X87000Y67000D02*
Y95500D01*
X80928Y60928D02*
X87000Y67000D01*
X61590Y60928D02*
X80928D01*
X87000Y95500D02*
X97500Y106000D01*
X90000Y93500D02*
X97500Y101000D01*
X90000Y67000D02*
Y93500D01*
X81928Y58928D02*
X90000Y67000D01*
X70363Y58928D02*
X81928D01*
X186500Y163611D02*
Y175500D01*
X177800Y191700D02*
Y198421D01*
X123803Y195761D02*
X124000Y195958D01*
X102256Y195761D02*
X123803D01*
X102195Y195700D02*
X102256Y195761D01*
X93300Y195700D02*
X102195D01*
X170488Y179000D02*
X176000Y184512D01*
X164412Y179000D02*
X170488D01*
X146000Y165600D02*
X158900D01*
X176100Y171450D02*
Y173400D01*
X176000Y179000D02*
X176100Y178900D01*
Y173400D02*
Y178900D01*
X183000Y179000D02*
X186500Y175500D01*
X133547Y163953D02*
Y166500D01*
X103656Y176656D02*
X117052Y190052D01*
X124000D01*
X158900Y195958D02*
X166500D01*
X167242Y196700D01*
X173700D01*
X166500Y190052D02*
X167252Y189300D01*
X173700D01*
X158900Y173400D02*
Y179000D01*
Y190052D01*
X166500D01*
X124000D02*
X158900D01*
X144287Y186500D02*
X147000Y183787D01*
X137599Y186500D02*
X144287D01*
X133823Y182724D02*
X137599Y186500D01*
X128500Y182724D02*
X133823D01*
X100400Y176656D02*
X103656D01*
X133547Y166500D02*
X133547Y166500D01*
X133547Y166500D02*
Y172539D01*
X131381Y174706D02*
X133547Y172539D01*
X117600Y174706D02*
X131381D01*
X117600Y174806D02*
Y176656D01*
X139453Y172539D02*
Y178276D01*
X147000D01*
X158900Y165600D02*
Y167550D01*
Y169500D01*
X112500Y12459D02*
Y21000D01*
X110741Y10700D02*
X112500Y12459D01*
X40784Y43000D02*
Y52086D01*
X59000Y43000D02*
X61257Y45257D01*
X124000Y3500D02*
Y9291D01*
X123969Y9322D02*
X124000Y9291D01*
X55742Y3000D02*
X57242Y4500D01*
X50756Y3000D02*
X55742D01*
X51293Y10500D02*
Y17000D01*
X50756Y3000D02*
X51293Y3537D01*
Y9500D01*
X45387Y17000D02*
Y17500D01*
Y9500D02*
Y17000D01*
X249797Y199250D02*
X250047Y199500D01*
X68300Y103100D02*
X73300Y108100D01*
X63560Y98360D02*
X68300Y103100D01*
X5702Y52306D02*
X6513Y53117D01*
X135804Y10480D02*
X136961Y9322D01*
X138070Y8214D01*
X141292Y9322D02*
X142450Y8165D01*
X140135Y10480D02*
X141292Y9322D01*
X170796Y48700D02*
Y49291D01*
Y48109D02*
Y48700D01*
X16332Y34039D02*
X23461D01*
X142217Y49283D02*
X145500Y46000D01*
X142217Y49283D02*
Y51940D01*
X155308Y14808D02*
X160000Y19500D01*
X155308Y9814D02*
Y14808D01*
X138500Y500D02*
X162500D01*
X132631Y6369D02*
X138500Y500D01*
X132631Y6369D02*
Y9322D01*
X57242Y9099D02*
X58698Y10555D01*
X57242Y4500D02*
Y9099D01*
X51293Y17000D02*
Y18637D01*
X48461Y21469D02*
X51293Y18637D01*
X48461Y21469D02*
Y25314D01*
X17500Y64006D02*
X17694Y64200D01*
X17500Y58500D02*
Y64006D01*
X82500Y131000D02*
X97500Y146000D01*
X90000Y56000D02*
X97500Y63500D01*
X90000Y40000D02*
Y56000D01*
X86139Y36139D02*
X90000Y40000D01*
X81500Y36139D02*
X86139D01*
X76059D02*
X81500D01*
X177686Y40700D02*
Y48700D01*
Y32700D02*
Y40700D01*
X162500Y500D02*
X177686Y15686D01*
Y32700D01*
X147917Y5657D02*
X150757Y8496D01*
X143328Y5657D02*
X147917D01*
X150757Y8496D02*
Y20070D01*
X146796Y10495D02*
Y30786D01*
X145623Y9322D02*
X146796Y10495D01*
X132500Y63500D02*
X137113Y58887D01*
X67997Y77797D02*
X78300Y88100D01*
X67997Y64500D02*
Y77797D01*
X24000Y90600D02*
X24500Y90100D01*
Y64106D02*
Y90100D01*
X259209Y197087D02*
X262000D01*
X255953Y200343D02*
X259209Y197087D01*
X250047Y194807D02*
X250500Y194354D01*
X262000Y193000D02*
Y197087D01*
X11788Y64200D02*
Y118288D01*
X24000Y130500D01*
X30000Y80600D02*
X39547Y71053D01*
Y64500D02*
Y71053D01*
X147500Y63500D02*
X152500D01*
X58698Y17445D02*
Y25314D01*
X60590Y88800D02*
Y125090D01*
X66500Y131000D01*
X82500D01*
X96796Y126000D02*
X97500D01*
X96196Y125400D02*
X96796Y126000D01*
X68300Y123100D02*
X70600Y125400D01*
X96196D01*
X82445Y121000D02*
X97500D01*
X78300Y118100D02*
X79545D01*
X82445Y121000D01*
X68300Y113100D02*
X94600D01*
X97500Y116000D01*
X73300Y108100D02*
X78300D01*
X63560Y65575D02*
Y98360D01*
X62485Y64500D02*
X63560Y65575D01*
X78300Y98100D02*
X91200Y111000D01*
X97500D01*
X24500Y52000D02*
Y57217D01*
X21500Y49000D02*
X24500Y52000D01*
X16332Y49000D02*
X21500D01*
X5702Y29500D02*
Y35220D01*
Y25378D02*
Y29500D01*
X5887Y29315D01*
X16332D01*
X5702Y49000D02*
Y52306D01*
Y43095D02*
Y49000D01*
X16332D01*
X5702Y35220D02*
Y43095D01*
X76059Y30627D02*
X81500D01*
X83173Y32300D01*
X95314D01*
Y40300D01*
X177686Y48700D02*
Y49291D01*
X175313Y51663D02*
X177686Y49291D01*
X177020Y49365D02*
X177686Y48700D01*
X137113Y58887D02*
X167797D01*
X175020Y51663D01*
X175313D01*
X45453Y73662D02*
X60590Y88800D01*
X45453Y64500D02*
Y73662D01*
X54500Y44497D02*
X58698Y48695D01*
Y52086D01*
X61257Y45257D02*
Y52086D01*
X45387Y17500D02*
X45902Y18015D01*
Y25314D01*
X43343D02*
X45902D01*
X16332Y41717D02*
X25612D01*
X35666Y31662D01*
Y25314D02*
Y31662D01*
X33107Y25314D02*
Y31393D01*
X25343Y39157D02*
X33107Y31393D01*
X16332Y39157D02*
X25343D01*
X66375Y54940D02*
X70363Y58928D01*
X56211Y52158D02*
Y55549D01*
X66375Y52086D02*
Y54940D01*
X56211Y55549D02*
X61590Y60928D01*
X56139Y52086D02*
X56211Y52158D01*
X45902Y52086D02*
X46000Y38000D01*
X63816Y44500D02*
Y52086D01*
X63000Y43684D02*
X63816Y44500D01*
X63000Y38000D02*
Y43684D01*
X43343Y52086D02*
X45902D01*
X112500Y44213D02*
Y63500D01*
X127143Y10480D02*
X128300Y9322D01*
X127143Y10480D02*
Y29571D01*
X112500Y44213D02*
X127143Y29571D01*
X169131Y46444D02*
X170796Y48109D01*
X162454Y46444D02*
X169131D01*
X142450Y6535D02*
Y8165D01*
X146796Y30786D02*
X162454Y46444D01*
X163200Y56887D02*
X170796Y49291D01*
X127500Y63500D02*
X134113Y56887D01*
X163200D01*
X170796Y40109D02*
Y40700D01*
X150757Y20070D02*
X170796Y40109D01*
X142450Y6535D02*
X143328Y5657D01*
X140135Y10480D02*
Y45504D01*
X122500Y63139D02*
X140135Y45504D01*
X122500Y63139D02*
Y63500D01*
X156980Y3657D02*
X169131Y15807D01*
X140948Y3657D02*
X156980D01*
X169131Y31035D02*
X170796Y32700D01*
X169131Y15807D02*
Y31035D01*
X138070Y6535D02*
Y8214D01*
Y6535D02*
X140948Y3657D01*
X117500Y63500D02*
X135804Y45196D01*
Y10480D02*
Y45196D01*
X107500Y42382D02*
Y63500D01*
X102204Y32300D02*
X103869Y30635D01*
Y9604D02*
Y30635D01*
X115505Y9322D02*
Y26409D01*
X118481Y8165D02*
X119639Y9322D01*
X103869Y9604D02*
X107816Y5657D01*
X117602D02*
X118481Y6535D01*
Y8165D01*
Y10480D02*
X119639Y9322D01*
X118481Y10480D02*
Y31401D01*
X107500Y42382D02*
X118481Y31401D01*
X102204Y39709D02*
Y40300D01*
Y39709D02*
X115505Y26409D01*
X102204Y40300D02*
X102500Y40596D01*
Y63500D01*
D66*
X8458Y53331D02*
G03*
X6513Y53117I-984J0D01*
G01*
X8458Y53331D02*
G03*
X6513Y53117I-984J0D01*
G01*
Y53117D02*
G03*
X8458Y53331I961J213D01*
G01*
X6513Y53117D02*
G03*
X6729Y52688I961J213D01*
G01*
D02*
G03*
X8458Y53331I745J643D01*
G01*
X4915D02*
G03*
X4915Y53331I-984J0D01*
G01*
X4915Y24984D02*
G03*
X4915Y24984I-984J0D01*
G01*
X8458D02*
G03*
X8458Y24984I-984J0D01*
G01*
D67*
X262043Y186874D02*
D03*
Y188843D02*
D03*
Y190811D02*
D03*
Y192780D02*
D03*
X254957D02*
D03*
Y190811D02*
D03*
Y188843D02*
D03*
Y186874D02*
D03*
D68*
X258500Y189827D02*
D03*
D69*
X152500Y176472D02*
D03*
Y185528D02*
D03*
D70*
X22319Y160967D02*
D03*
D71*
X48500Y151911D02*
D03*
Y170022D02*
D03*
D72*
X133744Y166500D02*
D03*
X139256D02*
D03*
X96744Y182700D02*
D03*
X102256D02*
D03*
X86756Y152000D02*
D03*
X81244D02*
D03*
X164412Y179000D02*
D03*
X158900D02*
D03*
X67997Y64500D02*
D03*
X62485D02*
D03*
X50756Y3000D02*
D03*
X45244D02*
D03*
D73*
X166500Y195958D02*
D03*
Y190052D02*
D03*
X158900Y195958D02*
D03*
Y190052D02*
D03*
X58698Y10555D02*
D03*
Y17445D02*
D03*
X24500Y57217D02*
D03*
Y64106D02*
D03*
D74*
X87740Y158856D02*
D03*
X81835D02*
D03*
X95314Y40300D02*
D03*
X102204D02*
D03*
X95314Y32300D02*
D03*
X102204D02*
D03*
X177686Y32700D02*
D03*
X170796D02*
D03*
X177686Y40700D02*
D03*
X170796D02*
D03*
X177686Y48700D02*
D03*
X170796D02*
D03*
X27945Y3000D02*
D03*
X21055D02*
D03*
X51293Y17000D02*
D03*
X45387D02*
D03*
X51293Y9500D02*
D03*
X45387D02*
D03*
D75*
X139453Y182724D02*
D03*
X133823D02*
D03*
X139453Y178276D02*
D03*
X133823D02*
D03*
D76*
X147000Y183787D02*
D03*
Y178276D02*
D03*
X94000Y169244D02*
D03*
Y174756D02*
D03*
X176000Y178244D02*
D03*
Y183756D02*
D03*
X102500Y190244D02*
D03*
Y195756D02*
D03*
X250500Y194354D02*
D03*
X76059Y30627D02*
D03*
Y36139D02*
D03*
X81500Y30627D02*
D03*
Y36139D02*
D03*
D77*
X167500Y169500D02*
D03*
X109000Y172756D02*
D03*
D78*
X176100Y173400D02*
D03*
Y171450D02*
D03*
Y169500D02*
D03*
Y167550D02*
D03*
Y165600D02*
D03*
X158900D02*
D03*
Y167550D02*
D03*
Y169500D02*
D03*
Y171450D02*
D03*
Y173400D02*
D03*
X100400Y176656D02*
D03*
Y174706D02*
D03*
Y172756D02*
D03*
Y170806D02*
D03*
Y168856D02*
D03*
X117600D02*
D03*
Y170806D02*
D03*
Y172756D02*
D03*
Y174706D02*
D03*
Y176656D02*
D03*
D79*
X124000Y195958D02*
D03*
Y190052D02*
D03*
X152500Y165545D02*
D03*
Y171450D02*
D03*
X262000Y197087D02*
D03*
Y202598D02*
D03*
D80*
X83047Y169500D02*
D03*
X88953D02*
D03*
X133547Y172539D02*
D03*
X139453D02*
D03*
X255953Y200343D02*
D03*
X250047D02*
D03*
X11047Y64500D02*
D03*
X16953D02*
D03*
X39547Y64500D02*
D03*
X45453D02*
D03*
D81*
X67200Y148656D02*
D03*
X59800D02*
D03*
Y158856D02*
D03*
X63500D02*
D03*
X67200D02*
D03*
D82*
X83100Y175300D02*
D03*
Y179000D02*
D03*
Y182700D02*
D03*
X72900D02*
D03*
Y175300D02*
D03*
X93300Y195700D02*
D03*
Y188300D02*
D03*
X83100D02*
D03*
Y192000D02*
D03*
Y195700D02*
D03*
D83*
X182300Y193000D02*
D03*
D84*
X173700Y189300D02*
D03*
Y196700D02*
D03*
D85*
X219500Y183036D02*
D03*
Y194650D02*
D03*
X232996Y16807D02*
D03*
Y5193D02*
D03*
D86*
X225504Y188843D02*
D03*
X239000Y11000D02*
D03*
D87*
X250500Y188843D02*
D03*
D88*
X240039D02*
D03*
X244961D02*
D03*
D89*
X25890Y12500D02*
D03*
X12110D02*
D03*
D90*
X155308Y9814D02*
D03*
D91*
X110741Y10700D02*
D03*
D92*
X142217Y51940D02*
D03*
X118713D02*
D03*
D93*
X155997Y48102D02*
D03*
Y33535D02*
D03*
D94*
X145623Y9322D02*
D03*
X136961D02*
D03*
X132631D02*
D03*
X128300D02*
D03*
X123969D02*
D03*
X119639D02*
D03*
D95*
X141292D02*
D03*
D96*
X115505D02*
D03*
D97*
X66375Y52086D02*
D03*
X63816D02*
D03*
X61257D02*
D03*
X58698D02*
D03*
X56139D02*
D03*
X53580D02*
D03*
X51020D02*
D03*
X48461D02*
D03*
X45902D02*
D03*
X43343D02*
D03*
X40784D02*
D03*
X38225D02*
D03*
X35666D02*
D03*
X33107D02*
D03*
X66375Y25314D02*
D03*
X63816D02*
D03*
X61257D02*
D03*
X58698D02*
D03*
X56139D02*
D03*
X53580D02*
D03*
X51020D02*
D03*
X48461D02*
D03*
X45902D02*
D03*
X43343D02*
D03*
X40784D02*
D03*
X38225D02*
D03*
X35666D02*
D03*
X33107D02*
D03*
D98*
X16332Y44276D02*
D03*
Y41717D02*
D03*
Y39157D02*
D03*
Y36598D02*
D03*
Y34039D02*
D03*
D99*
X5702Y43095D02*
D03*
Y35220D02*
D03*
D100*
X101756Y182700D02*
X102256Y181256D01*
X100000Y179000D02*
X102256Y181256D01*
X83100Y179000D02*
X100000D01*
X89000Y192000D02*
X89000Y192000D01*
Y199500D01*
X20000D02*
X89000D01*
X78700Y195700D02*
X83100D01*
X77000Y194000D02*
X78700Y195700D01*
X77000Y190000D02*
Y194000D01*
Y190000D02*
X78700Y188300D01*
X83100D01*
X17000Y196500D02*
X20000Y199500D01*
X17000Y189500D02*
Y196500D01*
X111144Y158856D02*
X113500Y156500D01*
X87740Y158856D02*
X111144D01*
X36685Y185315D02*
X39300Y182700D01*
X36685Y185315D02*
Y189500D01*
X48500Y151911D02*
X56911D01*
X59800Y154800D01*
Y158856D01*
X67200D02*
Y174200D01*
X59800Y166800D02*
X67200Y174200D01*
X59800Y158856D02*
Y166800D01*
X68300Y175300D02*
X72900D01*
X67200Y174200D02*
X68300Y175300D01*
X78000D02*
Y182700D01*
X72900Y175300D02*
X78000D01*
Y182700D02*
X83100D01*
X39300D02*
X72900D01*
X67200Y158856D02*
X81835D01*
X99725Y192000D02*
X101756Y189469D01*
X102256Y190249D02*
X108500D01*
X83100Y192000D02*
X89000D01*
X89000Y192000D02*
X99725D01*
X101756Y182700D02*
Y189469D01*
X83100Y182700D02*
X96744D01*
X83100D02*
Y188300D01*
D101*
X262043Y188843D02*
X264157D01*
X252843D02*
X254957D01*
D102*
X264157D02*
X282000D01*
X239000Y11000D02*
X282000D01*
X244961Y188843D02*
X250500D01*
X252843D01*
X225504D02*
X240039D01*
D103*
X26842Y178870D02*
D03*
D104*
X17000Y189500D02*
D03*
D105*
X36685D02*
D03*
D106*
X272000Y178843D02*
D03*
X292000D02*
D03*
Y198843D02*
D03*
X272000D02*
D03*
Y21000D02*
D03*
X292000D02*
D03*
Y1000D02*
D03*
X272000D02*
D03*
D107*
X282000Y188843D02*
D03*
Y11000D02*
D03*
D108*
X168500Y156500D02*
D03*
X163500D02*
D03*
X158500D02*
D03*
X153500D02*
D03*
X148500D02*
D03*
X143500D02*
D03*
X138500D02*
D03*
X133500D02*
D03*
X128500D02*
D03*
X123500D02*
D03*
X118500D02*
D03*
X113500D02*
D03*
X190500Y63500D02*
D03*
Y68500D02*
D03*
Y73500D02*
D03*
Y78500D02*
D03*
Y83500D02*
D03*
Y88500D02*
D03*
Y93500D02*
D03*
Y98500D02*
D03*
Y103500D02*
D03*
Y108500D02*
D03*
Y113500D02*
D03*
Y118500D02*
D03*
Y123500D02*
D03*
Y128500D02*
D03*
Y133500D02*
D03*
X97500Y71000D02*
D03*
Y76000D02*
D03*
Y81000D02*
D03*
Y86000D02*
D03*
Y91000D02*
D03*
Y96000D02*
D03*
Y101000D02*
D03*
Y106000D02*
D03*
Y111000D02*
D03*
Y116000D02*
D03*
Y121000D02*
D03*
Y126000D02*
D03*
Y131000D02*
D03*
Y136000D02*
D03*
Y141000D02*
D03*
Y146000D02*
D03*
X152500Y63500D02*
D03*
X147500D02*
D03*
X162500D02*
D03*
X157500D02*
D03*
X142500D02*
D03*
X137500D02*
D03*
X132500D02*
D03*
X127500D02*
D03*
X122500D02*
D03*
X117500D02*
D03*
X112500D02*
D03*
X107500D02*
D03*
X102500D02*
D03*
X97500D02*
D03*
D109*
X16332Y29315D02*
D03*
Y49000D02*
D03*
D110*
X68300Y123100D02*
D03*
D111*
X78300Y118100D02*
D03*
X68300Y113100D02*
D03*
X78300Y108100D02*
D03*
X68300Y103100D02*
D03*
X78300Y98100D02*
D03*
X68300Y93100D02*
D03*
X78300Y88100D02*
D03*
D112*
X55300Y74600D02*
D03*
Y136600D02*
D03*
D113*
X24000Y130500D02*
D03*
Y90600D02*
D03*
X30000Y120500D02*
D03*
Y80600D02*
D03*
D114*
X43300Y83100D02*
D03*
Y128100D02*
D03*
D115*
X58500Y216843D02*
D03*
Y176000D02*
D03*
X3305D02*
D03*
Y216843D02*
D03*
X46000Y38000D02*
D03*
X40784Y43000D02*
D03*
X59000D02*
D03*
X63000Y38000D02*
D03*
X17500Y58500D02*
D03*
X108500Y190249D02*
D03*
X123000Y45000D02*
D03*
X182500Y163500D02*
D03*
Y169500D02*
D03*
X23461Y34039D02*
D03*
X51000Y59000D02*
D03*
X146000Y165600D02*
D03*
X152042Y195958D02*
D03*
X182000Y182500D02*
D03*
X128500Y182724D02*
D03*
X112500Y21000D02*
D03*
X124000Y3500D02*
D03*
X288500Y-17000D02*
D03*
X281500D02*
D03*
X274500D02*
D03*
X267500D02*
D03*
X246500D02*
D03*
X253500D02*
D03*
X260500D02*
D03*
X211500D02*
D03*
X204500D02*
D03*
X218500D02*
D03*
X225500D02*
D03*
X232500D02*
D03*
X239500D02*
D03*
Y39000D02*
D03*
X232500D02*
D03*
X225500D02*
D03*
X218500D02*
D03*
X211500D02*
D03*
X260500D02*
D03*
X253500D02*
D03*
X246500D02*
D03*
X267500D02*
D03*
X274500D02*
D03*
X281500D02*
D03*
X288500D02*
D03*
X204500Y32000D02*
D03*
Y-3000D02*
D03*
Y-10000D02*
D03*
Y4000D02*
D03*
Y11000D02*
D03*
Y18000D02*
D03*
Y25000D02*
D03*
Y39000D02*
D03*
X295500Y-17000D02*
D03*
Y-10000D02*
D03*
Y32000D02*
D03*
Y39000D02*
D03*
Y216843D02*
D03*
Y209843D02*
D03*
Y167843D02*
D03*
Y160843D02*
D03*
X145500Y46000D02*
D03*
X160000Y19500D02*
D03*
X57242Y4500D02*
D03*
X204500Y216843D02*
D03*
Y202843D02*
D03*
Y195843D02*
D03*
Y188843D02*
D03*
Y181843D02*
D03*
Y167843D02*
D03*
Y174843D02*
D03*
Y209843D02*
D03*
X288500Y216843D02*
D03*
X281500D02*
D03*
X274500D02*
D03*
X267500D02*
D03*
X246500D02*
D03*
X253500D02*
D03*
X260500D02*
D03*
X211500D02*
D03*
X218500D02*
D03*
X225500D02*
D03*
X232500D02*
D03*
X239500D02*
D03*
Y160843D02*
D03*
X232500D02*
D03*
X225500D02*
D03*
X218500D02*
D03*
X204500D02*
D03*
X211500D02*
D03*
X260500D02*
D03*
X253500D02*
D03*
X246500D02*
D03*
X267500D02*
D03*
X274500D02*
D03*
X281500D02*
D03*
X288500D02*
D03*
M02*
